{"glyphs":{"0":{"ha":833,"x_min":0,"x_max":0,"o":"m 797 463 b 664 75 797 304 754 164 b 415 -21 610 22 529 -21 b 169 75 304 -21 225 21 b 36 463 79 164 36 304 b 169 851 36 622 79 764 b 415 947 225 906 304 947 b 664 851 529 947 610 904 b 797 463 754 764 797 622 m 417 764 b 331 729 381 764 356 753 b 253 464 263 663 253 529 b 331 197 253 392 265 261 b 417 163 356 174 381 163 b 503 197 453 163 478 174 b 581 464 568 261 581 392 b 503 729 581 529 571 663 b 417 764 478 753 453 764 "},"1":{"ha":833,"x_min":0,"x_max":0,"o":"m 321 746 l 189 746 l 189 926 l 535 926 l 535 0 l 321 0 "},"2":{"ha":833,"x_min":0,"x_max":0,"o":"m 742 0 l 33 0 l 311 303 b 463 492 360 357 433 447 b 518 649 483 525 518 585 b 482 740 518 683 504 719 b 397 767 464 757 433 767 b 313 733 357 767 331 753 b 274 619 288 706 274 656 l 60 619 b 156 851 67 700 99 792 b 411 947 200 899 279 947 b 651 860 546 947 618 892 b 738 638 701 810 738 733 b 668 433 738 556 713 496 b 519 274 628 378 579 331 l 422 181 l 742 181 "},"3":{"ha":833,"x_min":0,"x_max":0,"o":"m 63 649 b 154 858 71 726 106 808 b 389 946 222 929 313 946 b 632 864 503 946 585 911 b 703 675 671 826 703 765 b 665 549 703 629 694 589 b 596 490 646 521 622 503 b 701 415 635 476 676 450 b 744 269 729 378 744 319 b 651 58 744 199 717 118 b 407 -22 572 -14 482 -22 b 136 74 317 -22 218 -8 b 33 303 83 128 43 210 l 247 303 b 292 199 250 267 267 224 b 394 161 314 176 350 161 b 488 193 431 161 465 172 b 525 288 510 214 525 250 b 485 376 525 326 507 358 b 371 406 451 403 403 406 l 354 406 l 354 553 l 367 553 b 460 579 379 553 429 554 b 494 663 479 596 494 625 b 464 738 494 694 482 721 b 385 765 447 753 419 765 b 301 735 349 765 319 753 b 268 649 282 714 269 678 "},"4":{"ha":833,"x_min":0,"x_max":0,"o":"m 685 344 l 796 344 l 796 175 l 685 175 l 685 0 l 479 0 l 479 175 l 26 175 l 26 297 l 435 926 l 685 926 m 479 344 l 479 704 l 251 344 "},"5":{"ha":833,"x_min":0,"x_max":0,"o":"m 685 746 l 372 746 l 347 622 b 424 629 371 626 400 629 b 660 539 528 629 608 592 b 744 315 701 497 744 425 b 650 76 744 196 693 119 b 369 -21 565 -7 464 -21 b 61 81 282 -21 178 -10 l 110 279 b 199 203 135 251 169 221 b 339 163 238 178 283 163 b 471 200 388 163 438 174 b 525 317 500 222 525 263 b 478 425 525 372 500 406 b 324 474 467 435 421 474 b 135 425 246 474 181 450 l 229 926 l 685 926 "},"6":{"ha":833,"x_min":0,"x_max":0,"o":"m 629 924 l 385 619 b 482 635 413 629 442 635 b 711 546 599 635 671 588 b 792 332 744 511 792 444 b 704 83 792 243 764 149 b 419 -21 619 -8 501 -21 b 119 88 335 -21 211 -12 b 39 313 58 153 39 231 b 188 668 39 460 108 564 l 400 947 m 413 154 b 524 196 468 154 504 178 b 572 318 549 219 572 258 b 524 432 572 372 550 408 b 413 471 489 463 449 471 b 300 431 371 471 332 461 b 253 313 282 414 253 376 b 300 197 253 269 265 229 b 413 154 326 172 365 154 "},"7":{"ha":833,"x_min":0,"x_max":0,"o":"m 489 746 l 81 746 l 81 926 l 817 926 l 268 -21 l 69 28 "},"8":{"ha":833,"x_min":0,"x_max":0,"o":"m 415 -21 b 163 57 332 -21 244 -17 b 74 258 92 121 74 197 b 136 417 74 338 108 388 b 251 486 167 449 211 474 b 167 543 228 496 196 513 b 110 690 125 586 110 633 b 178 863 110 768 139 824 b 418 947 246 932 335 947 b 656 863 499 947 588 932 b 724 690 694 824 724 768 b 667 543 724 633 708 586 b 582 486 638 513 606 496 b 697 417 622 474 667 449 b 760 258 725 388 760 338 b 671 57 760 197 742 121 b 415 -21 589 -17 503 -21 m 417 789 b 335 758 388 789 360 781 b 300 679 311 736 300 710 b 335 600 300 640 318 615 b 417 569 356 582 383 569 b 497 600 446 569 474 578 b 532 679 521 622 532 647 b 497 760 532 725 507 750 b 417 789 478 776 450 789 m 414 400 b 326 367 378 400 346 386 b 290 275 304 344 290 307 b 326 182 290 242 301 206 b 417 149 350 160 385 149 b 507 182 449 149 483 160 b 543 276 528 201 543 236 b 507 367 543 315 528 347 b 414 400 485 389 450 400 "},"9":{"ha":833,"x_min":0,"x_max":0,"o":"m 201 3 l 446 306 b 353 292 414 296 383 292 b 119 378 253 292 171 326 b 39 601 69 428 39 501 b 129 843 39 739 101 814 b 419 947 219 938 346 947 b 697 854 565 947 649 899 b 792 619 743 811 792 735 b 750 431 792 561 778 493 b 642 258 726 379 685 315 l 431 -21 m 418 772 b 307 731 375 772 335 757 b 258 614 289 714 258 678 b 306 494 258 556 279 518 b 418 456 335 468 376 456 b 531 496 465 456 504 472 b 578 618 553 517 578 554 b 531 731 578 663 564 699 b 418 772 508 751 472 772 "}," ":{"ha":324,"x_min":0,"x_max":0,"o":""},"!":{"ha":386,"x_min":0,"x_max":0,"o":"m 90 299 l 90 926 l 296 926 l 296 299 m 67 104 b 193 231 67 175 122 231 b 319 104 264 231 319 175 b 193 -22 319 33 264 -22 b 67 104 122 -22 67 33 "},"\"":{"ha":565,"x_min":0,"x_max":0,"o":"m 219 554 l 90 554 l 58 926 l 253 926 m 475 554 l 346 554 l 313 926 l 507 926 "},"#":{"ha":833,"x_min":0,"x_max":0,"o":"m 796 410 l 772 256 l 631 256 l 589 0 l 411 0 l 453 256 l 329 256 l 288 0 l 110 0 l 151 256 l 11 256 l 36 410 l 175 410 l 196 538 l 57 538 l 81 690 l 219 690 l 258 926 l 436 926 l 397 690 l 521 690 l 560 926 l 738 926 l 699 690 l 839 690 l 815 538 l 675 538 l 654 410 m 497 538 l 374 538 l 353 410 l 476 410 "},"$":{"ha":833,"x_min":0,"x_max":0,"o":"m 490 1076 l 490 936 b 701 847 531 933 615 919 l 608 699 b 457 764 567 736 515 764 b 369 738 418 764 388 754 b 342 679 354 724 342 703 b 368 625 342 656 351 639 b 461 579 390 606 424 596 l 539 546 b 669 467 586 525 633 503 b 735 296 715 419 735 363 b 658 89 735 208 703 136 b 490 3 618 46 560 14 l 490 -156 l 365 -156 l 365 -3 b 199 43 310 0 257 13 b 74 138 151 68 110 99 l 176 290 b 267 218 188 279 221 246 b 396 181 303 196 343 181 b 489 210 426 181 461 186 b 522 281 507 225 522 247 b 481 356 522 314 507 338 b 385 397 458 371 435 378 l 336 417 b 196 501 288 436 238 460 b 133 654 153 546 133 592 b 213 860 133 736 164 811 b 365 936 250 897 306 926 l 365 1076 "},"%":{"ha":1153,"x_min":0,"x_max":0,"o":"m 800 942 l 897 921 l 353 -19 l 257 3 m 285 826 b 206 794 247 826 221 811 b 175 714 188 776 175 747 b 206 633 175 681 188 651 b 285 601 221 617 247 601 b 364 633 322 601 349 617 b 394 714 382 651 394 681 b 364 794 394 747 382 776 b 285 826 349 811 322 826 m 528 714 b 468 558 528 632 492 582 b 285 489 425 514 358 489 b 101 558 211 489 144 514 b 42 714 78 582 42 632 b 101 869 42 796 78 846 b 285 939 144 914 211 939 b 468 869 358 939 425 914 b 528 714 492 846 528 796 m 868 325 b 789 293 831 325 804 310 b 758 213 771 275 758 246 b 789 132 758 179 771 150 b 868 100 804 115 831 100 b 947 132 906 100 932 115 b 978 213 965 150 978 179 b 947 293 978 246 965 275 b 868 325 932 310 906 325 m 1111 213 b 1051 57 1111 131 1075 81 b 868 -12 1008 13 942 -12 b 685 57 794 -12 728 13 b 625 213 661 81 625 131 b 685 368 625 294 661 344 b 868 438 728 413 794 438 b 1051 368 942 438 1008 413 b 1111 213 1075 344 1111 294 "},"&":{"ha":1033,"x_min":0,"x_max":0,"o":"m 949 350 b 825 217 908 299 867 254 l 1022 0 l 761 0 l 678 90 b 560 7 643 56 600 24 b 386 -21 507 -15 447 -21 b 151 53 310 -21 224 -15 b 72 244 121 82 72 142 b 144 429 72 321 97 381 b 294 515 182 468 238 499 b 231 597 272 538 244 571 b 206 706 213 632 206 668 b 271 872 206 785 236 838 b 475 947 311 911 376 947 b 682 872 569 947 639 915 b 746 714 719 835 746 778 b 675 551 746 660 725 600 b 575 488 649 526 613 503 l 710 339 b 828 468 756 381 794 425 m 399 404 b 324 350 375 392 342 371 b 292 267 297 321 292 290 b 325 194 292 236 307 211 b 415 164 347 175 379 164 b 558 225 476 164 528 199 m 404 721 b 428 653 404 694 414 674 b 481 592 449 622 479 593 b 546 642 503 603 531 624 b 575 718 563 661 575 689 b 551 778 575 743 565 764 b 489 800 540 788 521 800 b 431 781 472 800 450 797 b 404 721 413 765 404 743 "},"'":{"ha":311,"x_min":0,"x_max":0,"o":"m 219 554 l 90 554 l 58 926 l 253 926 "},"(":{"ha":465,"x_min":0,"x_max":0,"o":"m 388 953 b 299 710 346 868 318 789 b 261 385 269 592 261 496 b 299 63 261 269 271 175 b 388 -181 318 -17 346 -96 l 253 -256 b 143 11 214 -185 174 -97 b 94 385 107 135 94 249 b 143 761 94 524 108 638 b 253 1028 174 869 214 957 "},")":{"ha":465,"x_min":0,"x_max":0,"o":"m 229 1028 b 339 761 268 957 308 869 b 388 385 374 638 388 524 b 339 11 388 249 375 135 b 229 -256 308 -97 268 -185 l 94 -181 b 183 63 136 -96 164 -17 b 221 385 211 175 221 269 b 183 710 221 496 213 592 b 94 953 164 789 136 868 "},"*":{"ha":813,"x_min":0,"x_max":0,"o":"m 349 854 l 338 1013 l 475 1013 l 463 854 l 608 915 l 651 786 l 497 750 l 599 629 l 490 549 l 406 683 l 322 549 l 214 629 l 315 749 l 161 785 l 204 915 "},"+":{"ha":694,"x_min":0,"x_max":0,"o":"m 46 553 l 260 553 l 260 767 l 435 767 l 435 553 l 649 553 l 649 392 l 435 392 l 435 176 l 260 176 l 260 392 l 46 392 "},",":{"ha":383,"x_min":0,"x_max":0,"o":"m 139 214 l 321 204 l 111 -183 l -14 -178 "},"-":{"ha":494,"x_min":0,"x_max":0,"o":"m 69 439 l 425 439 l 425 264 l 69 264 "},".":{"ha":386,"x_min":0,"x_max":0,"o":"m 67 104 b 193 231 67 175 122 231 b 319 104 264 231 319 175 b 193 -22 319 33 264 -22 b 67 104 122 -22 67 33 "},"/":{"ha":972,"x_min":0,"x_max":0,"o":"m 753 1040 l 910 1013 l 178 -283 l 21 -256 "},":":{"ha":386,"x_min":0,"x_max":0,"o":"m 67 106 b 193 232 67 176 122 232 b 319 106 264 232 319 176 b 193 -21 319 35 264 -21 b 67 106 122 -21 67 35 m 67 514 b 193 640 67 585 122 640 b 319 514 264 640 319 585 b 193 388 319 443 264 388 b 67 514 122 388 67 443 "},";":{"ha":417,"x_min":0,"x_max":0,"o":"m 139 214 l 321 204 l 111 -183 l -14 -178 m 97 514 b 224 640 97 585 153 640 b 350 514 294 640 350 585 b 224 388 350 443 294 388 b 97 514 153 388 97 443 "},"<":{"ha":694,"x_min":0,"x_max":0,"o":"m 649 843 l 649 671 l 231 464 l 649 257 l 649 85 l 46 389 l 46 539 "},"=":{"ha":694,"x_min":0,"x_max":0,"o":"m 46 668 l 649 668 l 649 515 l 46 515 m 46 429 l 649 429 l 649 276 l 46 276 "},">":{"ha":694,"x_min":0,"x_max":0,"o":"m 649 389 l 46 85 l 46 257 l 464 464 l 46 671 l 46 843 l 649 539 "},"?":{"ha":729,"x_min":0,"x_max":0,"o":"m 240 297 l 240 553 b 418 582 301 539 376 546 b 460 678 443 604 460 639 b 433 749 460 706 450 731 b 367 775 413 771 386 775 b 296 749 331 775 308 761 b 272 671 281 732 271 699 l 58 671 b 135 863 60 756 96 822 b 364 947 169 899 238 947 b 593 864 472 947 546 910 b 671 672 649 810 671 739 b 601 496 671 596 639 536 b 443 414 574 465 522 425 l 443 297 m 221 106 b 347 232 221 176 276 232 b 474 106 418 232 474 176 b 347 -21 474 35 418 -21 b 221 106 276 -21 221 35 "},"@":{"ha":1019,"x_min":0,"x_max":0,"o":"m 661 676 l 778 676 l 722 394 b 717 347 719 383 717 360 b 729 308 717 335 719 317 b 753 300 735 303 742 300 b 797 321 767 300 785 310 b 871 521 847 364 871 463 b 790 733 871 610 836 686 b 538 831 738 789 646 831 b 269 722 425 831 331 785 b 160 447 197 649 160 543 b 279 168 160 339 206 235 b 547 81 365 92 464 81 b 797 126 657 81 744 107 l 824 21 b 551 -24 724 -14 635 -24 b 175 114 422 -24 282 1 b 46 453 90 203 46 331 b 186 800 46 614 110 726 b 539 935 286 897 406 935 b 858 815 636 935 758 914 b 974 529 928 747 974 656 b 874 261 974 422 936 321 b 744 206 821 210 768 206 b 669 232 714 206 689 215 b 638 283 649 249 642 268 b 468 194 583 199 499 194 b 329 250 410 194 365 213 b 271 413 282 299 271 354 b 347 619 271 481 286 556 b 513 690 399 674 458 690 b 650 618 604 690 640 636 m 497 313 b 572 344 524 313 549 321 b 619 464 603 375 619 422 b 589 549 619 503 607 532 b 529 569 569 567 546 569 b 451 538 497 569 472 558 b 403 418 419 507 403 460 b 432 338 403 381 415 354 b 497 313 447 322 469 313 "},"A":{"ha":940,"x_min":0,"x_max":0,"o":"m 646 175 l 296 175 l 225 0 l 3 0 l 376 926 l 572 926 l 938 0 l 715 0 m 588 339 l 474 650 l 358 339 "},"B":{"ha":825,"x_min":0,"x_max":0,"o":"m 385 926 b 621 856 435 926 549 924 b 688 681 681 799 688 721 b 657 563 688 644 682 603 b 579 494 633 524 601 504 b 707 432 624 488 674 465 b 767 267 738 401 767 349 b 694 79 767 174 731 115 b 450 0 618 6 507 0 l 101 0 l 101 926 m 313 550 l 347 550 b 456 576 376 550 425 554 b 493 658 475 590 493 618 b 457 736 493 699 474 724 b 346 760 426 760 385 760 l 313 760 m 313 167 l 364 167 b 522 204 418 167 483 168 b 553 282 542 222 553 249 b 524 357 553 319 538 344 b 371 392 486 392 414 392 l 313 392 "},"C":{"ha":840,"x_min":0,"x_max":0,"o":"m 771 29 b 567 -21 689 -12 622 -21 b 203 114 396 -21 281 38 b 58 465 119 194 58 317 b 203 814 58 611 119 733 b 549 947 285 893 404 947 b 771 896 610 947 681 935 l 771 649 b 554 747 724 699 653 747 b 365 675 476 747 414 722 b 278 461 314 625 278 550 b 358 257 278 365 317 297 b 558 179 378 238 444 179 b 771 275 614 179 689 194 "},"D":{"ha":951,"x_min":0,"x_max":0,"o":"m 394 926 b 760 799 517 926 646 908 b 893 467 842 719 893 611 b 767 139 893 321 843 215 b 401 0 639 10 479 0 l 101 0 l 101 926 m 315 181 l 372 181 b 583 243 417 181 514 185 b 674 467 633 285 674 364 b 597 667 674 567 633 631 b 372 746 528 736 438 746 l 315 746 "},"E":{"ha":697,"x_min":0,"x_max":0,"o":"m 625 746 l 315 746 l 315 567 l 610 567 l 610 386 l 315 386 l 315 181 l 625 181 l 625 0 l 101 0 l 101 926 l 625 926 "},"F":{"ha":671,"x_min":0,"x_max":0,"o":"m 615 746 l 315 746 l 315 567 l 593 567 l 593 386 l 315 386 l 315 0 l 101 0 l 101 926 l 615 926 "},"G":{"ha":1065,"x_min":0,"x_max":0,"o":"m 547 506 l 1007 506 l 1007 496 b 864 106 1007 383 967 213 b 533 -21 761 -1 643 -21 b 194 108 422 -21 303 -3 b 58 461 140 164 58 276 b 192 813 58 613 114 733 b 556 947 306 931 446 947 b 815 878 632 947 729 935 b 965 713 878 836 932 771 l 772 608 b 690 708 754 644 726 682 b 549 753 649 739 601 753 b 357 678 464 753 401 725 b 278 458 306 624 278 544 b 356 246 278 353 317 285 b 543 174 410 190 472 174 b 704 224 635 174 683 206 b 771 333 711 229 753 265 l 547 333 "},"H":{"ha":1000,"x_min":0,"x_max":0,"o":"m 315 574 l 685 574 l 685 926 l 899 926 l 899 0 l 685 0 l 685 393 l 315 393 l 315 0 l 101 0 l 101 926 l 315 926 "},"I":{"ha":425,"x_min":0,"x_max":0,"o":"m 319 926 l 319 0 l 106 0 l 106 926 "},"J":{"ha":576,"x_min":0,"x_max":0,"o":"m 475 926 l 475 296 b 394 49 475 226 471 124 b 199 -21 333 -12 258 -21 b 51 13 149 -21 100 -17 b -36 90 22 31 -12 61 l 97 240 b 131 189 106 224 119 200 b 183 168 146 174 163 168 b 233 188 201 168 218 172 b 261 297 260 214 261 258 l 261 926 "},"K":{"ha":931,"x_min":0,"x_max":0,"o":"m 315 540 l 632 926 l 893 926 l 518 488 l 922 0 l 647 0 l 315 411 l 315 0 l 101 0 l 101 926 l 315 926 "},"L":{"ha":622,"x_min":0,"x_max":0,"o":"m 315 926 l 315 181 l 603 181 l 603 0 l 101 0 l 101 926 "},"M":{"ha":1231,"x_min":0,"x_max":0,"o":"m 58 0 l 207 926 l 385 926 l 615 372 l 846 926 l 1024 926 l 1172 0 l 958 0 l 885 553 l 653 0 l 578 0 l 346 553 l 272 0 "},"N":{"ha":1106,"x_min":0,"x_max":0,"o":"m 101 0 l 101 926 l 288 926 l 790 329 l 790 926 l 1004 926 l 1004 0 l 818 0 l 315 600 l 315 0 "},"O":{"ha":1125,"x_min":0,"x_max":0,"o":"m 564 947 b 922 813 708 947 829 903 b 1067 463 1010 728 1067 606 b 922 115 1067 339 1022 213 b 564 -21 836 32 719 -21 b 203 115 390 -21 272 49 b 58 460 114 199 58 324 b 201 811 58 593 118 728 b 564 947 264 874 379 947 m 563 750 b 360 671 482 750 410 721 b 278 461 319 632 278 564 b 363 253 278 376 306 308 b 561 176 422 196 489 176 b 767 256 656 176 722 211 b 847 463 803 290 847 356 b 767 671 847 558 808 629 b 563 750 721 715 647 750 "},"P":{"ha":794,"x_min":0,"x_max":0,"o":"m 428 926 b 671 850 508 926 597 915 b 761 625 750 781 761 689 b 682 407 761 508 717 443 b 446 325 608 332 511 325 l 315 325 l 315 0 l 101 0 l 101 926 m 315 500 l 392 500 b 507 535 421 500 472 501 b 542 626 526 554 542 586 b 507 717 542 665 528 697 b 388 751 475 747 429 751 l 315 751 "},"Q":{"ha":1129,"x_min":0,"x_max":0,"o":"m 804 51 b 544 -21 758 18 686 -21 b 204 111 400 -21 294 22 b 58 464 97 217 58 347 b 199 808 58 603 118 728 b 561 947 278 888 401 947 b 919 814 704 947 832 896 b 1064 461 1004 735 1064 614 b 1025 282 1064 392 1049 335 b 935 157 1001 228 971 189 l 1096 -18 l 894 -43 m 790 297 b 844 464 825 344 844 394 b 765 668 844 563 804 629 b 561 750 713 722 638 750 b 358 668 475 750 403 714 b 278 460 306 614 278 532 b 356 258 278 385 304 313 b 556 176 401 211 465 176 b 667 200 594 176 631 183 l 500 364 l 707 386 "},"R":{"ha":843,"x_min":0,"x_max":0,"o":"m 426 926 b 663 846 544 926 618 888 b 743 639 701 808 743 742 b 671 450 743 581 731 508 b 542 379 639 419 593 392 l 826 0 l 565 0 l 315 365 l 315 0 l 101 0 l 101 926 m 315 506 l 364 506 b 492 546 403 506 456 510 b 526 636 507 561 526 590 b 483 731 526 689 501 717 b 365 760 449 757 393 760 l 315 760 "},"S":{"ha":764,"x_min":0,"x_max":0,"o":"m 579 700 b 424 767 510 763 450 767 b 333 735 394 767 358 763 b 310 676 319 721 310 700 b 331 625 310 654 317 638 b 447 572 353 604 385 596 l 517 546 b 643 475 557 531 607 510 b 711 303 697 424 711 357 b 629 74 711 207 678 124 b 367 -21 547 -12 428 -21 b 183 18 300 -21 242 -11 b 47 119 136 42 82 85 l 158 272 b 244 201 182 249 219 217 b 361 168 281 179 318 168 b 458 200 389 168 428 174 b 492 275 476 215 492 240 b 460 342 492 306 479 325 b 351 393 435 363 378 383 l 275 419 b 146 493 232 435 182 454 b 90 654 97 544 90 610 b 171 863 90 736 115 806 b 400 947 236 929 314 947 b 675 856 464 947 567 936 "},"T":{"ha":639,"x_min":0,"x_max":0,"o":"m 426 746 l 426 0 l 213 0 l 213 746 l 11 746 l 11 926 l 628 926 l 628 746 "},"U":{"ha":986,"x_min":0,"x_max":0,"o":"m 885 378 b 782 85 885 289 874 179 b 493 -21 693 -7 590 -21 b 204 85 396 -21 293 -7 b 101 378 113 179 101 289 l 101 926 l 315 926 l 315 383 b 364 228 315 343 318 275 b 493 179 401 188 453 179 b 622 228 533 179 585 188 b 671 383 668 275 671 343 l 671 926 l 885 926 "},"V":{"ha":942,"x_min":0,"x_max":0,"o":"m 236 926 l 471 333 l 706 926 l 936 926 l 543 0 l 399 0 l 6 926 "},"W":{"ha":1392,"x_min":0,"x_max":0,"o":"m 228 926 l 425 313 l 622 926 l 769 926 l 967 313 l 1164 926 l 1386 926 l 1071 0 l 890 0 l 696 563 l 501 0 l 321 0 l 6 926 "},"X":{"ha":953,"x_min":0,"x_max":0,"o":"m 354 492 l 67 926 l 324 926 l 476 663 l 629 926 l 886 926 l 599 492 l 939 0 l 682 0 l 476 321 l 271 0 l 14 0 "},"Y":{"ha":878,"x_min":0,"x_max":0,"o":"m 332 432 l 0 926 l 253 926 l 439 639 l 625 926 l 878 926 l 546 432 l 546 0 l 332 0 "},"Z":{"ha":856,"x_min":0,"x_max":0,"o":"m 382 181 l 779 181 l 779 0 l 31 0 l 475 746 l 103 746 l 103 926 l 825 926 "},"[":{"ha":492,"x_min":0,"x_max":0,"o":"m 294 876 l 294 -119 l 422 -119 l 422 -256 l 125 -256 l 125 1013 l 422 1013 l 422 876 "},"\\":{"ha":972,"x_min":0,"x_max":0,"o":"m 794 -283 l 63 1013 l 219 1040 l 951 -256 "},"]":{"ha":492,"x_min":0,"x_max":0,"o":"m 69 1013 l 367 1013 l 367 -256 l 69 -256 l 69 -119 l 197 -119 l 197 876 l 69 876 "},"^":{"ha":694,"x_min":0,"x_max":0,"o":"m 192 463 l 8 463 l 232 926 l 461 926 l 685 463 l 501 463 l 346 792 "},"_":{"ha":694,"x_min":0,"x_max":0,"o":"m 0 -92 l 694 -92 l 694 -256 l 0 -256 "},"`":{"ha":694,"x_min":0,"x_max":0,"o":"m 122 903 l 254 993 l 424 782 l 333 715 "},"a":{"ha":831,"x_min":0,"x_max":0,"o":"m 553 619 l 753 619 l 753 0 l 553 0 l 553 75 b 369 -21 499 -8 421 -21 b 138 74 281 -21 206 1 b 47 306 72 143 47 224 b 143 556 47 410 86 499 b 358 640 197 610 272 640 b 553 550 411 640 496 628 m 408 468 b 299 424 365 468 325 450 b 253 311 278 403 253 367 b 294 200 253 256 276 219 b 413 151 322 171 365 151 b 517 194 453 151 490 168 b 565 311 543 219 565 258 b 519 425 565 356 549 397 b 408 468 489 454 444 468 "},"b":{"ha":836,"x_min":0,"x_max":0,"o":"m 283 1013 l 283 550 b 476 640 333 618 408 640 b 692 557 561 640 638 608 b 789 313 751 500 789 415 b 692 64 789 217 756 128 b 479 -21 638 8 571 -21 b 283 75 369 -21 314 31 l 283 0 l 83 0 l 83 1013 m 428 468 b 315 422 385 468 347 456 b 271 308 292 397 271 361 b 317 197 271 257 293 219 b 431 151 349 167 393 151 b 535 194 465 151 504 165 b 583 308 564 222 583 263 b 535 426 583 358 564 399 b 428 468 503 457 468 468 "},"c":{"ha":599,"x_min":0,"x_max":0,"o":"m 543 424 b 413 471 494 464 444 471 b 299 426 350 471 313 440 b 253 310 272 400 253 360 b 294 199 253 264 269 225 b 415 149 325 165 371 149 b 543 197 450 149 497 158 l 543 17 b 385 -21 490 -12 440 -21 b 144 72 281 -21 201 17 b 47 308 97 118 47 196 b 150 553 47 414 92 497 b 386 640 219 618 301 640 b 543 606 440 640 490 631 "},"d":{"ha":836,"x_min":0,"x_max":0,"o":"m 753 0 l 553 0 l 553 75 b 357 -21 522 31 467 -21 b 144 64 265 -21 199 8 b 47 313 81 128 47 217 b 144 557 47 415 85 500 b 360 640 199 608 275 640 b 553 550 428 640 503 618 l 553 1013 l 753 1013 m 408 468 b 301 426 368 468 333 457 b 253 308 272 399 253 358 b 301 194 253 263 272 222 b 406 151 332 165 371 151 b 519 197 443 151 488 167 b 565 308 543 219 565 257 b 521 422 565 361 544 397 b 408 468 489 456 451 468 "},"e":{"ha":760,"x_min":0,"x_max":0,"o":"m 528 394 b 488 467 526 400 517 439 b 393 501 465 488 433 501 b 292 461 342 501 311 481 b 257 394 276 444 263 422 m 713 275 l 250 275 b 288 169 250 242 263 197 b 390 131 318 136 360 131 b 471 149 419 131 450 136 b 514 200 474 150 497 165 l 703 181 b 583 25 675 93 619 47 b 388 -21 524 -11 457 -21 b 140 68 294 -21 213 -4 b 47 307 86 122 47 204 b 142 551 47 396 79 488 b 379 640 217 626 310 640 b 625 547 449 640 549 628 b 713 296 699 469 713 372 "},"f":{"ha":453,"x_min":0,"x_max":0,"o":"m 294 458 l 294 0 l 94 0 l 94 458 l 22 458 l 22 619 l 94 619 l 94 742 b 164 957 94 811 101 890 b 338 1028 204 1000 261 1028 b 451 1007 382 1028 418 1019 l 451 832 b 375 856 429 846 400 856 b 317 831 344 856 325 842 b 294 724 294 801 294 753 l 294 619 l 453 619 l 453 458 "},"g":{"ha":826,"x_min":0,"x_max":0,"o":"m 549 619 l 749 619 l 749 38 b 672 -226 749 -50 744 -149 b 411 -318 596 -308 479 -318 b 153 -239 329 -318 231 -306 b 60 -75 114 -206 74 -153 l 278 -75 b 322 -136 286 -107 306 -125 b 408 -157 346 -151 379 -157 b 508 -124 465 -157 494 -136 b 549 6 547 -86 549 -21 l 549 76 b 364 -17 525 38 478 -17 b 138 71 268 -17 194 14 b 47 304 88 122 47 197 b 139 551 47 410 86 497 b 364 640 176 590 249 640 b 549 547 476 640 526 581 m 410 467 b 300 426 365 467 325 450 b 253 311 269 397 253 349 b 296 200 253 271 268 229 b 408 156 324 171 361 156 b 517 196 461 156 496 176 b 565 314 547 225 565 268 b 518 428 565 363 544 403 b 410 467 489 454 446 467 "},"h":{"ha":793,"x_min":0,"x_max":0,"o":"m 83 1013 l 283 1013 l 283 546 b 358 610 308 576 335 597 b 479 636 400 632 435 636 b 654 574 528 636 600 629 b 715 393 711 517 715 440 l 715 0 l 515 0 l 515 318 b 482 442 515 361 514 411 b 404 469 464 460 433 469 b 325 439 361 469 336 450 b 283 310 285 400 283 340 l 283 0 l 83 0 "},"i":{"ha":383,"x_min":0,"x_max":0,"o":"m 292 619 l 292 0 l 92 0 l 92 619 m 75 883 b 192 1000 75 949 126 1000 b 308 883 257 1000 308 949 b 192 767 308 818 257 767 b 75 883 126 767 75 818 "},"j":{"ha":383,"x_min":0,"x_max":0,"o":"m 292 619 l 292 -318 l 92 -318 l 92 619 m 75 883 b 192 1000 75 949 126 1000 b 308 883 257 1000 308 949 b 192 767 308 818 257 767 b 75 883 126 767 75 818 "},"k":{"ha":786,"x_min":0,"x_max":0,"o":"m 283 1013 l 283 392 l 508 619 l 771 619 l 476 339 l 792 0 l 522 0 l 283 267 l 283 0 l 83 0 l 83 1013 "},"l":{"ha":367,"x_min":0,"x_max":0,"o":"m 283 1013 l 283 0 l 83 0 l 83 1013 "},"m":{"ha":1171,"x_min":0,"x_max":0,"o":"m 78 619 l 278 619 l 278 547 b 451 635 329 625 404 635 b 568 607 478 635 526 632 b 643 521 600 589 626 558 b 722 600 658 546 682 575 b 854 635 765 626 806 635 b 1028 576 929 635 990 613 b 1092 392 1088 519 1092 436 l 1092 0 l 892 0 l 892 314 b 865 435 892 346 892 401 b 793 468 849 456 822 468 b 715 431 760 468 732 453 b 685 308 689 397 685 349 l 685 0 l 485 0 l 485 322 b 453 443 485 364 483 413 b 386 468 432 464 407 468 b 317 443 360 468 336 461 b 278 317 279 407 278 338 l 278 0 l 78 0 "},"n":{"ha":788,"x_min":0,"x_max":0,"o":"m 78 619 l 278 619 l 278 546 b 469 636 339 624 411 636 b 647 574 524 636 594 626 b 710 392 706 515 710 442 l 710 0 l 510 0 l 510 318 b 476 442 510 358 508 410 b 400 469 461 457 436 469 b 317 436 358 469 332 453 b 278 318 283 403 278 358 l 278 0 l 78 0 "},"o":{"ha":822,"x_min":0,"x_max":0,"o":"m 775 310 b 682 79 775 231 744 142 b 411 -21 626 24 532 -21 b 140 79 290 -21 196 24 b 47 310 78 142 47 231 b 140 540 47 389 78 478 b 411 640 196 596 290 640 b 682 540 532 640 626 596 b 775 310 744 478 775 389 m 411 471 b 299 426 365 471 328 456 b 253 310 269 397 253 360 b 299 193 253 253 275 217 b 413 149 324 168 360 149 b 524 193 457 149 494 164 b 569 310 553 222 569 260 b 524 426 569 360 553 397 b 411 471 494 456 457 471 "},"p":{"ha":831,"x_min":0,"x_max":0,"o":"m 278 -318 l 78 -318 l 78 619 l 278 619 l 278 546 b 471 640 343 631 424 640 b 690 553 582 640 651 592 b 783 311 746 497 783 413 b 685 63 783 204 746 124 b 475 -21 624 1 557 -21 b 278 71 351 -21 299 42 m 422 468 b 311 422 367 468 331 442 b 264 308 279 390 264 346 b 308 199 264 269 279 229 b 422 151 338 169 379 151 b 529 194 460 151 500 167 b 578 313 561 225 578 272 b 531 425 578 358 558 399 b 422 468 501 453 463 468 "},"q":{"ha":831,"x_min":0,"x_max":0,"o":"m 553 71 b 356 -21 488 -11 403 -21 b 146 63 274 -21 208 0 b 47 311 85 124 47 204 b 140 553 47 414 86 496 b 357 640 196 610 268 640 b 553 546 418 640 490 625 l 553 619 l 753 619 l 753 -318 l 553 -318 m 408 468 b 300 425 368 468 329 453 b 253 313 272 399 253 358 b 301 194 253 272 269 225 b 408 151 331 167 371 151 b 522 199 451 151 493 169 b 567 308 551 229 567 269 b 519 422 567 346 551 390 b 408 468 500 442 464 468 "},"r":{"ha":533,"x_min":0,"x_max":0,"o":"m 78 619 l 278 619 l 278 522 b 356 608 296 557 324 589 b 463 635 389 629 424 635 b 528 625 488 635 506 632 l 517 438 b 426 460 490 451 461 460 b 326 418 383 460 351 444 b 278 251 282 371 278 304 l 278 0 l 78 0 "},"s":{"ha":603,"x_min":0,"x_max":0,"o":"m 457 461 b 347 496 426 479 386 496 b 290 478 326 496 303 490 b 278 450 283 471 278 460 b 297 422 278 436 288 428 b 357 401 311 414 332 410 l 410 385 b 513 331 444 374 481 360 b 561 213 549 297 561 260 b 497 50 561 131 525 78 b 296 -21 436 -11 361 -21 b 42 68 213 -21 122 -3 l 126 203 b 194 157 146 186 174 167 b 278 138 222 143 251 138 b 340 151 290 138 322 138 b 361 192 353 161 361 176 b 339 228 361 203 357 217 b 278 250 325 236 307 242 l 228 265 b 128 322 192 276 154 296 b 83 435 99 353 83 388 b 143 578 83 494 107 544 b 331 640 199 629 274 640 b 536 588 422 640 486 617 "},"t":{"ha":415,"x_min":0,"x_max":0,"o":"m 283 458 l 283 0 l 83 0 l 83 458 l 14 458 l 14 619 l 83 619 l 83 819 l 283 819 l 283 619 l 407 619 l 407 458 "},"u":{"ha":792,"x_min":0,"x_max":0,"o":"m 278 619 l 278 278 b 313 178 278 250 281 207 b 396 149 326 165 351 149 b 481 178 433 149 463 161 b 514 278 510 206 514 247 l 514 619 l 714 619 l 714 258 b 644 60 714 188 707 121 b 396 -21 574 -10 469 -21 b 146 60 319 -21 217 -10 b 78 246 89 115 78 178 l 78 619 "},"v":{"ha":758,"x_min":0,"x_max":0,"o":"m 222 619 l 379 288 l 536 619 l 756 619 l 442 0 l 317 0 l 3 619 "},"w":{"ha":1183,"x_min":0,"x_max":0,"o":"m 436 0 l 311 0 l 3 619 l 222 619 l 382 290 l 539 628 l 644 628 l 801 290 l 961 619 l 1181 619 l 872 0 l 747 0 l 592 353 "},"x":{"ha":861,"x_min":0,"x_max":0,"o":"m 306 338 l 60 619 l 315 619 l 431 476 l 546 619 l 801 619 l 556 338 l 858 0 l 600 0 l 431 200 l 261 0 l 3 0 "},"y":{"ha":813,"x_min":0,"x_max":0,"o":"m 299 79 l 3 619 l 233 619 l 408 283 l 579 619 l 804 619 l 306 -318 l 81 -318 "},"z":{"ha":693,"x_min":0,"x_max":0,"o":"m 356 167 l 649 167 l 649 0 l 17 0 l 339 453 l 65 453 l 65 619 l 676 619 "},"{":{"ha":700,"x_min":0,"x_max":0,"o":"m 336 378 b 400 319 371 364 390 339 b 419 203 413 294 419 260 l 419 -19 b 436 -82 419 -39 419 -65 b 535 -101 456 -101 493 -101 l 561 -101 l 561 -253 b 460 -256 538 -254 497 -256 b 299 -211 403 -256 344 -253 b 249 -56 249 -165 249 -111 l 249 207 b 225 285 249 233 247 263 b 172 308 213 297 194 307 l 172 456 b 225 479 194 457 213 467 b 249 557 247 501 249 531 l 249 813 b 299 968 249 868 249 922 b 460 1013 344 1010 403 1013 b 561 1010 497 1013 538 1011 l 561 858 l 535 858 b 436 839 493 858 456 858 b 419 776 419 822 419 796 l 419 553 b 400 436 419 496 413 461 b 336 378 390 417 371 392 "},"|":{"ha":700,"x_min":0,"x_max":0,"o":"m 263 1042 l 438 1042 l 438 -347 l 263 -347 "},"}":{"ha":700,"x_min":0,"x_max":0,"o":"m 281 203 b 300 319 281 260 288 294 b 364 378 310 339 329 364 b 300 436 329 392 310 417 b 281 553 288 461 281 496 l 281 776 b 264 839 281 796 281 822 b 165 858 244 858 207 858 l 139 858 l 139 1010 b 240 1013 163 1011 203 1013 b 401 968 297 1013 356 1010 b 451 813 451 922 451 868 l 451 557 b 475 479 451 531 453 501 b 528 456 488 467 506 457 l 528 308 b 475 285 506 307 488 297 b 451 207 453 263 451 233 l 451 -56 b 401 -211 451 -111 451 -165 b 240 -256 356 -253 297 -256 b 139 -253 203 -256 163 -254 l 139 -101 l 165 -101 b 264 -82 207 -101 244 -101 b 281 -19 281 -65 281 -39 "},"~":{"ha":694,"x_min":0,"x_max":0,"o":"m 303 332 b 214 354 278 342 257 354 b 146 329 185 354 165 349 b 107 269 131 314 115 290 l 8 329 l 15 344 b 93 474 51 424 76 457 b 218 524 126 507 167 524 b 339 496 269 524 307 508 l 392 476 b 486 454 424 464 453 454 b 553 479 515 454 533 461 b 586 526 569 496 581 513 l 686 468 l 681 457 b 607 344 664 424 643 382 b 474 285 567 301 529 285 b 353 313 428 285 393 297 "}," ":{"ha":324,"x_min":0,"x_max":0,"o":""},"¡":{"ha":386,"x_min":0,"x_max":0,"o":"m 296 -319 l 90 -319 l 90 308 l 296 308 m 67 503 b 193 629 67 574 122 629 b 319 503 264 629 319 574 b 193 376 319 432 264 376 b 67 503 122 376 67 432 "},"¢":{"ha":833,"x_min":0,"x_max":0,"o":"m 554 917 l 554 786 b 642 760 585 783 614 775 l 642 575 b 522 628 608 611 565 628 b 408 583 483 628 439 613 b 361 464 381 557 361 515 b 408 344 361 411 382 369 b 519 306 436 319 481 306 b 642 357 550 306 603 314 l 642 171 b 554 147 614 158 585 150 l 554 18 l 429 18 l 429 142 b 249 229 378 149 311 168 b 156 457 181 296 156 372 b 251 701 156 571 201 651 b 429 792 283 733 342 776 l 429 917 "},"£":{"ha":833,"x_min":0,"x_max":0,"o":"m 65 344 l 65 472 l 160 472 b 118 631 135 515 118 564 b 206 850 118 724 149 794 b 467 946 282 925 376 946 b 710 863 576 946 660 911 b 796 633 767 808 796 721 b 794 600 796 622 796 611 l 582 600 b 547 732 582 649 576 701 b 457 768 531 749 501 768 b 369 736 425 768 394 760 b 325 625 346 714 325 678 b 371 472 325 565 358 497 l 578 472 l 578 344 l 404 344 b 415 279 410 325 415 300 b 401 197 415 256 408 221 l 482 171 b 597 146 538 153 571 146 b 651 165 614 146 636 149 b 672 213 663 176 669 197 l 808 196 b 740 36 801 142 776 75 b 597 -21 710 4 664 -21 b 438 11 575 -21 525 -18 l 383 29 b 278 49 354 39 317 49 b 210 31 260 49 231 47 b 183 -7 199 22 189 8 l 39 6 b 114 151 51 57 79 117 b 229 211 133 171 171 201 b 240 275 235 229 240 254 b 221 344 240 293 236 318 "},"¤":{"ha":926,"x_min":0,"x_max":0,"o":"m 29 188 l 172 331 b 111 522 132 382 111 442 b 174 714 111 565 114 633 l 29 858 l 124 953 l 268 810 b 463 871 342 865 414 871 b 656 810 511 871 585 865 l 799 953 l 893 858 l 751 715 b 814 522 808 644 814 571 b 753 331 814 469 808 397 l 896 188 l 801 93 l 658 236 b 463 174 614 200 556 174 b 267 235 367 174 308 201 l 124 93 m 463 329 b 597 382 519 329 561 346 b 653 522 638 422 653 469 b 599 661 653 592 625 635 b 463 715 567 693 519 715 b 326 661 400 715 354 690 b 272 522 297 632 272 586 b 325 386 272 465 292 421 b 463 329 364 344 407 329 "},"¥":{"ha":833,"x_min":0,"x_max":0,"o":"m 86 482 l 86 617 l 200 617 l 14 926 l 256 926 l 418 632 l 576 926 l 821 926 l 629 617 l 749 617 l 749 482 l 546 482 l 514 433 l 514 394 l 749 394 l 749 260 l 514 260 l 514 0 l 311 0 l 311 260 l 86 260 l 86 394 l 311 394 l 311 433 l 281 482 "},"¦":{"ha":700,"x_min":0,"x_max":0,"o":"m 263 1042 l 438 1042 l 438 507 l 263 507 m 263 189 l 438 189 l 438 -347 l 263 -347 "},"§":{"ha":797,"x_min":0,"x_max":0,"o":"m 488 757 b 461 839 488 786 478 822 b 396 864 446 854 422 864 b 336 843 365 864 347 853 b 313 789 322 831 313 811 b 356 715 313 753 333 731 b 468 660 388 693 425 679 l 511 640 b 635 560 564 617 606 592 b 696 401 665 528 696 476 b 650 250 696 342 678 289 b 544 167 629 221 596 188 b 626 97 575 151 606 128 b 660 -12 651 61 660 25 b 590 -187 660 -82 635 -144 b 403 -256 529 -247 458 -256 b 199 -178 335 -256 258 -242 b 124 13 156 -132 126 -61 l 304 13 b 329 -71 304 -18 314 -51 b 399 -103 342 -87 364 -103 b 460 -81 431 -103 450 -90 b 488 -10 478 -64 488 -39 b 458 56 488 15 479 36 b 342 110 433 78 399 89 b 167 204 275 133 210 160 b 101 383 114 258 101 326 b 140 521 101 428 110 478 b 249 603 161 551 197 583 b 172 667 219 618 192 640 b 136 782 146 701 136 735 b 197 943 136 857 164 908 b 390 1013 254 1001 328 1013 b 593 943 499 1013 560 978 b 668 757 635 900 663 822 m 400 494 b 321 464 369 494 343 486 b 290 385 296 439 290 411 b 321 304 290 357 296 329 b 400 274 343 282 369 274 b 476 304 428 274 454 282 b 507 385 501 329 507 357 b 476 464 507 411 501 439 b 400 494 454 486 428 494 "},"¨":{"ha":694,"x_min":0,"x_max":0,"o":"m 389 832 b 499 942 389 892 439 942 b 608 832 558 942 608 892 b 499 722 608 772 558 722 b 389 832 439 722 389 772 m 86 832 b 196 942 86 892 136 942 b 306 832 256 942 306 892 b 196 722 306 772 256 722 b 86 832 136 722 86 772 "},"©":{"ha":1058,"x_min":0,"x_max":0,"o":"m 704 550 b 563 619 672 586 622 619 b 451 578 525 619 481 606 b 407 461 421 549 407 501 b 446 353 407 417 422 378 b 564 306 474 324 517 306 b 704 374 633 306 681 349 l 704 207 b 550 172 647 182 599 172 b 332 254 443 172 374 211 b 251 460 286 301 251 375 b 333 667 251 546 285 618 b 556 753 379 714 454 753 b 704 719 600 753 654 743 m 529 861 b 264 753 440 861 333 819 b 144 464 196 686 144 576 b 264 174 144 350 196 239 b 529 65 333 107 440 65 b 794 174 618 65 725 107 b 914 464 863 239 914 350 b 794 753 914 576 863 686 b 529 861 725 819 618 861 m 1011 463 b 868 117 1011 331 958 207 b 529 -21 786 36 669 -21 b 190 117 389 -21 272 36 b 47 463 100 207 47 331 b 190 810 47 597 100 719 b 529 947 272 890 389 947 b 868 810 669 947 786 890 b 1011 463 958 719 1011 597 "},"ª":{"ha":489,"x_min":0,"x_max":0,"o":"m 328 915 l 444 915 l 444 549 l 328 549 l 328 593 b 214 536 294 544 247 536 b 88 585 151 536 111 561 b 31 732 39 631 31 688 b 88 878 31 786 44 836 b 213 926 114 903 154 926 b 328 874 242 926 292 919 m 44 496 l 444 496 l 444 404 l 44 404 m 242 824 b 174 794 218 824 192 814 b 150 729 157 776 150 756 b 174 667 150 711 154 686 b 242 639 189 651 213 639 b 310 667 275 639 296 653 b 333 729 326 685 333 706 b 310 796 333 753 329 776 b 242 824 292 814 265 824 "},"«":{"ha":742,"x_min":0,"x_max":0,"o":"m 383 90 l 271 11 l 56 311 l 271 610 l 381 533 l 219 311 m 672 90 l 560 11 l 344 311 l 560 610 l 669 533 l 508 311 "},"¬":{"ha":694,"x_min":0,"x_max":0,"o":"m 475 0 l 475 207 l 44 207 l 44 371 l 650 371 l 650 0 "},"­":{"ha":494,"x_min":0,"x_max":0,"o":"m 69 439 l 425 439 l 425 264 l 69 264 "},"®":{"ha":1057,"x_min":0,"x_max":0,"o":"m 513 735 b 679 681 558 735 631 731 b 722 567 704 654 722 613 b 682 461 722 522 706 486 b 607 419 656 433 626 424 l 756 208 l 571 208 l 465 386 l 465 208 l 315 208 l 315 735 m 465 501 l 486 501 b 549 514 508 501 529 501 b 575 565 568 526 575 543 b 556 610 575 578 572 597 b 485 624 536 624 503 624 l 465 624 m 528 861 b 263 753 439 861 332 819 b 143 464 194 686 143 576 b 263 174 143 350 194 239 b 528 65 332 107 439 65 b 793 174 617 65 724 107 b 913 464 861 239 913 350 b 793 753 913 576 861 686 b 528 861 724 819 617 861 m 1010 463 b 867 117 1010 331 957 207 b 528 -21 785 36 668 -21 b 189 117 388 -21 271 36 b 46 463 99 207 46 331 b 189 810 46 597 99 719 b 528 947 271 890 388 947 b 867 810 668 947 785 890 b 1010 463 957 719 1010 597 "},"¯":{"ha":694,"x_min":0,"x_max":0,"o":"m 83 879 l 611 879 l 611 754 l 83 754 "},"°":{"ha":697,"x_min":0,"x_max":0,"o":"m 243 715 b 349 613 243 660 290 613 b 454 715 407 613 454 660 b 349 818 454 771 407 818 b 243 715 290 818 243 771 m 135 715 b 349 926 135 833 228 926 b 563 715 469 926 563 833 b 349 504 563 597 469 504 b 135 715 228 504 135 597 "},"±":{"ha":694,"x_min":0,"x_max":0,"o":"m 46 656 l 260 656 l 260 871 l 435 871 l 435 656 l 649 656 l 649 494 l 435 494 l 435 279 l 260 279 l 260 494 l 46 494 m 46 232 l 649 232 l 649 71 l 46 71 "},"²":{"ha":549,"x_min":0,"x_max":0,"o":"m 186 547 b 297 682 256 626 283 657 b 319 758 313 707 319 732 b 301 813 319 790 307 806 b 250 832 290 825 272 832 b 200 807 228 832 211 822 b 182 749 190 793 183 769 l 51 749 b 111 890 56 799 76 856 b 260 943 144 924 199 943 b 408 890 325 943 376 921 b 458 763 453 847 458 794 b 425 643 458 715 447 679 b 349 554 403 606 378 583 l 282 490 l 464 490 l 464 382 l 40 382 "},"³":{"ha":549,"x_min":0,"x_max":0,"o":"m 172 551 b 197 496 174 531 183 508 b 254 476 207 486 225 476 b 311 494 275 476 294 481 b 335 549 328 508 335 526 b 311 599 335 574 322 590 b 239 615 289 617 260 615 l 224 615 l 224 713 l 238 713 b 294 726 257 713 278 714 b 317 776 307 736 317 754 b 296 824 317 801 306 815 b 251 838 285 832 268 838 b 203 818 224 838 208 824 b 186 771 192 806 186 788 l 56 771 b 108 890 61 815 81 861 b 253 943 149 933 203 943 b 403 897 300 943 360 936 b 447 789 440 863 447 821 b 429 717 447 765 444 740 b 385 675 421 704 407 688 b 435 643 404 667 422 656 b 474 544 454 624 474 592 b 424 419 474 510 465 461 b 269 365 375 371 317 365 b 103 421 211 365 150 375 b 42 551 74 449 47 494 "},"´":{"ha":694,"x_min":0,"x_max":0,"o":"m 571 903 l 360 715 l 269 782 l 440 993 "},"µ":{"ha":786,"x_min":0,"x_max":0,"o":"m 115 -318 l 115 619 l 315 619 l 315 321 b 364 153 315 263 321 189 b 431 131 383 136 407 131 b 497 153 454 131 478 136 b 546 321 540 189 546 264 l 546 619 l 746 619 l 746 0 l 550 0 l 550 81 b 507 11 542 58 525 28 b 431 -14 483 -10 456 -14 b 354 11 406 -14 378 -10 b 311 81 335 28 318 58 l 311 -318 "},"¶":{"ha":915,"x_min":0,"x_max":0,"o":"m 300 -131 l 300 446 l 289 446 b 97 517 231 446 156 456 b 36 682 46 569 36 635 b 104 854 36 750 54 806 b 356 926 167 915 240 926 l 815 926 l 815 790 l 715 790 l 715 -131 l 565 -131 l 565 790 l 450 790 l 450 -131 "},"·":{"ha":356,"x_min":0,"x_max":0,"o":"m 28 464 b 178 614 28 549 93 614 b 328 464 263 614 328 549 b 178 314 328 379 263 314 b 28 464 93 314 28 379 "},"¸":{"ha":694,"x_min":0,"x_max":0,"o":"m 497 -125 l 333 -328 l 231 -272 l 367 -64 "},"¹":{"ha":549,"x_min":0,"x_max":0,"o":"m 226 818 l 133 818 l 133 926 l 354 926 l 354 382 l 226 382 "},"º":{"ha":481,"x_min":0,"x_max":0,"o":"m 40 496 l 440 496 l 440 404 l 40 404 m 240 824 b 172 796 210 824 186 811 b 149 731 158 781 149 758 b 172 667 149 704 158 681 b 240 639 188 651 213 639 b 308 667 267 639 292 649 b 332 731 322 682 332 703 b 308 796 332 758 322 781 b 240 824 294 811 271 824 m 451 732 b 397 596 451 676 429 629 b 240 536 361 560 307 536 b 83 596 174 536 119 560 b 29 732 51 629 29 676 b 83 867 29 789 51 835 b 240 926 119 903 174 926 b 397 867 307 926 361 903 b 451 732 429 835 451 789 "},"»":{"ha":742,"x_min":0,"x_max":0,"o":"m 72 533 l 182 610 l 397 311 l 182 11 l 69 90 l 233 311 m 361 533 l 471 610 l 686 311 l 471 11 l 358 90 l 522 311 "},"¼":{"ha":1194,"x_min":0,"x_max":0,"o":"m 1019 208 l 1083 208 l 1083 106 l 1019 106 l 1019 0 l 897 0 l 897 106 l 631 106 l 631 175 l 872 556 l 1019 556 m 897 208 l 897 414 l 767 208 m 213 818 l 119 818 l 119 926 l 340 926 l 340 371 l 213 371 m 782 942 l 876 910 l 335 -19 l 240 14 "},"½":{"ha":1194,"x_min":0,"x_max":0,"o":"m 197 818 l 106 818 l 106 926 l 325 926 l 325 382 l 197 382 m 767 942 l 861 910 l 319 -19 l 225 14 m 825 165 b 936 300 879 228 914 261 b 958 376 951 325 958 349 b 940 431 958 408 946 424 b 893 450 936 435 921 450 b 840 425 868 450 851 440 b 821 367 828 408 822 383 l 690 367 b 750 508 694 417 715 474 b 894 561 785 542 838 561 b 1046 510 958 561 1013 540 b 1097 381 1092 467 1097 411 b 1061 258 1097 329 1085 296 b 988 172 1035 215 1014 197 l 921 108 l 1103 108 l 1103 0 l 681 0 "},"¾":{"ha":1193,"x_min":0,"x_max":0,"o":"m 169 554 b 194 499 171 533 181 511 b 251 479 204 489 222 479 b 308 497 279 479 297 486 b 332 550 322 510 332 531 b 308 603 332 571 325 590 b 236 619 286 619 257 619 l 221 619 l 221 717 l 235 717 b 292 731 254 717 275 718 b 314 781 304 740 314 758 b 293 828 314 806 303 819 b 249 842 282 836 265 842 b 200 822 221 842 206 828 b 183 775 189 810 183 792 l 58 775 b 111 894 64 819 83 865 b 256 947 151 938 206 947 b 400 901 300 947 357 940 b 444 793 438 867 444 825 b 426 721 444 769 442 744 b 382 679 418 708 404 692 b 432 647 401 671 419 660 b 471 546 451 628 471 596 b 421 422 471 485 444 446 b 267 368 372 374 314 368 b 100 424 208 368 147 378 b 39 554 71 451 44 497 m 850 942 l 944 910 l 403 -19 l 308 14 m 965 208 l 965 414 l 835 208 m 1088 208 l 1151 208 l 1151 106 l 1088 106 l 1088 0 l 965 0 l 965 106 l 699 106 l 699 175 l 940 556 l 1088 556 "},"¿":{"ha":729,"x_min":0,"x_max":0,"o":"m 489 314 l 489 58 b 429 65 469 63 450 65 b 311 29 385 65 340 54 b 269 -67 286 7 269 -28 b 296 -137 269 -94 279 -119 b 363 -164 317 -160 343 -164 b 433 -137 399 -164 421 -150 b 457 -60 449 -121 457 -87 l 671 -60 b 594 -251 669 -144 633 -211 b 365 -336 560 -287 492 -336 b 136 -253 257 -336 183 -299 b 58 -61 81 -199 58 -128 b 128 115 58 15 90 75 b 286 197 156 146 207 186 l 286 314 m 508 503 b 382 376 508 432 453 376 b 256 503 311 376 256 432 b 382 629 256 574 311 629 b 508 503 453 629 508 574 "},"À":{"ha":940,"x_min":0,"x_max":0,"o":"m 646 175 l 296 175 l 225 0 l 3 0 l 376 926 l 572 926 l 938 0 l 715 0 m 588 339 l 474 650 l 358 339 m 264 1185 l 397 1285 l 582 1079 l 492 1006 "},"Á":{"ha":940,"x_min":0,"x_max":0,"o":"m 646 175 l 296 175 l 225 0 l 3 0 l 376 926 l 572 926 l 938 0 l 715 0 m 588 339 l 474 650 l 358 339 m 679 1185 l 451 1006 l 361 1079 l 547 1285 "},"Â":{"ha":940,"x_min":0,"x_max":0,"o":"m 646 175 l 296 175 l 225 0 l 3 0 l 376 926 l 572 926 l 938 0 l 715 0 m 588 339 l 474 650 l 358 339 m 208 1107 l 469 1301 l 732 1107 l 640 1008 l 469 1138 l 297 1008 "},"Ã":{"ha":940,"x_min":0,"x_max":0,"o":"m 646 175 l 296 175 l 225 0 l 3 0 l 376 926 l 572 926 l 938 0 l 715 0 m 588 339 l 474 650 l 358 339 m 743 1135 b 685 1054 728 1104 707 1076 b 586 1011 663 1032 633 1011 b 500 1033 557 1011 531 1021 l 443 1056 b 392 1071 421 1064 406 1071 b 328 1017 372 1071 346 1063 l 229 1086 b 281 1168 239 1107 261 1147 b 382 1210 310 1199 344 1210 b 465 1190 417 1210 442 1200 l 521 1168 b 578 1151 536 1163 556 1151 b 644 1204 608 1151 631 1171 "},"Ä":{"ha":940,"x_min":0,"x_max":0,"o":"m 646 175 l 296 175 l 225 0 l 3 0 l 376 926 l 572 926 l 938 0 l 715 0 m 588 339 l 474 650 l 358 339 m 208 1126 b 318 1236 208 1186 258 1236 b 428 1126 378 1236 428 1186 b 318 1017 428 1067 378 1017 b 208 1126 258 1017 208 1067 m 511 1126 b 621 1236 511 1186 561 1236 b 731 1126 681 1236 731 1186 b 621 1017 731 1067 681 1017 b 511 1126 561 1017 511 1067 "},"Å":{"ha":940,"x_min":0,"x_max":0,"o":"m 646 175 l 296 175 l 225 0 l 3 0 l 376 926 l 572 926 l 938 0 l 715 0 m 588 339 l 474 650 l 358 339 m 631 1149 b 593 1057 631 1114 617 1081 b 469 1013 563 1028 517 1013 b 346 1057 422 1013 376 1028 b 308 1149 322 1081 308 1114 b 346 1240 308 1183 322 1217 b 469 1285 376 1269 422 1285 b 593 1240 517 1285 563 1269 b 631 1149 617 1217 631 1183 m 469 1203 b 422 1186 447 1203 432 1196 b 406 1149 411 1175 406 1161 b 422 1111 406 1136 411 1122 b 469 1094 432 1101 447 1094 b 517 1111 492 1094 507 1101 b 533 1149 528 1122 533 1136 b 517 1186 533 1161 528 1175 b 469 1203 507 1196 492 1203 "},"Æ":{"ha":1278,"x_min":0,"x_max":0,"o":"m 654 179 l 300 179 l 231 0 l 8 0 l 388 926 l 914 926 l 981 746 l 658 746 l 729 567 l 1049 567 l 1118 386 l 797 386 l 879 181 l 1201 181 l 1269 0 l 725 0 m 596 343 l 482 647 l 363 343 "},"Ç":{"ha":840,"x_min":0,"x_max":0,"o":"m 771 29 b 567 -21 689 -12 622 -21 b 203 114 396 -21 281 38 b 58 465 119 194 58 317 b 203 814 58 611 119 733 b 549 947 285 893 404 947 b 771 896 610 947 681 935 l 771 649 b 554 747 724 699 653 747 b 365 675 476 747 414 722 b 278 461 314 625 278 550 b 358 257 278 365 317 297 b 558 179 378 238 444 179 b 771 275 614 179 689 194 m 674 -125 l 518 -328 l 407 -272 l 535 -64 "},"È":{"ha":697,"x_min":0,"x_max":0,"o":"m 625 746 l 315 746 l 315 567 l 610 567 l 610 386 l 315 386 l 315 181 l 625 181 l 625 0 l 101 0 l 101 926 l 625 926 m 168 1185 l 301 1285 l 486 1079 l 396 1006 "},"É":{"ha":697,"x_min":0,"x_max":0,"o":"m 625 746 l 315 746 l 315 567 l 610 567 l 610 386 l 315 386 l 315 181 l 625 181 l 625 0 l 101 0 l 101 926 l 625 926 m 583 1185 l 356 1006 l 265 1079 l 451 1285 "},"Ê":{"ha":697,"x_min":0,"x_max":0,"o":"m 625 746 l 315 746 l 315 567 l 610 567 l 610 386 l 315 386 l 315 181 l 625 181 l 625 0 l 101 0 l 101 926 l 625 926 m 92 1107 l 353 1301 l 615 1107 l 524 1008 l 353 1138 l 181 1008 "},"Ë":{"ha":697,"x_min":0,"x_max":0,"o":"m 625 746 l 315 746 l 315 567 l 610 567 l 610 386 l 315 386 l 315 181 l 625 181 l 625 0 l 101 0 l 101 926 l 625 926 m 93 1126 b 203 1236 93 1186 143 1236 b 313 1126 263 1236 313 1186 b 203 1017 313 1067 263 1017 b 93 1126 143 1017 93 1067 m 396 1126 b 506 1236 396 1186 446 1236 b 615 1126 565 1236 615 1186 b 506 1017 615 1067 565 1017 b 396 1126 446 1017 396 1067 "},"Ì":{"ha":425,"x_min":0,"x_max":0,"o":"m 319 926 l 319 0 l 106 0 l 106 926 m 7 1185 l 140 1285 l 325 1079 l 235 1006 "},"Í":{"ha":425,"x_min":0,"x_max":0,"o":"m 319 926 l 319 0 l 106 0 l 106 926 m 422 1185 l 194 1006 l 104 1079 l 290 1285 "},"Î":{"ha":425,"x_min":0,"x_max":0,"o":"m 319 926 l 319 0 l 106 0 l 106 926 m -49 1107 l 213 1301 l 475 1107 l 383 1008 l 213 1138 l 40 1008 "},"Ï":{"ha":425,"x_min":0,"x_max":0,"o":"m 319 926 l 319 0 l 106 0 l 106 926 m -49 1126 b 61 1236 -49 1186 1 1236 b 171 1126 121 1236 171 1186 b 61 1017 171 1067 121 1017 b -49 1126 1 1017 -49 1067 m 254 1126 b 364 1236 254 1186 304 1236 b 474 1126 424 1236 474 1186 b 364 1017 474 1067 424 1017 b 254 1126 304 1017 254 1067 "},"Ð":{"ha":989,"x_min":0,"x_max":0,"o":"m 139 926 l 432 926 b 797 799 554 926 683 908 b 931 467 879 719 931 611 b 804 139 931 321 881 215 b 439 0 676 10 517 0 l 139 0 l 139 421 l 14 421 l 14 574 l 139 574 m 353 574 l 519 574 l 519 421 l 353 421 l 353 181 l 410 181 b 621 243 454 181 551 185 b 711 467 671 285 711 364 b 635 667 711 567 671 631 b 410 746 565 736 475 746 l 353 746 "},"Ñ":{"ha":1106,"x_min":0,"x_max":0,"o":"m 101 0 l 101 926 l 288 926 l 790 329 l 790 926 l 1004 926 l 1004 0 l 818 0 l 315 600 l 315 0 m 819 1135 b 761 1054 804 1104 783 1076 b 663 1011 739 1032 710 1011 b 576 1033 633 1011 607 1021 l 519 1056 b 468 1071 497 1064 482 1071 b 404 1017 449 1071 422 1063 l 306 1086 b 357 1168 315 1107 338 1147 b 458 1210 386 1199 421 1210 b 542 1190 493 1210 518 1200 l 597 1168 b 654 1151 613 1163 632 1151 b 721 1204 685 1151 707 1171 "},"Ò":{"ha":1125,"x_min":0,"x_max":0,"o":"m 564 947 b 922 813 708 947 829 903 b 1067 463 1010 728 1067 606 b 922 115 1067 339 1022 213 b 564 -21 836 32 719 -21 b 203 115 390 -21 272 49 b 58 460 114 199 58 324 b 201 811 58 593 118 728 b 564 947 264 874 379 947 m 563 750 b 360 671 482 750 410 721 b 278 461 319 632 278 564 b 363 253 278 376 306 308 b 561 176 422 196 489 176 b 767 256 656 176 722 211 b 847 463 803 290 847 356 b 767 671 847 558 808 629 b 563 750 721 715 647 750 m 356 1185 l 489 1285 l 674 1079 l 583 1006 "},"Ó":{"ha":1125,"x_min":0,"x_max":0,"o":"m 564 947 b 922 813 708 947 829 903 b 1067 463 1010 728 1067 606 b 922 115 1067 339 1022 213 b 564 -21 836 32 719 -21 b 203 115 390 -21 272 49 b 58 460 114 199 58 324 b 201 811 58 593 118 728 b 564 947 264 874 379 947 m 563 750 b 360 671 482 750 410 721 b 278 461 319 632 278 564 b 363 253 278 376 306 308 b 561 176 422 196 489 176 b 767 256 656 176 722 211 b 847 463 803 290 847 356 b 767 671 847 558 808 629 b 563 750 721 715 647 750 m 771 1185 l 543 1006 l 453 1079 l 639 1285 "},"Ô":{"ha":1125,"x_min":0,"x_max":0,"o":"m 564 947 b 922 813 708 947 829 903 b 1067 463 1010 728 1067 606 b 922 115 1067 339 1022 213 b 564 -21 836 32 719 -21 b 203 115 390 -21 272 49 b 58 460 114 199 58 324 b 201 811 58 593 118 728 b 564 947 264 874 379 947 m 563 750 b 360 671 482 750 410 721 b 278 461 319 632 278 564 b 363 253 278 376 306 308 b 561 176 422 196 489 176 b 767 256 656 176 722 211 b 847 463 803 290 847 356 b 767 671 847 558 808 629 b 563 750 721 715 647 750 m 301 1107 l 563 1301 l 825 1107 l 733 1008 l 563 1138 l 390 1008 "},"Õ":{"ha":1125,"x_min":0,"x_max":0,"o":"m 564 947 b 922 813 708 947 829 903 b 1067 463 1010 728 1067 606 b 922 115 1067 339 1022 213 b 564 -21 836 32 719 -21 b 203 115 390 -21 272 49 b 58 460 114 199 58 324 b 201 811 58 593 118 728 b 564 947 264 874 379 947 m 563 750 b 360 671 482 750 410 721 b 278 461 319 632 278 564 b 363 253 278 376 306 308 b 561 176 422 196 489 176 b 767 256 656 176 722 211 b 847 463 803 290 847 356 b 767 671 847 558 808 629 b 563 750 721 715 647 750 m 819 1135 b 761 1054 804 1104 783 1076 b 663 1011 739 1032 710 1011 b 576 1033 633 1011 607 1021 l 519 1056 b 468 1071 497 1064 482 1071 b 404 1017 449 1071 422 1063 l 306 1086 b 357 1168 315 1107 338 1147 b 458 1210 386 1199 421 1210 b 542 1190 493 1210 518 1200 l 597 1168 b 654 1151 613 1163 632 1151 b 721 1204 685 1151 707 1171 "},"Ö":{"ha":1125,"x_min":0,"x_max":0,"o":"m 564 947 b 922 813 708 947 829 903 b 1067 463 1010 728 1067 606 b 922 115 1067 339 1022 213 b 564 -21 836 32 719 -21 b 203 115 390 -21 272 49 b 58 460 114 199 58 324 b 201 811 58 593 118 728 b 564 947 264 874 379 947 m 563 750 b 360 671 482 750 410 721 b 278 461 319 632 278 564 b 363 253 278 376 306 308 b 561 176 422 196 489 176 b 767 256 656 176 722 211 b 847 463 803 290 847 356 b 767 671 847 558 808 629 b 563 750 721 715 647 750 m 301 1126 b 411 1236 301 1186 351 1236 b 521 1126 471 1236 521 1186 b 411 1017 521 1067 471 1017 b 301 1126 351 1017 301 1067 m 604 1126 b 714 1236 604 1186 654 1236 b 824 1126 774 1236 824 1186 b 714 1017 824 1067 774 1017 b 604 1126 654 1017 604 1067 "},"×":{"ha":694,"x_min":0,"x_max":0,"o":"m 229 467 l 65 632 l 186 753 l 350 588 l 514 753 l 631 636 l 467 472 l 631 307 l 510 186 l 346 351 l 181 188 l 65 303 "},"Ø":{"ha":1142,"x_min":0,"x_max":0,"o":"m 164 169 b 67 454 108 240 67 332 b 210 811 67 596 126 728 b 572 947 324 925 461 947 b 863 867 678 947 768 928 l 985 989 l 1100 878 l 979 757 b 1075 467 1036 681 1075 589 b 931 115 1075 315 1014 196 b 572 -21 813 1 676 -21 b 281 61 464 -21 372 3 l 157 -62 l 42 49 m 711 717 b 571 750 679 732 632 750 b 368 671 488 750 418 721 b 286 458 328 631 286 565 b 318 324 286 408 294 368 m 429 210 b 569 176 468 190 513 176 b 775 256 676 176 742 222 b 856 471 839 318 856 397 b 824 603 856 518 849 557 "},"Ù":{"ha":986,"x_min":0,"x_max":0,"o":"m 885 378 b 782 85 885 289 874 179 b 493 -21 693 -7 590 -21 b 204 85 396 -21 293 -7 b 101 378 113 179 101 289 l 101 926 l 315 926 l 315 383 b 364 228 315 343 318 275 b 493 179 401 188 453 179 b 622 228 533 179 585 188 b 671 383 668 275 671 343 l 671 926 l 885 926 m 286 1185 l 419 1285 l 604 1079 l 514 1006 "},"Ú":{"ha":986,"x_min":0,"x_max":0,"o":"m 885 378 b 782 85 885 289 874 179 b 493 -21 693 -7 590 -21 b 204 85 396 -21 293 -7 b 101 378 113 179 101 289 l 101 926 l 315 926 l 315 383 b 364 228 315 343 318 275 b 493 179 401 188 453 179 b 622 228 533 179 585 188 b 671 383 668 275 671 343 l 671 926 l 885 926 m 701 1185 l 474 1006 l 383 1079 l 569 1285 "},"Û":{"ha":986,"x_min":0,"x_max":0,"o":"m 885 378 b 782 85 885 289 874 179 b 493 -21 693 -7 590 -21 b 204 85 396 -21 293 -7 b 101 378 113 179 101 289 l 101 926 l 315 926 l 315 383 b 364 228 315 343 318 275 b 493 179 401 188 453 179 b 622 228 533 179 585 188 b 671 383 668 275 671 343 l 671 926 l 885 926 m 232 1107 l 493 1301 l 756 1107 l 664 1008 l 493 1138 l 321 1008 "},"Ü":{"ha":986,"x_min":0,"x_max":0,"o":"m 885 378 b 782 85 885 289 874 179 b 493 -21 693 -7 590 -21 b 204 85 396 -21 293 -7 b 101 378 113 179 101 289 l 101 926 l 315 926 l 315 383 b 364 228 315 343 318 275 b 493 179 401 188 453 179 b 622 228 533 179 585 188 b 671 383 668 275 671 343 l 671 926 l 885 926 m 232 1126 b 342 1236 232 1186 282 1236 b 451 1126 401 1236 451 1186 b 342 1017 451 1067 401 1017 b 232 1126 282 1017 232 1067 m 535 1126 b 644 1236 535 1186 585 1236 b 754 1126 704 1236 754 1186 b 644 1017 754 1067 704 1017 b 535 1126 585 1017 535 1067 "},"Ý":{"ha":878,"x_min":0,"x_max":0,"o":"m 332 432 l 0 926 l 253 926 l 439 639 l 625 926 l 878 926 l 546 432 l 546 0 l 332 0 m 661 1185 l 433 1006 l 343 1079 l 529 1285 "},"Þ":{"ha":794,"x_min":0,"x_max":0,"o":"m 315 926 l 315 799 l 425 799 b 671 722 501 799 597 788 b 761 501 750 653 761 560 b 682 279 761 381 715 313 b 443 197 607 204 506 197 l 315 197 l 315 0 l 101 0 l 101 926 m 315 372 l 389 372 b 507 407 426 372 475 376 b 542 499 526 426 542 458 b 507 589 542 538 528 569 b 385 624 475 619 422 624 l 315 624 "},"ß":{"ha":813,"x_min":0,"x_max":0,"o":"m 83 0 l 83 708 b 160 944 83 782 92 874 b 389 1028 194 981 264 1028 b 618 950 510 1028 581 986 b 692 761 656 914 692 853 b 654 631 692 717 682 672 b 578 567 629 594 599 576 b 713 474 635 549 683 513 b 765 300 746 429 765 365 b 674 71 765 222 736 132 b 379 -19 585 -15 465 -19 l 371 -19 l 371 153 b 507 194 413 153 472 164 b 554 307 533 218 554 261 b 513 415 554 351 538 390 b 371 467 478 450 419 467 l 371 636 b 468 665 401 636 443 643 b 503 749 489 683 503 715 b 474 825 503 781 490 808 b 394 856 456 843 425 856 b 315 822 367 856 336 844 b 283 708 285 789 283 744 l 283 0 "},"à":{"ha":831,"x_min":0,"x_max":0,"o":"m 553 619 l 753 619 l 753 0 l 553 0 l 553 75 b 369 -21 499 -8 421 -21 b 138 74 281 -21 206 1 b 47 306 72 143 47 224 b 143 556 47 410 86 499 b 358 640 197 610 272 640 b 553 550 411 640 496 628 m 408 468 b 299 424 365 468 325 450 b 253 311 278 403 253 367 b 294 200 253 256 276 219 b 413 151 322 171 365 151 b 517 194 453 151 490 168 b 565 311 543 219 565 258 b 519 425 565 356 549 397 b 408 468 489 454 444 468 m 226 903 l 358 993 l 528 782 l 438 715 "},"á":{"ha":831,"x_min":0,"x_max":0,"o":"m 553 619 l 753 619 l 753 0 l 553 0 l 553 75 b 369 -21 499 -8 421 -21 b 138 74 281 -21 206 1 b 47 306 72 143 47 224 b 143 556 47 410 86 499 b 358 640 197 610 272 640 b 553 550 411 640 496 628 m 408 468 b 299 424 365 468 325 450 b 253 311 278 403 253 367 b 294 200 253 256 276 219 b 413 151 322 171 365 151 b 517 194 453 151 490 168 b 565 311 543 219 565 258 b 519 425 565 356 549 397 b 408 468 489 454 444 468 m 613 903 l 401 715 l 311 782 l 482 993 "},"â":{"ha":831,"x_min":0,"x_max":0,"o":"m 553 619 l 753 619 l 753 0 l 553 0 l 553 75 b 369 -21 499 -8 421 -21 b 138 74 281 -21 206 1 b 47 306 72 143 47 224 b 143 556 47 410 86 499 b 358 640 197 610 272 640 b 553 550 411 640 496 628 m 408 468 b 299 424 365 468 325 450 b 253 311 278 403 253 367 b 294 200 253 256 276 219 b 413 151 322 171 365 151 b 517 194 453 151 490 168 b 565 311 543 219 565 258 b 519 425 565 356 549 397 b 408 468 489 454 444 468 m 250 715 l 161 811 l 415 1008 l 671 811 l 579 715 l 415 847 "},"ã":{"ha":831,"x_min":0,"x_max":0,"o":"m 553 619 l 753 619 l 753 0 l 553 0 l 553 75 b 369 -21 499 -8 421 -21 b 138 74 281 -21 206 1 b 47 306 72 143 47 224 b 143 556 47 410 86 499 b 358 640 197 610 272 640 b 553 550 411 640 496 628 m 408 468 b 299 424 365 468 325 450 b 253 311 278 403 253 367 b 294 200 253 256 276 219 b 413 151 322 171 365 151 b 517 194 453 151 490 168 b 565 311 543 219 565 258 b 519 425 565 356 549 397 b 408 468 489 454 444 468 m 653 851 b 599 764 642 824 618 785 b 501 722 574 739 538 722 b 419 742 490 722 467 725 l 371 760 b 303 778 339 772 319 778 b 243 726 275 778 256 760 l 153 788 b 200 875 161 815 178 851 b 299 917 226 904 260 917 b 385 899 329 917 360 908 l 432 881 b 506 861 483 861 501 861 b 561 913 543 861 557 894 "},"ä":{"ha":831,"x_min":0,"x_max":0,"o":"m 553 619 l 753 619 l 753 0 l 553 0 l 553 75 b 369 -21 499 -8 421 -21 b 138 74 281 -21 206 1 b 47 306 72 143 47 224 b 143 556 47 410 86 499 b 358 640 197 610 272 640 b 553 550 411 640 496 628 m 408 468 b 299 424 365 468 325 450 b 253 311 278 403 253 367 b 294 200 253 256 276 219 b 413 151 322 171 365 151 b 517 194 453 151 490 168 b 565 311 543 219 565 258 b 519 425 565 356 549 397 b 408 468 489 454 444 468 m 457 832 b 567 942 457 892 507 942 b 676 832 626 942 676 892 b 567 722 676 772 626 722 b 457 832 507 722 457 772 m 154 832 b 264 942 154 892 204 942 b 374 832 324 942 374 892 b 264 722 374 772 324 722 b 154 832 204 722 154 772 "},"å":{"ha":831,"x_min":0,"x_max":0,"o":"m 553 619 l 753 619 l 753 0 l 553 0 l 553 75 b 369 -21 499 -8 421 -21 b 138 74 281 -21 206 1 b 47 306 72 143 47 224 b 143 556 47 410 86 499 b 358 640 197 610 272 640 b 553 550 411 640 496 628 m 408 468 b 299 424 365 468 325 450 b 253 311 278 403 253 367 b 294 200 253 256 276 219 b 413 151 322 171 365 151 b 517 194 453 151 490 168 b 565 311 543 219 565 258 b 519 425 565 356 549 397 b 408 468 489 454 444 468 m 574 853 b 536 763 574 811 556 782 b 415 719 513 740 472 719 b 294 763 358 719 318 740 b 257 853 275 782 257 811 b 294 943 257 894 275 924 b 415 986 318 965 358 986 b 536 943 472 986 513 965 b 574 853 556 924 574 894 m 415 903 b 372 890 401 903 383 899 b 354 853 363 882 354 868 b 372 815 354 838 363 824 b 415 803 383 807 401 803 b 458 815 429 803 447 807 b 476 853 468 824 476 838 b 458 890 476 868 468 882 b 415 903 447 899 429 903 "},"æ":{"ha":1167,"x_min":0,"x_max":0,"o":"m 1113 188 b 992 26 1081 90 1015 42 b 803 -21 932 -12 868 -21 b 651 7 775 -21 701 -18 b 563 81 619 22 585 54 b 458 1 533 42 500 18 b 310 -21 408 -18 364 -21 b 101 47 242 -21 161 -12 b 47 186 68 81 47 126 b 99 315 47 233 60 276 b 317 388 140 357 211 388 b 463 350 386 388 428 371 l 463 363 b 426 454 463 397 447 433 b 306 493 403 478 360 493 b 146 463 261 493 200 481 l 146 615 b 328 640 210 633 272 640 b 557 533 461 640 521 593 b 794 640 626 624 731 640 b 1036 546 906 640 986 600 b 1119 294 1113 463 1119 351 l 1119 275 l 667 275 b 708 168 668 233 685 193 b 810 129 736 138 772 129 b 881 146 828 129 856 131 b 925 200 894 154 914 171 m 343 265 b 251 233 304 265 271 254 b 233 190 240 222 233 208 b 251 147 233 175 239 161 b 342 115 272 126 308 115 b 439 147 371 115 415 124 b 457 190 447 156 457 169 b 439 233 457 206 451 219 b 343 265 415 257 375 265 m 932 394 b 892 469 926 424 911 451 b 803 501 863 496 826 501 b 717 472 772 501 742 496 b 672 394 694 453 679 421 "},"ç":{"ha":599,"x_min":0,"x_max":0,"o":"m 543 424 b 413 471 494 464 444 471 b 299 426 350 471 313 440 b 253 310 272 400 253 360 b 294 199 253 264 269 225 b 415 149 325 165 371 149 b 543 197 450 149 497 158 l 543 17 b 385 -21 490 -12 440 -21 b 144 72 281 -21 201 17 b 47 308 97 118 47 196 b 150 553 47 414 92 497 b 386 640 219 618 301 640 b 543 606 440 640 490 631 m 485 -125 l 321 -328 l 218 -272 l 354 -64 "},"è":{"ha":760,"x_min":0,"x_max":0,"o":"m 528 394 b 488 467 526 400 517 439 b 393 501 465 488 433 501 b 292 461 342 501 311 481 b 257 394 276 444 263 422 m 713 275 l 250 275 b 288 169 250 242 263 197 b 390 131 318 136 360 131 b 471 149 419 131 450 136 b 514 200 474 150 497 165 l 703 181 b 583 25 675 93 619 47 b 388 -21 524 -11 457 -21 b 140 68 294 -21 213 -4 b 47 307 86 122 47 204 b 142 551 47 396 79 488 b 379 640 217 626 310 640 b 625 547 449 640 549 628 b 713 296 699 469 713 372 m 213 903 l 344 993 l 514 782 l 424 715 "},"é":{"ha":760,"x_min":0,"x_max":0,"o":"m 528 394 b 488 467 526 400 517 439 b 393 501 465 488 433 501 b 292 461 342 501 311 481 b 257 394 276 444 263 422 m 713 275 l 250 275 b 288 169 250 242 263 197 b 390 131 318 136 360 131 b 471 149 419 131 450 136 b 514 200 474 150 497 165 l 703 181 b 583 25 675 93 619 47 b 388 -21 524 -11 457 -21 b 140 68 294 -21 213 -4 b 47 307 86 122 47 204 b 142 551 47 396 79 488 b 379 640 217 626 310 640 b 625 547 449 640 549 628 b 713 296 699 469 713 372 m 585 903 l 374 715 l 283 782 l 454 993 "},"ê":{"ha":760,"x_min":0,"x_max":0,"o":"m 528 394 b 488 467 526 400 517 439 b 393 501 465 488 433 501 b 292 461 342 501 311 481 b 257 394 276 444 263 422 m 713 275 l 250 275 b 288 169 250 242 263 197 b 390 131 318 136 360 131 b 471 149 419 131 450 136 b 514 200 474 150 497 165 l 703 181 b 583 25 675 93 619 47 b 388 -21 524 -11 457 -21 b 140 68 294 -21 213 -4 b 47 307 86 122 47 204 b 142 551 47 396 79 488 b 379 640 217 626 310 640 b 625 547 449 640 549 628 b 713 296 699 469 713 372 m 214 715 l 125 811 l 379 1008 l 635 811 l 543 715 l 379 847 "},"ë":{"ha":760,"x_min":0,"x_max":0,"o":"m 528 394 b 488 467 526 400 517 439 b 393 501 465 488 433 501 b 292 461 342 501 311 481 b 257 394 276 444 263 422 m 713 275 l 250 275 b 288 169 250 242 263 197 b 390 131 318 136 360 131 b 471 149 419 131 450 136 b 514 200 474 150 497 165 l 703 181 b 583 25 675 93 619 47 b 388 -21 524 -11 457 -21 b 140 68 294 -21 213 -4 b 47 307 86 122 47 204 b 142 551 47 396 79 488 b 379 640 217 626 310 640 b 625 547 449 640 549 628 b 713 296 699 469 713 372 m 421 832 b 531 942 421 892 471 942 b 640 832 590 942 640 892 b 531 722 640 772 590 722 b 421 832 471 722 421 772 m 118 832 b 228 942 118 892 168 942 b 338 832 288 942 338 892 b 228 722 338 772 288 722 b 118 832 168 722 118 772 "},"ì":{"ha":383,"x_min":0,"x_max":0,"o":"m 292 619 l 292 0 l 92 0 l 92 619 m 8 903 l 142 993 l 283 782 l 193 715 "},"í":{"ha":383,"x_min":0,"x_max":0,"o":"m 292 619 l 292 0 l 92 0 l 92 619 m 374 903 l 190 715 l 100 782 l 243 993 "},"î":{"ha":383,"x_min":0,"x_max":0,"o":"m 292 619 l 292 0 l 92 0 l 92 619 m 61 715 l -29 811 l 192 1008 l 413 811 l 321 715 l 192 836 "},"ï":{"ha":383,"x_min":0,"x_max":0,"o":"m 292 619 l 292 0 l 92 0 l 92 619 m 224 832 b 322 942 224 904 278 942 b 421 832 376 942 421 892 b 322 722 421 772 376 722 b 224 832 278 722 224 760 m -37 832 b 61 942 -37 892 7 942 b 160 832 106 942 160 904 b 61 722 160 760 106 722 b -37 832 7 722 -37 772 "},"ð":{"ha":806,"x_min":0,"x_max":0,"o":"m 149 961 b 468 888 319 957 410 918 l 678 971 l 726 871 l 575 811 b 706 633 629 767 674 711 b 750 393 739 553 750 475 b 639 68 750 296 733 161 b 397 -21 561 -8 468 -21 b 147 71 308 -21 224 -1 b 47 310 67 147 47 238 b 129 525 47 404 85 479 b 364 615 178 576 254 615 b 547 550 444 615 496 596 b 496 667 539 596 521 636 b 408 740 474 694 440 722 l 135 622 l 90 718 l 289 801 b 99 828 228 821 165 829 m 397 454 b 296 414 357 454 319 438 b 253 301 271 389 253 349 b 296 189 253 254 271 214 b 397 149 319 165 357 149 b 499 189 438 149 475 165 b 542 301 524 214 542 254 b 499 414 542 349 524 389 b 397 454 475 438 438 454 "},"ñ":{"ha":788,"x_min":0,"x_max":0,"o":"m 78 619 l 278 619 l 278 546 b 469 636 339 624 411 636 b 647 574 524 636 594 626 b 710 392 706 515 710 442 l 710 0 l 510 0 l 510 318 b 476 442 510 358 508 410 b 400 469 461 457 436 469 b 317 436 358 469 332 453 b 278 318 283 403 278 358 l 278 0 l 78 0 m 653 851 b 599 764 642 824 618 785 b 501 722 574 739 538 722 b 419 742 490 722 467 725 l 371 760 b 303 778 339 772 319 778 b 243 726 275 778 256 760 l 153 788 b 200 875 161 815 178 851 b 299 917 226 904 260 917 b 385 899 329 917 360 908 l 432 881 b 506 861 483 861 501 861 b 561 913 543 861 557 894 "},"ò":{"ha":822,"x_min":0,"x_max":0,"o":"m 775 310 b 682 79 775 231 744 142 b 411 -21 626 24 532 -21 b 140 79 290 -21 196 24 b 47 310 78 142 47 231 b 140 540 47 389 78 478 b 411 640 196 596 290 640 b 682 540 532 640 626 596 b 775 310 744 478 775 389 m 411 471 b 299 426 365 471 328 456 b 253 310 269 397 253 360 b 299 193 253 253 275 217 b 413 149 324 168 360 149 b 524 193 457 149 494 164 b 569 310 553 222 569 260 b 524 426 569 360 553 397 b 411 471 494 456 457 471 m 178 903 l 310 993 l 479 782 l 389 715 "},"ó":{"ha":822,"x_min":0,"x_max":0,"o":"m 775 310 b 682 79 775 231 744 142 b 411 -21 626 24 532 -21 b 140 79 290 -21 196 24 b 47 310 78 142 47 231 b 140 540 47 389 78 478 b 411 640 196 596 290 640 b 682 540 532 640 626 596 b 775 310 744 478 775 389 m 411 471 b 299 426 365 471 328 456 b 253 310 269 397 253 360 b 299 193 253 253 275 217 b 413 149 324 168 360 149 b 524 193 457 149 494 164 b 569 310 553 222 569 260 b 524 426 569 360 553 397 b 411 471 494 456 457 471 m 613 903 l 401 715 l 311 782 l 482 993 "},"ô":{"ha":822,"x_min":0,"x_max":0,"o":"m 775 310 b 682 79 775 231 744 142 b 411 -21 626 24 532 -21 b 140 79 290 -21 196 24 b 47 310 78 142 47 231 b 140 540 47 389 78 478 b 411 640 196 596 290 640 b 682 540 532 640 626 596 b 775 310 744 478 775 389 m 411 471 b 299 426 365 471 328 456 b 253 310 269 397 253 360 b 299 193 253 253 275 217 b 413 149 324 168 360 149 b 524 193 457 149 494 164 b 569 310 553 222 569 260 b 524 426 569 360 553 397 b 411 471 494 456 457 471 m 246 715 l 157 811 l 411 1008 l 667 811 l 575 715 l 411 847 "},"õ":{"ha":822,"x_min":0,"x_max":0,"o":"m 775 310 b 682 79 775 231 744 142 b 411 -21 626 24 532 -21 b 140 79 290 -21 196 24 b 47 310 78 142 47 231 b 140 540 47 389 78 478 b 411 640 196 596 290 640 b 682 540 532 640 626 596 b 775 310 744 478 775 389 m 411 471 b 299 426 365 471 328 456 b 253 310 269 397 253 360 b 299 193 253 253 275 217 b 413 149 324 168 360 149 b 524 193 457 149 494 164 b 569 310 553 222 569 260 b 524 426 569 360 553 397 b 411 471 494 456 457 471 m 664 851 b 610 764 653 824 629 785 b 513 722 585 739 549 722 b 431 742 501 722 478 725 l 382 760 b 314 778 350 772 331 778 b 254 726 286 778 267 760 l 164 788 b 211 875 172 815 189 851 b 310 917 238 904 271 917 b 396 899 340 917 371 908 l 443 881 b 517 861 494 861 513 861 b 572 913 554 861 568 894 "},"ö":{"ha":822,"x_min":0,"x_max":0,"o":"m 775 310 b 682 79 775 231 744 142 b 411 -21 626 24 532 -21 b 140 79 290 -21 196 24 b 47 310 78 142 47 231 b 140 540 47 389 78 478 b 411 640 196 596 290 640 b 682 540 532 640 626 596 b 775 310 744 478 775 389 m 411 471 b 299 426 365 471 328 456 b 253 310 269 397 253 360 b 299 193 253 253 275 217 b 413 149 324 168 360 149 b 524 193 457 149 494 164 b 569 310 553 222 569 260 b 524 426 569 360 553 397 b 411 471 494 456 457 471 m 453 832 b 563 942 453 892 503 942 b 672 832 622 942 672 892 b 563 722 672 772 622 722 b 453 832 503 722 453 772 m 150 832 b 260 942 150 892 200 942 b 369 832 319 942 369 892 b 260 722 369 772 319 722 b 150 832 200 722 150 772 "},"÷":{"ha":694,"x_min":0,"x_max":0,"o":"m 46 553 l 649 553 l 649 392 l 46 392 m 246 708 b 347 810 246 764 292 810 b 449 708 403 810 449 764 b 347 607 449 653 403 607 b 246 708 292 607 246 653 m 246 233 b 347 335 246 289 292 335 b 449 233 403 335 449 289 b 347 132 449 178 403 132 b 246 233 292 132 246 178 "},"ø":{"ha":856,"x_min":0,"x_max":0,"o":"m 721 524 b 799 313 763 475 799 410 b 706 79 799 217 760 133 b 432 -21 650 24 558 -21 b 228 31 360 -21 296 -8 l 121 -76 l 47 -7 l 150 96 b 71 307 100 151 71 218 b 164 540 71 424 122 499 b 435 640 228 603 321 640 b 642 589 519 640 585 619 l 735 682 l 808 611 m 508 454 b 435 471 483 467 461 471 b 322 426 389 471 351 457 b 276 310 300 404 276 367 b 292 238 276 282 282 258 m 363 165 b 436 149 392 151 418 149 b 547 193 478 149 517 164 b 593 310 582 228 593 268 b 578 381 593 339 590 357 "},"ù":{"ha":792,"x_min":0,"x_max":0,"o":"m 278 619 l 278 278 b 313 178 278 250 281 207 b 396 149 326 165 351 149 b 481 178 433 149 463 161 b 514 278 510 206 514 247 l 514 619 l 714 619 l 714 258 b 644 60 714 188 707 121 b 396 -21 574 -10 469 -21 b 146 60 319 -21 217 -10 b 78 246 89 115 78 178 l 78 619 m 163 903 l 294 993 l 464 782 l 374 715 "},"ú":{"ha":792,"x_min":0,"x_max":0,"o":"m 278 619 l 278 278 b 313 178 278 250 281 207 b 396 149 326 165 351 149 b 481 178 433 149 463 161 b 514 278 510 206 514 247 l 514 619 l 714 619 l 714 258 b 644 60 714 188 707 121 b 396 -21 574 -10 469 -21 b 146 60 319 -21 217 -10 b 78 246 89 115 78 178 l 78 619 m 611 903 l 400 715 l 310 782 l 481 993 "},"û":{"ha":792,"x_min":0,"x_max":0,"o":"m 278 619 l 278 278 b 313 178 278 250 281 207 b 396 149 326 165 351 149 b 481 178 433 149 463 161 b 514 278 510 206 514 247 l 514 619 l 714 619 l 714 258 b 644 60 714 188 707 121 b 396 -21 574 -10 469 -21 b 146 60 319 -21 217 -10 b 78 246 89 115 78 178 l 78 619 m 231 715 l 142 811 l 396 1008 l 651 811 l 560 715 l 396 847 "},"ü":{"ha":792,"x_min":0,"x_max":0,"o":"m 278 619 l 278 278 b 313 178 278 250 281 207 b 396 149 326 165 351 149 b 481 178 433 149 463 161 b 514 278 510 206 514 247 l 514 619 l 714 619 l 714 258 b 644 60 714 188 707 121 b 396 -21 574 -10 469 -21 b 146 60 319 -21 217 -10 b 78 246 89 115 78 178 l 78 619 m 438 832 b 547 942 438 892 488 942 b 657 832 607 942 657 892 b 547 722 657 772 607 722 b 438 832 488 722 438 772 m 135 832 b 244 942 135 892 185 942 b 354 832 304 942 354 892 b 244 722 354 772 304 722 b 135 832 185 722 135 772 "},"ý":{"ha":813,"x_min":0,"x_max":0,"o":"m 299 79 l 3 619 l 233 619 l 408 283 l 579 619 l 804 619 l 306 -318 l 81 -318 m 622 903 l 411 715 l 321 782 l 492 993 "},"þ":{"ha":831,"x_min":0,"x_max":0,"o":"m 278 -318 l 78 -318 l 78 1013 l 278 1013 l 278 546 b 471 640 343 631 424 640 b 690 553 582 640 651 592 b 783 311 746 497 783 413 b 685 63 783 204 746 124 b 475 -21 624 1 557 -21 b 278 71 351 -21 299 42 m 422 468 b 311 422 367 468 331 442 b 264 308 279 390 264 346 b 308 199 264 269 279 229 b 422 151 338 169 379 151 b 529 194 460 151 500 167 b 578 313 561 225 578 272 b 531 425 578 358 558 399 b 422 468 501 453 463 468 "},"ÿ":{"ha":813,"x_min":0,"x_max":0,"o":"m 299 79 l 3 619 l 233 619 l 408 283 l 579 619 l 804 619 l 306 -318 l 81 -318 m 447 832 b 557 942 447 892 497 942 b 667 832 617 942 667 892 b 557 722 667 772 617 722 b 447 832 497 722 447 772 m 144 832 b 254 942 144 892 194 942 b 364 832 314 942 364 892 b 254 722 364 772 314 722 b 144 832 194 722 144 772 "},"Ā":{"ha":940,"x_min":0,"x_max":0,"o":"m 646 175 l 296 175 l 225 0 l 3 0 l 376 926 l 572 926 l 938 0 l 715 0 m 588 339 l 474 650 l 358 339 m 203 1174 l 742 1174 l 742 1046 l 203 1046 "},"ā":{"ha":831,"x_min":0,"x_max":0,"o":"m 553 619 l 753 619 l 753 0 l 553 0 l 553 75 b 369 -21 499 -8 421 -21 b 138 74 281 -21 206 1 b 47 306 72 143 47 224 b 143 556 47 410 86 499 b 358 640 197 610 272 640 b 553 550 411 640 496 628 m 408 468 b 299 424 365 468 325 450 b 253 311 278 403 253 367 b 294 200 253 256 276 219 b 413 151 322 171 365 151 b 517 194 453 151 490 168 b 565 311 543 219 565 258 b 519 425 565 356 549 397 b 408 468 489 454 444 468 m 151 879 l 679 879 l 679 754 l 151 754 "},"Ă":{"ha":940,"x_min":0,"x_max":0,"o":"m 646 175 l 296 175 l 225 0 l 3 0 l 376 926 l 572 926 l 938 0 l 715 0 m 588 339 l 474 650 l 358 339 m 708 1214 b 644 1068 706 1189 693 1117 b 469 1007 594 1018 521 1007 b 294 1068 418 1007 344 1018 b 231 1214 246 1117 233 1189 l 364 1214 b 390 1156 367 1192 378 1169 b 469 1126 408 1136 440 1126 b 549 1156 499 1126 531 1136 b 575 1214 561 1169 572 1192 "},"ă":{"ha":831,"x_min":0,"x_max":0,"o":"m 553 619 l 753 619 l 753 0 l 553 0 l 553 75 b 369 -21 499 -8 421 -21 b 138 74 281 -21 206 1 b 47 306 72 143 47 224 b 143 556 47 410 86 499 b 358 640 197 610 272 640 b 553 550 411 640 496 628 m 408 468 b 299 424 365 468 325 450 b 253 311 278 403 253 367 b 294 200 253 256 276 219 b 413 151 322 171 365 151 b 517 194 453 151 490 168 b 565 311 543 219 565 258 b 519 425 565 356 549 397 b 408 468 489 454 444 468 m 650 922 b 589 781 646 865 622 815 b 415 718 538 728 469 718 b 242 781 361 718 293 728 b 181 922 208 815 185 865 l 311 922 b 340 864 315 896 328 876 b 415 838 364 842 394 838 b 490 864 436 838 467 842 b 519 922 503 876 515 896 "},"Ą":{"ha":940,"x_min":0,"x_max":0,"o":"m 572 926 l 938 0 l 813 0 b 769 -49 797 -14 782 -31 b 746 -112 760 -62 746 -87 b 761 -146 746 -125 750 -136 b 800 -158 771 -154 785 -158 b 869 -137 835 -158 865 -140 l 844 -244 b 754 -268 811 -264 779 -268 b 658 -235 710 -268 678 -253 b 626 -157 638 -215 626 -190 b 654 -69 626 -121 639 -94 b 715 0 672 -40 693 -18 l 646 175 l 296 175 l 225 0 l 3 0 l 376 926 m 588 339 l 474 650 l 358 339 "},"ą":{"ha":831,"x_min":0,"x_max":0,"o":"m 553 619 l 753 619 l 753 0 l 697 0 b 660 -39 686 -11 668 -29 b 633 -100 643 -58 633 -81 b 650 -139 633 -117 640 -131 b 690 -153 661 -149 675 -153 b 760 -132 711 -153 738 -144 l 735 -239 b 643 -262 701 -258 669 -262 b 549 -229 614 -262 578 -258 b 517 -151 528 -208 517 -179 b 546 -67 517 -126 525 -97 b 606 0 560 -46 585 -19 l 553 0 l 553 81 b 360 -21 499 -11 408 -21 b 138 74 267 -21 197 10 b 47 306 72 143 47 224 b 143 556 47 410 86 499 b 358 640 197 610 272 640 b 553 550 411 640 496 628 m 408 468 b 299 424 365 468 325 450 b 253 311 278 403 253 367 b 294 200 253 256 276 219 b 413 151 322 171 365 151 b 517 194 453 151 490 168 b 565 311 543 219 565 258 b 519 425 565 356 549 397 b 408 468 489 454 444 468 "},"Ć":{"ha":840,"x_min":0,"x_max":0,"o":"m 771 29 b 567 -21 689 -12 622 -21 b 203 114 396 -21 281 38 b 58 465 119 194 58 317 b 203 814 58 611 119 733 b 549 947 285 893 404 947 b 771 896 610 947 681 935 l 771 649 b 554 747 724 699 653 747 b 365 675 476 747 414 722 b 278 461 314 625 278 550 b 358 257 278 365 317 297 b 558 179 378 238 444 179 b 771 275 614 179 689 194 m 764 1185 l 536 1006 l 446 1079 l 632 1285 "},"ć":{"ha":599,"x_min":0,"x_max":0,"o":"m 543 424 b 413 471 494 464 444 471 b 299 426 350 471 313 440 b 253 310 272 400 253 360 b 294 199 253 264 269 225 b 415 149 325 165 371 149 b 543 197 450 149 497 158 l 543 17 b 385 -21 490 -12 440 -21 b 144 72 281 -21 201 17 b 47 308 97 118 47 196 b 150 553 47 414 92 497 b 386 640 219 618 301 640 b 543 606 440 640 490 631 m 592 903 l 381 715 l 290 782 l 461 993 "},"Ĉ":{"ha":840,"x_min":0,"x_max":0,"o":"m 771 29 b 567 -21 689 -12 622 -21 b 203 114 396 -21 281 38 b 58 465 119 194 58 317 b 203 814 58 611 119 733 b 549 947 285 893 404 947 b 771 896 610 947 681 935 l 771 649 b 554 747 724 699 653 747 b 365 675 476 747 414 722 b 278 461 314 625 278 550 b 358 257 278 365 317 297 b 558 179 378 238 444 179 b 771 275 614 179 689 194 m 258 1107 l 519 1301 l 782 1107 l 690 1008 l 519 1138 l 347 1008 "},"ĉ":{"ha":599,"x_min":0,"x_max":0,"o":"m 543 424 b 413 471 494 464 444 471 b 299 426 350 471 313 440 b 253 310 272 400 253 360 b 294 199 253 264 269 225 b 415 149 325 165 371 149 b 543 197 450 149 497 158 l 543 17 b 385 -21 490 -12 440 -21 b 144 72 281 -21 201 17 b 47 308 97 118 47 196 b 150 553 47 414 92 497 b 386 640 219 618 301 640 b 543 606 440 640 490 631 m 199 715 l 110 811 l 364 1008 l 619 811 l 528 715 l 364 847 "},"Ċ":{"ha":840,"x_min":0,"x_max":0,"o":"m 771 29 b 567 -21 689 -12 622 -21 b 203 114 396 -21 281 38 b 58 465 119 194 58 317 b 203 814 58 611 119 733 b 549 947 285 893 404 947 b 771 896 610 947 681 935 l 771 649 b 554 747 724 699 653 747 b 365 675 476 747 414 722 b 278 461 314 625 278 550 b 358 257 278 365 317 297 b 558 179 378 238 444 179 b 771 275 614 179 689 194 m 408 1132 b 526 1250 408 1199 460 1250 b 644 1132 593 1250 644 1199 b 526 1014 644 1065 593 1014 b 408 1132 460 1014 408 1065 "},"ċ":{"ha":599,"x_min":0,"x_max":0,"o":"m 543 424 b 413 471 494 464 444 471 b 299 426 350 471 313 440 b 253 310 272 400 253 360 b 294 199 253 264 269 225 b 415 149 325 165 371 149 b 543 197 450 149 497 158 l 543 17 b 385 -21 490 -12 440 -21 b 144 72 281 -21 201 17 b 47 308 97 118 47 196 b 150 553 47 414 92 497 b 386 640 219 618 301 640 b 543 606 440 640 490 631 m 260 838 b 375 953 260 903 310 953 b 490 838 440 953 490 903 b 375 722 490 772 440 722 b 260 838 310 722 260 772 "},"Č":{"ha":840,"x_min":0,"x_max":0,"o":"m 771 29 b 567 -21 689 -12 622 -21 b 203 114 396 -21 281 38 b 58 465 119 194 58 317 b 203 814 58 611 119 733 b 549 947 285 893 404 947 b 771 896 610 947 681 935 l 771 649 b 554 747 724 699 653 747 b 365 675 476 747 414 722 b 278 461 314 625 278 550 b 358 257 278 365 317 297 b 558 179 378 238 444 179 b 771 275 614 179 689 194 m 697 1301 l 789 1204 l 526 1008 l 265 1204 l 354 1301 l 526 1172 "},"č":{"ha":599,"x_min":0,"x_max":0,"o":"m 543 424 b 413 471 494 464 444 471 b 299 426 350 471 313 440 b 253 310 272 400 253 360 b 294 199 253 264 269 225 b 415 149 325 165 371 149 b 543 197 450 149 497 158 l 543 17 b 385 -21 490 -12 440 -21 b 144 72 281 -21 201 17 b 47 308 97 118 47 196 b 150 553 47 414 92 497 b 386 640 219 618 301 640 b 543 606 440 640 490 631 m 531 1008 l 622 914 l 367 715 l 113 914 l 201 1008 l 367 876 "},"Ď":{"ha":951,"x_min":0,"x_max":0,"o":"m 394 926 b 760 799 517 926 646 908 b 893 467 842 719 893 611 b 767 139 893 321 843 215 b 401 0 639 10 479 0 l 101 0 l 101 926 m 315 181 l 372 181 b 583 243 417 181 514 185 b 674 467 633 285 674 364 b 597 667 674 567 633 631 b 372 746 528 736 438 746 l 315 746 m 592 1301 l 683 1204 l 421 1008 l 160 1204 l 249 1301 l 421 1172 "},"ď":{"ha":1085,"x_min":0,"x_max":0,"o":"m 753 0 l 553 0 l 553 75 b 357 -21 522 31 467 -21 b 144 64 265 -21 199 8 b 47 313 81 128 47 217 b 144 557 47 415 85 500 b 360 640 199 608 275 640 b 553 550 428 640 503 618 l 553 1013 l 753 1013 m 408 468 b 301 426 368 468 333 457 b 253 308 272 399 253 358 b 301 194 253 263 272 222 b 406 151 332 165 371 151 b 519 197 443 151 488 167 b 565 308 543 219 565 257 b 521 422 565 361 544 397 b 408 468 489 456 451 468 m 917 972 l 1097 931 l 942 656 l 819 683 "},"Đ":{"ha":989,"x_min":0,"x_max":0,"o":"m 139 926 l 432 926 b 797 799 554 926 683 908 b 931 467 879 719 931 611 b 804 139 931 321 881 215 b 439 0 676 10 517 0 l 139 0 l 139 421 l 14 421 l 14 574 l 139 574 m 353 574 l 519 574 l 519 421 l 353 421 l 353 181 l 410 181 b 621 243 454 181 551 185 b 711 467 671 285 711 364 b 635 667 711 567 671 631 b 410 746 565 736 475 746 l 353 746 "},"đ":{"ha":850,"x_min":0,"x_max":0,"o":"m 753 883 l 864 883 l 864 753 l 753 753 l 753 0 l 553 0 l 553 75 b 357 -21 522 31 467 -21 b 144 64 265 -21 199 8 b 47 313 81 128 47 217 b 144 557 47 415 85 500 b 360 640 199 608 275 640 b 553 550 428 640 503 618 l 553 753 l 286 753 l 286 883 l 553 883 l 553 1013 l 753 1013 m 408 468 b 301 426 368 468 333 457 b 253 308 272 399 253 358 b 301 194 253 263 272 222 b 406 151 332 165 371 151 b 519 197 443 151 488 167 b 565 308 543 219 565 257 b 521 422 565 361 544 397 b 408 468 489 456 451 468 "},"Ē":{"ha":697,"x_min":0,"x_max":0,"o":"m 625 746 l 315 746 l 315 567 l 610 567 l 610 386 l 315 386 l 315 181 l 625 181 l 625 0 l 101 0 l 101 926 l 625 926 m 85 1174 l 624 1174 l 624 1046 l 85 1046 "},"ē":{"ha":760,"x_min":0,"x_max":0,"o":"m 528 394 b 488 467 526 400 517 439 b 393 501 465 488 433 501 b 292 461 342 501 311 481 b 257 394 276 444 263 422 m 713 275 l 250 275 b 288 169 250 242 263 197 b 390 131 318 136 360 131 b 471 149 419 131 450 136 b 514 200 474 150 497 165 l 703 181 b 583 25 675 93 619 47 b 388 -21 524 -11 457 -21 b 140 68 294 -21 213 -4 b 47 307 86 122 47 204 b 142 551 47 396 79 488 b 379 640 217 626 310 640 b 625 547 449 640 549 628 b 713 296 699 469 713 372 m 115 879 l 643 879 l 643 754 l 115 754 "},"Ė":{"ha":697,"x_min":0,"x_max":0,"o":"m 625 746 l 315 746 l 315 567 l 610 567 l 610 386 l 315 386 l 315 181 l 625 181 l 625 0 l 101 0 l 101 926 l 625 926 m 236 1132 b 354 1250 236 1199 288 1250 b 472 1132 421 1250 472 1199 b 354 1014 472 1065 421 1014 b 236 1132 288 1014 236 1065 "},"ė":{"ha":760,"x_min":0,"x_max":0,"o":"m 528 394 b 488 467 526 400 517 439 b 393 501 465 488 433 501 b 292 461 342 501 311 481 b 257 394 276 444 263 422 m 713 275 l 250 275 b 288 169 250 242 263 197 b 390 131 318 136 360 131 b 471 149 419 131 450 136 b 514 200 474 150 497 165 l 703 181 b 583 25 675 93 619 47 b 388 -21 524 -11 457 -21 b 140 68 294 -21 213 -4 b 47 307 86 122 47 204 b 142 551 47 396 79 488 b 379 640 217 626 310 640 b 625 547 449 640 549 628 b 713 296 699 469 713 372 m 254 838 b 369 953 254 903 304 953 b 485 838 435 953 485 903 b 369 722 485 772 435 722 b 254 838 304 722 254 772 "},"Ę":{"ha":697,"x_min":0,"x_max":0,"o":"m 625 746 l 315 746 l 315 567 l 610 567 l 610 386 l 315 386 l 315 181 l 625 181 l 625 0 l 569 0 b 526 -49 554 -14 539 -31 b 503 -112 517 -62 503 -87 b 518 -146 503 -125 507 -136 b 557 -158 528 -154 542 -158 b 626 -137 592 -158 622 -140 l 601 -244 b 511 -268 568 -264 536 -268 b 415 -235 467 -268 435 -253 b 383 -157 394 -215 383 -190 b 411 -69 383 -121 396 -94 b 472 0 429 -40 450 -18 l 101 0 l 101 926 l 625 926 "},"ę":{"ha":760,"x_min":0,"x_max":0,"o":"m 528 394 b 488 467 526 400 517 439 b 393 501 465 488 433 501 b 292 461 342 501 311 481 b 257 394 276 444 263 422 m 713 275 l 250 275 b 288 169 251 236 267 193 b 393 131 306 150 336 131 b 471 149 442 131 465 144 b 514 200 474 150 497 165 l 703 181 b 643 75 693 139 674 106 b 557 14 613 44 585 29 b 475 -42 514 -10 490 -25 b 450 -100 460 -58 450 -81 b 467 -139 450 -117 457 -131 b 507 -153 478 -149 492 -153 b 576 -132 528 -153 554 -144 l 551 -239 b 460 -262 518 -258 486 -262 b 365 -229 431 -262 394 -258 b 333 -151 343 -208 333 -179 b 357 -75 333 -122 343 -97 b 403 -21 369 -54 385 -36 b 140 68 293 -21 211 -3 b 47 303 86 124 47 206 b 142 551 47 396 79 489 b 382 640 217 626 310 640 b 625 547 468 640 557 618 b 713 296 699 469 713 372 "},"Ě":{"ha":697,"x_min":0,"x_max":0,"o":"m 625 746 l 315 746 l 315 567 l 610 567 l 610 386 l 315 386 l 315 181 l 625 181 l 625 0 l 101 0 l 101 926 l 625 926 m 524 1301 l 615 1204 l 353 1008 l 92 1204 l 181 1301 l 353 1172 "},"ě":{"ha":760,"x_min":0,"x_max":0,"o":"m 528 394 b 488 467 526 400 517 439 b 393 501 465 488 433 501 b 292 461 342 501 311 481 b 257 394 276 444 263 422 m 713 275 l 250 275 b 288 169 250 242 263 197 b 390 131 318 136 360 131 b 471 149 419 131 450 136 b 514 200 474 150 497 165 l 703 181 b 583 25 675 93 619 47 b 388 -21 524 -11 457 -21 b 140 68 294 -21 213 -4 b 47 307 86 122 47 204 b 142 551 47 396 79 488 b 379 640 217 626 310 640 b 625 547 449 640 549 628 b 713 296 699 469 713 372 m 543 1008 l 635 914 l 379 715 l 125 914 l 214 1008 l 379 876 "},"Ĝ":{"ha":1065,"x_min":0,"x_max":0,"o":"m 547 506 l 1007 506 l 1007 496 b 864 106 1007 383 967 213 b 533 -21 761 -1 643 -21 b 194 108 422 -21 303 -3 b 58 461 140 164 58 276 b 192 813 58 613 114 733 b 556 947 306 931 446 947 b 815 878 632 947 729 935 b 965 713 878 836 932 771 l 772 608 b 690 708 754 644 726 682 b 549 753 649 739 601 753 b 357 678 464 753 401 725 b 278 458 306 624 278 544 b 356 246 278 353 317 285 b 543 174 410 190 472 174 b 704 224 635 174 683 206 b 771 333 711 229 753 265 l 547 333 m 271 1107 l 532 1301 l 794 1107 l 703 1008 l 532 1138 l 360 1008 "},"ĝ":{"ha":826,"x_min":0,"x_max":0,"o":"m 549 619 l 749 619 l 749 38 b 672 -226 749 -50 744 -149 b 411 -318 596 -308 479 -318 b 153 -239 329 -318 231 -306 b 60 -75 114 -206 74 -153 l 278 -75 b 322 -136 286 -107 306 -125 b 408 -157 346 -151 379 -157 b 508 -124 465 -157 494 -136 b 549 6 547 -86 549 -21 l 549 76 b 364 -17 525 38 478 -17 b 138 71 268 -17 194 14 b 47 304 88 122 47 197 b 139 551 47 410 86 497 b 364 640 176 590 249 640 b 549 547 476 640 526 581 m 410 467 b 300 426 365 467 325 450 b 253 311 269 397 253 349 b 296 200 253 271 268 229 b 408 156 324 171 361 156 b 517 196 461 156 496 176 b 565 314 547 225 565 268 b 518 428 565 363 544 403 b 410 467 489 454 446 467 m 247 715 l 158 811 l 413 1008 l 668 811 l 576 715 l 413 847 "},"Ğ":{"ha":1065,"x_min":0,"x_max":0,"o":"m 547 506 l 1007 506 l 1007 496 b 864 106 1007 383 967 213 b 533 -21 761 -1 643 -21 b 194 108 422 -21 303 -3 b 58 461 140 164 58 276 b 192 813 58 613 114 733 b 556 947 306 931 446 947 b 815 878 632 947 729 935 b 965 713 878 836 932 771 l 772 608 b 690 708 754 644 726 682 b 549 753 649 739 601 753 b 357 678 464 753 401 725 b 278 458 306 624 278 544 b 356 246 278 353 317 285 b 543 174 410 190 472 174 b 704 224 635 174 683 206 b 771 333 711 229 753 265 l 547 333 m 771 1214 b 707 1068 768 1189 756 1117 b 532 1007 657 1018 583 1007 b 357 1068 481 1007 407 1018 b 293 1214 308 1117 296 1189 l 426 1214 b 453 1156 429 1192 440 1169 b 532 1126 471 1136 503 1126 b 611 1156 561 1126 593 1136 b 638 1214 624 1169 635 1192 "},"ğ":{"ha":826,"x_min":0,"x_max":0,"o":"m 549 619 l 749 619 l 749 38 b 672 -226 749 -50 744 -149 b 411 -318 596 -308 479 -318 b 153 -239 329 -318 231 -306 b 60 -75 114 -206 74 -153 l 278 -75 b 322 -136 286 -107 306 -125 b 408 -157 346 -151 379 -157 b 508 -124 465 -157 494 -136 b 549 6 547 -86 549 -21 l 549 76 b 364 -17 525 38 478 -17 b 138 71 268 -17 194 14 b 47 304 88 122 47 197 b 139 551 47 410 86 497 b 364 640 176 590 249 640 b 549 547 476 640 526 581 m 410 467 b 300 426 365 467 325 450 b 253 311 269 397 253 349 b 296 200 253 271 268 229 b 408 156 324 171 361 156 b 517 196 461 156 496 176 b 565 314 547 225 565 268 b 518 428 565 363 544 403 b 410 467 489 454 446 467 m 647 922 b 586 781 643 865 619 815 b 413 718 535 728 467 718 b 239 781 358 718 290 728 b 178 922 206 815 182 865 l 308 922 b 338 864 313 896 325 876 b 413 838 361 842 392 838 b 488 864 433 838 464 842 b 517 922 500 876 513 896 "},"Ġ":{"ha":1065,"x_min":0,"x_max":0,"o":"m 547 506 l 1007 506 l 1007 496 b 864 106 1007 383 967 213 b 533 -21 761 -1 643 -21 b 194 108 422 -21 303 -3 b 58 461 140 164 58 276 b 192 813 58 613 114 733 b 556 947 306 931 446 947 b 815 878 632 947 729 935 b 965 713 878 836 932 771 l 772 608 b 690 708 754 644 726 682 b 549 753 649 739 601 753 b 357 678 464 753 401 725 b 278 458 306 624 278 544 b 356 246 278 353 317 285 b 543 174 410 190 472 174 b 704 224 635 174 683 206 b 771 333 711 229 753 265 l 547 333 m 414 1132 b 532 1250 414 1199 465 1250 b 650 1132 599 1250 650 1199 b 532 1014 650 1065 599 1014 b 414 1132 465 1014 414 1065 "},"ġ":{"ha":826,"x_min":0,"x_max":0,"o":"m 549 619 l 749 619 l 749 38 b 672 -226 749 -50 744 -149 b 411 -318 596 -308 479 -318 b 153 -239 329 -318 231 -306 b 60 -75 114 -206 74 -153 l 278 -75 b 322 -136 286 -107 306 -125 b 408 -157 346 -151 379 -157 b 508 -124 465 -157 494 -136 b 549 6 547 -86 549 -21 l 549 76 b 364 -17 525 38 478 -17 b 138 71 268 -17 194 14 b 47 304 88 122 47 197 b 139 551 47 410 86 497 b 364 640 176 590 249 640 b 549 547 476 640 526 581 m 410 467 b 300 426 365 467 325 450 b 253 311 269 397 253 349 b 296 200 253 271 268 229 b 408 156 324 171 361 156 b 517 196 461 156 496 176 b 565 314 547 225 565 268 b 518 428 565 363 544 403 b 410 467 489 454 446 467 m 271 838 b 386 953 271 903 321 953 b 501 838 451 953 501 903 b 386 722 501 772 451 722 b 271 838 321 722 271 772 "},"Ģ":{"ha":1065,"x_min":0,"x_max":0,"o":"m 547 506 l 1007 506 l 1007 496 b 864 106 1007 383 967 213 b 533 -21 761 -1 643 -21 b 194 108 422 -21 303 -3 b 58 461 140 164 58 276 b 192 813 58 613 114 733 b 556 947 306 931 446 947 b 815 878 632 947 729 935 b 965 713 878 836 932 771 l 772 608 b 690 708 754 644 726 682 b 549 753 649 739 601 753 b 357 678 464 753 401 725 b 278 458 306 624 278 544 b 356 246 278 353 317 285 b 543 174 410 190 472 174 b 704 224 635 174 683 206 b 771 333 711 229 753 265 l 547 333 m 439 -69 l 625 -92 l 489 -361 l 361 -344 "},"ģ":{"ha":826,"x_min":0,"x_max":0,"o":"m 549 619 l 749 619 l 749 38 b 672 -226 749 -50 744 -149 b 411 -318 596 -308 479 -318 b 153 -239 329 -318 231 -306 b 60 -75 114 -206 74 -153 l 278 -75 b 322 -136 286 -107 306 -125 b 408 -157 346 -151 379 -157 b 508 -124 465 -157 494 -136 b 549 6 547 -86 549 -21 l 549 76 b 364 -17 525 38 478 -17 b 138 71 268 -17 194 14 b 47 304 88 122 47 197 b 139 551 47 410 86 497 b 364 640 176 590 249 640 b 549 547 476 640 526 581 m 410 467 b 300 426 365 467 325 450 b 253 311 269 397 253 349 b 296 200 253 271 268 229 b 408 156 324 171 361 156 b 517 196 461 156 496 176 b 565 314 547 225 565 268 b 518 428 565 363 544 403 b 410 467 489 454 446 467 m 475 697 l 289 719 l 425 975 l 553 958 "},"Ĥ":{"ha":1000,"x_min":0,"x_max":0,"o":"m 315 574 l 685 574 l 685 926 l 899 926 l 899 0 l 685 0 l 685 393 l 315 393 l 315 0 l 101 0 l 101 926 l 315 926 m 239 1107 l 500 1301 l 763 1107 l 671 1008 l 500 1138 l 328 1008 "},"ĥ":{"ha":793,"x_min":0,"x_max":0,"o":"m 83 1013 l 283 1013 l 283 546 b 358 610 308 576 335 597 b 479 636 400 632 435 636 b 654 574 528 636 600 629 b 715 393 711 517 715 440 l 715 0 l 515 0 l 515 318 b 482 442 515 361 514 411 b 404 469 464 460 433 469 b 325 439 361 469 336 450 b 283 310 285 400 283 340 l 283 0 l 83 0 m 18 1039 l -71 1135 l 183 1332 l 439 1135 l 347 1039 l 183 1171 "},"Ħ":{"ha":1000,"x_min":0,"x_max":0,"o":"m 315 853 l 685 853 l 685 926 l 899 926 l 899 853 l 982 853 l 982 706 l 899 706 l 899 0 l 685 0 l 685 393 l 315 393 l 315 0 l 101 0 l 101 706 l 18 706 l 18 853 l 101 853 l 101 926 l 315 926 m 315 706 l 315 574 l 685 574 l 685 706 "},"ħ":{"ha":807,"x_min":0,"x_max":0,"o":"m 97 753 l -14 753 l -14 883 l 97 883 l 97 1013 l 297 1013 l 297 883 l 564 883 l 564 753 l 297 753 l 297 546 b 372 610 322 576 349 597 b 493 636 414 632 449 636 b 668 574 542 636 614 629 b 729 393 725 517 729 440 l 729 0 l 529 0 l 529 318 b 496 442 529 361 528 411 b 418 469 478 460 447 469 b 339 439 375 469 350 450 b 297 310 299 400 297 340 l 297 0 l 97 0 "},"Ī":{"ha":425,"x_min":0,"x_max":0,"o":"m 319 926 l 319 0 l 106 0 l 106 926 m -62 1174 l 476 1174 l 476 1046 l -62 1046 "},"ī":{"ha":383,"x_min":0,"x_max":0,"o":"m 292 619 l 292 0 l 92 0 l 92 619 m 0 879 l 383 879 l 383 754 l 0 754 "},"Į":{"ha":425,"x_min":0,"x_max":0,"o":"m 319 926 l 319 0 b 276 -49 304 -14 289 -31 b 253 -112 267 -62 253 -87 b 268 -146 253 -125 257 -136 b 307 -158 278 -154 292 -158 b 376 -137 342 -158 372 -140 l 351 -244 b 261 -268 318 -264 286 -268 b 165 -235 217 -268 185 -253 b 133 -157 144 -215 133 -190 b 161 -69 133 -121 146 -94 b 222 0 179 -40 200 -18 l 106 0 l 106 926 "},"į":{"ha":383,"x_min":0,"x_max":0,"o":"m 292 619 l 292 0 b 254 -39 281 -11 263 -29 b 228 -100 238 -58 228 -81 b 244 -139 228 -117 235 -131 b 285 -153 256 -149 269 -153 b 354 -132 306 -153 332 -144 l 329 -239 b 238 -262 296 -258 264 -262 b 143 -229 208 -262 172 -258 b 111 -151 122 -208 111 -179 b 140 -67 111 -126 119 -97 b 200 0 157 -43 182 -17 l 92 0 l 92 619 m 75 883 b 192 1000 75 949 126 1000 b 308 883 257 1000 308 949 b 192 767 308 818 257 767 b 75 883 126 767 75 818 "},"İ":{"ha":425,"x_min":0,"x_max":0,"o":"m 319 926 l 319 0 l 106 0 l 106 926 m 94 1132 b 213 1250 94 1199 146 1250 b 331 1132 279 1250 331 1199 b 213 1014 331 1065 279 1014 b 94 1132 146 1014 94 1065 "},"ı":{"ha":383,"x_min":0,"x_max":0,"o":"m 292 619 l 292 0 l 92 0 l 92 619 "},"Ĵ":{"ha":576,"x_min":0,"x_max":0,"o":"m 475 926 l 475 296 b 394 49 475 226 471 124 b 199 -21 333 -12 258 -21 b 51 13 149 -21 100 -17 b -36 90 22 31 -12 61 l 97 240 b 131 189 106 224 119 200 b 183 168 146 174 163 168 b 233 188 201 168 218 172 b 261 297 260 214 261 258 l 261 926 m 110 1107 l 371 1301 l 633 1107 l 542 1008 l 371 1138 l 199 1008 "},"ĵ":{"ha":383,"x_min":0,"x_max":0,"o":"m 292 619 l 292 -318 l 92 -318 l 92 619 m 61 715 l -29 811 l 192 1008 l 413 811 l 321 715 l 192 836 "},"Ķ":{"ha":931,"x_min":0,"x_max":0,"o":"m 315 540 l 632 926 l 893 926 l 518 488 l 922 0 l 647 0 l 315 411 l 315 0 l 101 0 l 101 926 l 315 926 m 383 -69 l 569 -92 l 433 -361 l 306 -344 "},"ķ":{"ha":786,"x_min":0,"x_max":0,"o":"m 283 1013 l 283 392 l 508 619 l 771 619 l 476 339 l 792 0 l 522 0 l 283 267 l 283 0 l 83 0 l 83 1013 m 342 -69 l 528 -92 l 392 -347 l 264 -331 "},"Ĺ":{"ha":622,"x_min":0,"x_max":0,"o":"m 315 926 l 315 181 l 603 181 l 603 0 l 101 0 l 101 926 m 417 1185 l 189 1006 l 99 1079 l 285 1285 "},"ĺ":{"ha":367,"x_min":0,"x_max":0,"o":"m 283 1013 l 283 0 l 83 0 l 83 1013 m 404 1236 l 193 1049 l 103 1115 l 274 1326 "},"Ļ":{"ha":622,"x_min":0,"x_max":0,"o":"m 315 926 l 315 181 l 603 181 l 603 0 l 101 0 l 101 926 m 258 -69 l 444 -92 l 308 -361 l 181 -344 "},"ļ":{"ha":367,"x_min":0,"x_max":0,"o":"m 283 1013 l 283 0 l 83 0 l 83 1013 m 106 -69 l 292 -92 l 156 -347 l 28 -331 "},"Ľ":{"ha":622,"x_min":0,"x_max":0,"o":"m 315 926 l 315 181 l 603 181 l 603 0 l 101 0 l 101 926 m 486 944 l 667 903 l 511 628 l 389 656 "},"ľ":{"ha":613,"x_min":0,"x_max":0,"o":"m 283 1013 l 283 0 l 83 0 l 83 1013 m 444 972 l 625 931 l 469 656 l 347 683 "},"Ŀ":{"ha":622,"x_min":0,"x_max":0,"o":"m 315 926 l 315 181 l 603 181 l 603 0 l 101 0 l 101 926 m 407 464 b 525 582 407 531 458 582 b 643 464 592 582 643 531 b 525 346 643 397 592 346 b 407 464 458 346 407 397 "},"ŀ":{"ha":603,"x_min":0,"x_max":0,"o":"m 283 1013 l 283 0 l 83 0 l 83 1013 m 369 506 b 485 621 369 571 419 621 b 600 506 550 621 600 571 b 485 390 600 440 550 390 b 369 506 419 390 369 440 "},"Ł":{"ha":654,"x_min":0,"x_max":0,"o":"m 133 358 l 14 282 l 14 449 l 133 525 l 133 926 l 347 926 l 347 613 l 489 703 l 489 536 l 347 446 l 347 181 l 635 181 l 635 0 l 133 0 "},"ł":{"ha":378,"x_min":0,"x_max":0,"o":"m 89 1013 l 289 1013 l 289 717 l 400 792 l 400 644 l 289 569 l 289 0 l 89 0 l 89 476 l -22 401 l -22 549 l 89 624 "},"Ń":{"ha":1106,"x_min":0,"x_max":0,"o":"m 101 0 l 101 926 l 288 926 l 790 329 l 790 926 l 1004 926 l 1004 0 l 818 0 l 315 600 l 315 0 m 761 1185 l 533 1006 l 443 1079 l 629 1285 "},"ń":{"ha":788,"x_min":0,"x_max":0,"o":"m 78 619 l 278 619 l 278 546 b 469 636 339 624 411 636 b 647 574 524 636 594 626 b 710 392 706 515 710 442 l 710 0 l 510 0 l 510 318 b 476 442 510 358 508 410 b 400 469 461 457 436 469 b 317 436 358 469 332 453 b 278 318 283 403 278 358 l 278 0 l 78 0 m 626 903 l 415 715 l 325 782 l 496 993 "},"Ņ":{"ha":1106,"x_min":0,"x_max":0,"o":"m 101 0 l 101 926 l 288 926 l 790 329 l 790 926 l 1004 926 l 1004 0 l 818 0 l 315 600 l 315 0 m 472 -69 l 658 -92 l 522 -361 l 394 -344 "},"ņ":{"ha":788,"x_min":0,"x_max":0,"o":"m 78 619 l 278 619 l 278 546 b 469 636 339 624 411 636 b 647 574 524 636 594 626 b 710 392 706 515 710 442 l 710 0 l 510 0 l 510 318 b 476 442 510 358 508 410 b 400 469 461 457 436 469 b 317 436 358 469 332 453 b 278 318 283 403 278 358 l 278 0 l 78 0 m 335 -69 l 521 -92 l 385 -347 l 257 -331 "},"Ň":{"ha":1106,"x_min":0,"x_max":0,"o":"m 101 0 l 101 926 l 288 926 l 790 329 l 790 926 l 1004 926 l 1004 0 l 818 0 l 315 600 l 315 0 m 710 1301 l 801 1204 l 539 1008 l 278 1204 l 367 1301 l 539 1172 "},"ň":{"ha":788,"x_min":0,"x_max":0,"o":"m 78 619 l 278 619 l 278 546 b 469 636 339 624 411 636 b 647 574 524 636 594 626 b 710 392 706 515 710 442 l 710 0 l 510 0 l 510 318 b 476 442 510 358 508 410 b 400 469 461 457 436 469 b 317 436 358 469 332 453 b 278 318 283 403 278 358 l 278 0 l 78 0 m 551 1008 l 643 914 l 388 715 l 133 914 l 222 1008 l 388 876 "},"Ō":{"ha":1125,"x_min":0,"x_max":0,"o":"m 564 947 b 922 813 708 947 829 903 b 1067 463 1010 728 1067 606 b 922 115 1067 339 1022 213 b 564 -21 836 32 719 -21 b 203 115 390 -21 272 49 b 58 460 114 199 58 324 b 201 811 58 593 118 728 b 564 947 264 874 379 947 m 563 750 b 360 671 482 750 410 721 b 278 461 319 632 278 564 b 363 253 278 376 306 308 b 561 176 422 196 489 176 b 767 256 656 176 722 211 b 847 463 803 290 847 356 b 767 671 847 558 808 629 b 563 750 721 715 647 750 m 288 1174 l 826 1174 l 826 1046 l 288 1046 "},"ō":{"ha":822,"x_min":0,"x_max":0,"o":"m 775 310 b 682 79 775 231 744 142 b 411 -21 626 24 532 -21 b 140 79 290 -21 196 24 b 47 310 78 142 47 231 b 140 540 47 389 78 478 b 411 640 196 596 290 640 b 682 540 532 640 626 596 b 775 310 744 478 775 389 m 411 471 b 299 426 365 471 328 456 b 253 310 269 397 253 360 b 299 193 253 253 275 217 b 413 149 324 168 360 149 b 524 193 457 149 494 164 b 569 310 553 222 569 260 b 524 426 569 360 553 397 b 411 471 494 456 457 471 m 136 879 l 664 879 l 664 754 l 136 754 "},"Ŏ":{"ha":1125,"x_min":0,"x_max":0,"o":"m 564 947 b 922 813 708 947 829 903 b 1067 463 1010 728 1067 606 b 922 115 1067 339 1022 213 b 564 -21 836 32 719 -21 b 203 115 390 -21 272 49 b 58 460 114 199 58 324 b 201 811 58 593 118 728 b 564 947 264 874 379 947 m 563 750 b 360 671 482 750 410 721 b 278 461 319 632 278 564 b 363 253 278 376 306 308 b 561 176 422 196 489 176 b 767 256 656 176 722 211 b 847 463 803 290 847 356 b 767 671 847 558 808 629 b 563 750 721 715 647 750 m 801 1214 b 738 1068 799 1189 786 1117 b 563 1007 688 1018 614 1007 b 388 1068 511 1007 438 1018 b 324 1214 339 1117 326 1189 l 457 1214 b 483 1156 460 1192 471 1169 b 563 1126 501 1136 533 1126 b 642 1156 592 1126 624 1136 b 668 1214 654 1169 665 1192 "},"ŏ":{"ha":822,"x_min":0,"x_max":0,"o":"m 775 310 b 682 79 775 231 744 142 b 411 -21 626 24 532 -21 b 140 79 290 -21 196 24 b 47 310 78 142 47 231 b 140 540 47 389 78 478 b 411 640 196 596 290 640 b 682 540 532 640 626 596 b 775 310 744 478 775 389 m 411 471 b 299 426 365 471 328 456 b 253 310 269 397 253 360 b 299 193 253 253 275 217 b 413 149 324 168 360 149 b 524 193 457 149 494 164 b 569 310 553 222 569 260 b 524 426 569 360 553 397 b 411 471 494 456 457 471 m 646 922 b 585 781 642 865 618 815 b 411 718 533 728 465 718 b 238 781 357 718 289 728 b 176 922 204 815 181 865 l 307 922 b 336 864 311 896 324 876 b 411 838 360 842 390 838 b 486 864 432 838 463 842 b 515 922 499 876 511 896 "},"Ő":{"ha":1125,"x_min":0,"x_max":0,"o":"m 564 947 b 922 813 708 947 829 903 b 1067 463 1010 728 1067 606 b 922 115 1067 339 1022 213 b 564 -21 836 32 719 -21 b 203 115 390 -21 272 49 b 58 460 114 199 58 324 b 201 811 58 593 118 728 b 564 947 264 874 379 947 m 563 750 b 360 671 482 750 410 721 b 278 461 319 632 278 564 b 363 253 278 376 306 308 b 561 176 422 196 489 176 b 767 256 656 176 722 211 b 847 463 803 290 847 356 b 767 671 847 558 808 629 b 563 750 721 715 647 750 m 619 1193 l 425 1006 l 349 1072 l 500 1285 m 879 1193 l 685 1006 l 607 1072 l 758 1285 "},"ő":{"ha":822,"x_min":0,"x_max":0,"o":"m 775 310 b 682 79 775 231 744 142 b 411 -21 626 24 532 -21 b 140 79 290 -21 196 24 b 47 310 78 142 47 231 b 140 540 47 389 78 478 b 411 640 196 596 290 640 b 682 540 532 640 626 596 b 775 310 744 478 775 389 m 411 471 b 299 426 365 471 328 456 b 253 310 269 397 253 360 b 299 193 253 253 275 217 b 413 149 324 168 360 149 b 524 193 457 149 494 164 b 569 310 553 222 569 260 b 524 426 569 360 553 397 b 411 471 494 456 457 471 m 461 894 l 275 707 l 203 774 l 347 986 m 713 894 l 526 707 l 453 774 l 597 985 "},"Œ":{"ha":1433,"x_min":0,"x_max":0,"o":"m 1361 746 l 1060 746 l 1060 567 l 1346 567 l 1346 386 l 1060 386 l 1060 181 l 1361 181 l 1361 0 l 849 0 l 849 114 b 538 -21 739 -12 610 -21 b 207 106 396 -21 297 18 b 58 460 88 222 58 361 b 208 818 58 588 106 719 b 551 947 290 896 401 947 b 849 815 628 947 754 931 l 849 926 l 1361 926 m 556 750 b 363 674 478 750 411 719 b 278 463 335 647 278 579 b 363 253 278 358 324 290 b 556 176 411 207 478 176 b 749 253 633 176 700 207 b 833 463 788 290 833 358 b 749 674 833 579 776 647 b 556 750 700 719 633 750 "},"œ":{"ha":1256,"x_min":0,"x_max":0,"o":"m 1200 188 b 1092 32 1182 117 1143 67 b 892 -21 1025 -14 951 -21 b 640 93 813 -21 708 -7 b 388 -21 564 -8 461 -21 b 143 68 307 -21 222 -8 b 47 303 78 131 47 208 b 140 549 47 411 86 496 b 394 640 199 607 289 640 b 647 539 550 640 618 572 b 883 640 675 574 739 640 b 1121 554 1008 640 1082 594 b 1208 292 1200 474 1208 367 l 1208 275 l 750 275 b 790 169 753 236 769 193 b 893 131 824 133 867 131 b 1017 200 975 131 1004 171 m 401 471 b 301 432 357 471 324 453 b 253 310 278 410 253 371 b 300 188 253 257 272 215 b 401 149 322 167 356 149 b 503 188 447 149 481 167 b 550 310 531 215 550 257 b 501 432 550 371 525 410 b 401 471 479 453 446 471 m 1026 394 b 986 467 1025 400 1015 439 b 892 501 964 488 932 501 b 790 461 840 501 810 481 b 756 394 775 444 761 422 "},"Ŕ":{"ha":843,"x_min":0,"x_max":0,"o":"m 426 926 b 663 846 544 926 618 888 b 743 639 701 808 743 742 b 671 450 743 581 731 508 b 542 379 639 419 593 392 l 826 0 l 565 0 l 315 365 l 315 0 l 101 0 l 101 926 m 315 506 l 364 506 b 492 546 403 506 456 510 b 526 636 507 561 526 590 b 483 731 526 689 501 717 b 365 760 449 757 393 760 l 315 760 m 617 1185 l 389 1006 l 299 1079 l 485 1285 "},"ŕ":{"ha":533,"x_min":0,"x_max":0,"o":"m 78 619 l 278 619 l 278 522 b 356 608 296 557 324 589 b 463 635 389 629 424 635 b 528 625 488 635 506 632 l 517 438 b 426 460 490 451 461 460 b 326 418 383 460 351 444 b 278 251 282 371 278 304 l 278 0 l 78 0 m 501 903 l 290 715 l 200 782 l 371 993 "},"Ŗ":{"ha":843,"x_min":0,"x_max":0,"o":"m 426 926 b 663 846 544 926 618 888 b 743 639 701 808 743 742 b 671 450 743 581 731 508 b 542 379 639 419 593 392 l 826 0 l 565 0 l 315 365 l 315 0 l 101 0 l 101 926 m 315 506 l 364 506 b 492 546 403 506 456 510 b 526 636 507 561 526 590 b 483 731 526 689 501 717 b 365 760 449 757 393 760 l 315 760 m 356 -69 l 542 -92 l 406 -361 l 278 -344 "},"ŗ":{"ha":533,"x_min":0,"x_max":0,"o":"m 78 619 l 278 619 l 278 522 b 356 608 296 557 324 589 b 463 635 389 629 424 635 b 528 625 488 635 506 632 l 517 438 b 426 460 490 451 461 460 b 326 418 383 460 351 444 b 278 251 282 371 278 304 l 278 0 l 78 0 m 203 -69 l 389 -92 l 253 -347 l 125 -331 "},"Ř":{"ha":843,"x_min":0,"x_max":0,"o":"m 426 926 b 663 846 544 926 618 888 b 743 639 701 808 743 742 b 671 450 743 581 731 508 b 542 379 639 419 593 392 l 826 0 l 565 0 l 315 365 l 315 0 l 101 0 l 101 926 m 315 506 l 364 506 b 492 546 403 506 456 510 b 526 636 507 561 526 590 b 483 731 526 689 501 717 b 365 760 449 757 393 760 l 315 760 m 565 1301 l 657 1204 l 394 1008 l 133 1204 l 222 1301 l 394 1172 "},"ř":{"ha":533,"x_min":0,"x_max":0,"o":"m 78 619 l 278 619 l 278 522 b 356 608 296 557 324 589 b 463 635 389 629 424 635 b 528 625 488 635 506 632 l 517 438 b 426 460 490 451 461 460 b 326 418 383 460 351 444 b 278 251 282 371 278 304 l 278 0 l 78 0 m 453 1008 l 544 914 l 289 715 l 35 914 l 124 1008 l 289 876 "},"Ś":{"ha":764,"x_min":0,"x_max":0,"o":"m 579 700 b 424 767 510 763 450 767 b 333 735 394 767 358 763 b 310 676 319 721 310 700 b 331 625 310 654 317 638 b 447 572 353 604 385 596 l 517 546 b 643 475 557 531 607 510 b 711 303 697 424 711 357 b 629 74 711 207 678 124 b 367 -21 547 -12 428 -21 b 183 18 300 -21 242 -11 b 47 119 136 42 82 85 l 158 272 b 244 201 182 249 219 217 b 361 168 281 179 318 168 b 458 200 389 168 428 174 b 492 275 476 215 492 240 b 460 342 492 306 479 325 b 351 393 435 363 378 383 l 275 419 b 146 493 232 435 182 454 b 90 654 97 544 90 610 b 171 863 90 736 115 806 b 400 947 236 929 314 947 b 675 856 464 947 567 936 m 632 1185 l 404 1006 l 314 1079 l 500 1285 "},"ś":{"ha":603,"x_min":0,"x_max":0,"o":"m 457 461 b 347 496 426 479 386 496 b 290 478 326 496 303 490 b 278 450 283 471 278 460 b 297 422 278 436 288 428 b 357 401 311 414 332 410 l 410 385 b 513 331 444 374 481 360 b 561 213 549 297 561 260 b 497 50 561 131 525 78 b 296 -21 436 -11 361 -21 b 42 68 213 -21 122 -3 l 126 203 b 194 157 146 186 174 167 b 278 138 222 143 251 138 b 340 151 290 138 322 138 b 361 192 353 161 361 176 b 339 228 361 203 357 217 b 278 250 325 236 307 242 l 228 265 b 128 322 192 276 154 296 b 83 435 99 353 83 388 b 143 578 83 494 107 544 b 331 640 199 629 274 640 b 536 588 422 640 486 617 m 529 903 l 318 715 l 228 782 l 399 993 "},"Ŝ":{"ha":764,"x_min":0,"x_max":0,"o":"m 579 700 b 424 767 510 763 450 767 b 333 735 394 767 358 763 b 310 676 319 721 310 700 b 331 625 310 654 317 638 b 447 572 353 604 385 596 l 517 546 b 643 475 557 531 607 510 b 711 303 697 424 711 357 b 629 74 711 207 678 124 b 367 -21 547 -12 428 -21 b 183 18 300 -21 242 -11 b 47 119 136 42 82 85 l 158 272 b 244 201 182 249 219 217 b 361 168 281 179 318 168 b 458 200 389 168 428 174 b 492 275 476 215 492 240 b 460 342 492 306 479 325 b 351 393 435 363 378 383 l 275 419 b 146 493 232 435 182 454 b 90 654 97 544 90 610 b 171 863 90 736 115 806 b 400 947 236 929 314 947 b 675 856 464 947 567 936 m 126 1107 l 388 1301 l 650 1107 l 558 1008 l 388 1138 l 215 1008 "},"ŝ":{"ha":603,"x_min":0,"x_max":0,"o":"m 457 461 b 347 496 426 479 386 496 b 290 478 326 496 303 490 b 278 450 283 471 278 460 b 297 422 278 436 288 428 b 357 401 311 414 332 410 l 410 385 b 513 331 444 374 481 360 b 561 213 549 297 561 260 b 497 50 561 131 525 78 b 296 -21 436 -11 361 -21 b 42 68 213 -21 122 -3 l 126 203 b 194 157 146 186 174 167 b 278 138 222 143 251 138 b 340 151 290 138 322 138 b 361 192 353 161 361 176 b 339 228 361 203 357 217 b 278 250 325 236 307 242 l 228 265 b 128 322 192 276 154 296 b 83 435 99 353 83 388 b 143 578 83 494 107 544 b 331 640 199 629 274 640 b 536 588 422 640 486 617 m 153 715 l 64 811 l 318 1008 l 574 811 l 482 715 l 318 847 "},"Ş":{"ha":764,"x_min":0,"x_max":0,"o":"m 579 700 b 424 767 510 763 450 767 b 333 735 394 767 358 763 b 310 676 319 721 310 700 b 331 625 310 654 317 638 b 447 572 353 604 385 596 l 517 546 b 643 475 557 531 607 510 b 711 303 697 424 711 357 b 629 74 711 207 678 124 b 367 -21 547 -12 428 -21 b 183 18 300 -21 242 -11 b 47 119 136 42 82 85 l 158 272 b 244 201 182 249 219 217 b 361 168 281 179 318 168 b 458 200 389 168 428 174 b 492 275 476 215 492 240 b 460 342 492 306 479 325 b 351 393 435 363 378 383 l 275 419 b 146 493 232 435 182 454 b 90 654 97 544 90 610 b 171 863 90 736 115 806 b 400 947 236 929 314 947 b 675 856 464 947 567 936 m 475 -125 l 319 -328 l 208 -272 l 336 -64 "},"ş":{"ha":603,"x_min":0,"x_max":0,"o":"m 457 461 b 347 496 426 479 386 496 b 290 478 326 496 303 490 b 278 450 283 471 278 460 b 297 422 278 436 288 428 b 357 401 311 414 332 410 l 410 385 b 513 331 444 374 481 360 b 561 213 549 297 561 260 b 497 50 561 131 525 78 b 296 -21 436 -11 361 -21 b 42 68 213 -21 122 -3 l 126 203 b 194 157 146 186 174 167 b 278 138 222 143 251 138 b 340 151 290 138 322 138 b 361 192 353 161 361 176 b 339 228 361 203 357 217 b 278 250 325 236 307 242 l 228 265 b 128 322 192 276 154 296 b 83 435 99 353 83 388 b 143 578 83 494 107 544 b 331 640 199 629 274 640 b 536 588 422 640 486 617 m 401 -125 l 238 -328 l 135 -272 l 271 -64 "},"Š":{"ha":764,"x_min":0,"x_max":0,"o":"m 579 700 b 424 767 510 763 450 767 b 333 735 394 767 358 763 b 310 676 319 721 310 700 b 331 625 310 654 317 638 b 447 572 353 604 385 596 l 517 546 b 643 475 557 531 607 510 b 711 303 697 424 711 357 b 629 74 711 207 678 124 b 367 -21 547 -12 428 -21 b 183 18 300 -21 242 -11 b 47 119 136 42 82 85 l 158 272 b 244 201 182 249 219 217 b 361 168 281 179 318 168 b 458 200 389 168 428 174 b 492 275 476 215 492 240 b 460 342 492 306 479 325 b 351 393 435 363 378 383 l 275 419 b 146 493 232 435 182 454 b 90 654 97 544 90 610 b 171 863 90 736 115 806 b 400 947 236 929 314 947 b 675 856 464 947 567 936 m 558 1301 l 650 1204 l 388 1008 l 126 1204 l 215 1301 l 388 1172 "},"š":{"ha":603,"x_min":0,"x_max":0,"o":"m 457 461 b 347 496 426 479 386 496 b 290 478 326 496 303 490 b 278 450 283 471 278 460 b 297 422 278 436 288 428 b 357 401 311 414 332 410 l 410 385 b 513 331 444 374 481 360 b 561 213 549 297 561 260 b 497 50 561 131 525 78 b 296 -21 436 -11 361 -21 b 42 68 213 -21 122 -3 l 126 203 b 194 157 146 186 174 167 b 278 138 222 143 251 138 b 340 151 290 138 322 138 b 361 192 353 161 361 176 b 339 228 361 203 357 217 b 278 250 325 236 307 242 l 228 265 b 128 322 192 276 154 296 b 83 435 99 353 83 388 b 143 578 83 494 107 544 b 331 640 199 629 274 640 b 536 588 422 640 486 617 m 482 1008 l 574 914 l 318 715 l 64 914 l 153 1008 l 318 876 "},"Ţ":{"ha":639,"x_min":0,"x_max":0,"o":"m 426 746 l 426 0 l 213 0 l 213 746 l 11 746 l 11 926 l 628 926 l 628 746 m 422 -125 l 267 -328 l 156 -272 l 283 -64 "},"ţ":{"ha":415,"x_min":0,"x_max":0,"o":"m 283 458 l 283 0 l 83 0 l 83 458 l 14 458 l 14 619 l 83 619 l 83 819 l 283 819 l 283 619 l 407 619 l 407 458 m 290 -125 l 126 -328 l 24 -272 l 160 -64 "},"Ť":{"ha":639,"x_min":0,"x_max":0,"o":"m 628 746 l 628 926 l 11 926 l 11 746 l 213 746 l 213 0 l 426 0 l 426 746 m 490 1301 l 582 1204 l 319 1008 l 58 1204 l 147 1301 l 319 1172 "},"ť":{"ha":613,"x_min":0,"x_max":0,"o":"m 283 458 l 283 0 l 83 0 l 83 458 l 14 458 l 14 619 l 83 619 l 83 819 l 283 819 l 283 619 l 407 619 l 407 458 m 444 972 l 625 931 l 469 656 l 347 683 "},"Ũ":{"ha":986,"x_min":0,"x_max":0,"o":"m 885 378 b 782 85 885 289 874 179 b 493 -21 693 -7 590 -21 b 204 85 396 -21 293 -7 b 101 378 113 179 101 289 l 101 926 l 315 926 l 315 383 b 364 228 315 343 318 275 b 493 179 401 188 453 179 b 622 228 533 179 585 188 b 671 383 668 275 671 343 l 671 926 l 885 926 m 760 1135 b 701 1054 744 1104 724 1076 b 603 1011 679 1032 650 1011 b 517 1033 574 1011 547 1021 l 460 1056 b 408 1071 438 1064 422 1071 b 344 1017 389 1071 363 1063 l 246 1086 b 297 1168 256 1107 278 1147 b 399 1210 326 1199 361 1210 b 482 1190 433 1210 458 1200 l 538 1168 b 594 1151 553 1163 572 1151 b 661 1204 625 1151 647 1171 "},"ũ":{"ha":792,"x_min":0,"x_max":0,"o":"m 278 619 l 278 278 b 313 178 278 250 281 207 b 396 149 326 165 351 149 b 481 178 433 149 463 161 b 514 278 510 206 514 247 l 514 619 l 714 619 l 714 258 b 644 60 714 188 707 121 b 396 -21 574 -10 469 -21 b 146 60 319 -21 217 -10 b 78 246 89 115 78 178 l 78 619 m 649 851 b 594 764 638 824 614 785 b 497 722 569 739 533 722 b 415 742 486 722 463 725 l 367 760 b 299 778 335 772 315 778 b 239 726 271 778 251 760 l 149 788 b 196 875 157 815 174 851 b 294 917 222 904 256 917 b 381 899 325 917 356 908 l 428 881 b 501 861 479 861 497 861 b 557 913 539 861 553 894 "},"Ū":{"ha":986,"x_min":0,"x_max":0,"o":"m 885 378 b 782 85 885 289 874 179 b 493 -21 693 -7 590 -21 b 204 85 396 -21 293 -7 b 101 378 113 179 101 289 l 101 926 l 315 926 l 315 383 b 364 228 315 343 318 275 b 493 179 401 188 453 179 b 622 228 533 179 585 188 b 671 383 668 275 671 343 l 671 926 l 885 926 m 218 1174 l 757 1174 l 757 1046 l 218 1046 "},"ū":{"ha":792,"x_min":0,"x_max":0,"o":"m 278 619 l 278 278 b 313 178 278 250 281 207 b 396 149 326 165 351 149 b 481 178 433 149 463 161 b 514 278 510 206 514 247 l 514 619 l 714 619 l 714 258 b 644 60 714 188 707 121 b 396 -21 574 -10 469 -21 b 146 60 319 -21 217 -10 b 78 246 89 115 78 178 l 78 619 m 121 879 l 649 879 l 649 754 l 121 754 "},"Ŭ":{"ha":986,"x_min":0,"x_max":0,"o":"m 885 378 b 782 85 885 289 874 179 b 493 -21 693 -7 590 -21 b 204 85 396 -21 293 -7 b 101 378 113 179 101 289 l 101 926 l 315 926 l 315 383 b 364 228 315 343 318 275 b 493 179 401 188 453 179 b 622 228 533 179 585 188 b 671 383 668 275 671 343 l 671 926 l 885 926 m 732 1214 b 668 1068 729 1189 717 1117 b 493 1007 618 1018 544 1007 b 318 1068 442 1007 368 1018 b 254 1214 269 1117 257 1189 l 388 1214 b 414 1156 390 1192 401 1169 b 493 1126 432 1136 464 1126 b 572 1156 522 1126 554 1136 b 599 1214 585 1169 596 1192 "},"ŭ":{"ha":792,"x_min":0,"x_max":0,"o":"m 278 619 l 278 278 b 313 178 278 250 281 207 b 396 149 326 165 351 149 b 481 178 433 149 463 161 b 514 278 510 206 514 247 l 514 619 l 714 619 l 714 258 b 644 60 714 188 707 121 b 396 -21 574 -10 469 -21 b 146 60 319 -21 217 -10 b 78 246 89 115 78 178 l 78 619 m 631 922 b 569 781 626 865 603 815 b 396 718 518 728 450 718 b 222 781 342 718 274 728 b 161 922 189 815 165 865 l 292 922 b 321 864 296 896 308 876 b 396 838 344 842 375 838 b 471 864 417 838 447 842 b 500 922 483 876 496 896 "},"Ů":{"ha":986,"x_min":0,"x_max":0,"o":"m 885 378 b 782 85 885 289 874 179 b 493 -21 693 -7 590 -21 b 204 85 396 -21 293 -7 b 101 378 113 179 101 289 l 101 926 l 315 926 l 315 383 b 364 228 315 343 318 275 b 493 179 401 188 453 179 b 622 228 533 179 585 188 b 671 383 668 275 671 343 l 671 926 l 885 926 m 654 1149 b 617 1057 654 1114 640 1081 b 493 1013 586 1028 540 1013 b 369 1057 446 1013 400 1028 b 332 1149 346 1081 332 1114 b 369 1240 332 1183 346 1217 b 493 1285 400 1269 446 1285 b 617 1240 540 1285 586 1269 b 654 1149 640 1217 654 1183 m 493 1203 b 446 1186 471 1203 456 1196 b 429 1149 435 1175 429 1161 b 446 1111 429 1136 435 1122 b 493 1094 456 1101 471 1094 b 540 1111 515 1094 531 1101 b 557 1149 551 1122 557 1136 b 540 1186 557 1161 551 1175 b 493 1203 531 1196 515 1203 "},"ů":{"ha":792,"x_min":0,"x_max":0,"o":"m 278 619 l 278 278 b 313 178 278 250 281 207 b 396 149 326 165 351 149 b 481 178 433 149 463 161 b 514 278 510 206 514 247 l 514 619 l 714 619 l 714 258 b 644 60 714 188 707 121 b 396 -21 574 -10 469 -21 b 146 60 319 -21 217 -10 b 78 246 89 115 78 178 l 78 619 m 554 853 b 517 763 554 811 536 782 b 396 719 493 740 453 719 b 275 763 339 719 299 740 b 238 853 256 782 238 811 b 275 943 238 894 256 924 b 396 986 299 965 339 986 b 517 943 453 986 493 965 b 554 853 536 924 554 894 m 396 903 b 353 890 382 903 364 899 b 335 853 343 882 335 868 b 353 815 335 838 343 824 b 396 803 364 807 382 803 b 439 815 410 803 428 807 b 457 853 449 824 457 838 b 439 890 457 868 449 882 b 396 903 428 899 410 903 "},"Ű":{"ha":986,"x_min":0,"x_max":0,"o":"m 885 378 b 782 85 885 289 874 179 b 493 -21 693 -7 590 -21 b 204 85 396 -21 293 -7 b 101 378 113 179 101 289 l 101 926 l 315 926 l 315 383 b 364 228 315 343 318 275 b 493 179 401 188 453 179 b 622 228 533 179 585 188 b 671 383 668 275 671 343 l 671 926 l 885 926 m 564 1193 l 369 1006 l 293 1072 l 444 1285 m 824 1193 l 629 1006 l 551 1072 l 703 1285 "},"ű":{"ha":792,"x_min":0,"x_max":0,"o":"m 278 619 l 278 278 b 313 178 278 250 281 207 b 396 149 326 165 351 149 b 481 178 433 149 463 161 b 514 278 510 206 514 247 l 514 619 l 714 619 l 714 258 b 644 60 714 188 707 121 b 396 -21 574 -10 469 -21 b 146 60 319 -21 217 -10 b 78 246 89 115 78 178 l 78 619 m 428 894 l 242 707 l 169 774 l 314 986 m 679 894 l 493 707 l 419 774 l 564 985 "},"Ų":{"ha":986,"x_min":0,"x_max":0,"o":"m 885 378 b 842 163 885 326 881 235 b 700 24 813 107 758 60 b 601 -49 671 6 633 -11 b 575 -112 588 -64 575 -86 b 590 -146 575 -125 579 -136 b 629 -158 600 -154 614 -158 b 699 -137 664 -158 694 -140 l 674 -244 b 583 -268 640 -264 608 -268 b 488 -235 539 -268 507 -253 b 456 -157 467 -215 456 -190 b 478 -79 456 -131 463 -106 b 524 -19 490 -58 508 -36 b 479 -21 508 -21 493 -21 b 204 85 322 -21 243 46 b 101 378 113 181 101 288 l 101 926 l 315 926 l 315 383 b 364 228 315 343 318 275 b 493 179 401 188 453 179 b 622 228 533 179 585 188 b 671 383 668 275 671 343 l 671 926 l 885 926 "},"ų":{"ha":792,"x_min":0,"x_max":0,"o":"m 278 619 l 278 278 b 313 178 278 250 281 207 b 396 149 326 165 351 149 b 481 178 433 149 463 161 b 514 278 510 206 514 247 l 514 619 l 714 619 l 714 258 b 646 67 714 204 713 136 b 575 10 622 42 599 26 b 501 -47 553 -4 526 -21 b 474 -100 489 -60 474 -79 b 490 -139 474 -114 479 -129 b 531 -153 500 -149 515 -153 b 600 -132 551 -153 578 -144 l 575 -239 b 482 -262 542 -258 510 -262 b 389 -229 446 -262 415 -256 b 357 -150 364 -204 357 -174 b 378 -81 357 -124 367 -100 b 425 -19 389 -60 404 -39 b 385 -21 413 -21 400 -21 b 146 60 313 -21 214 -6 b 78 246 89 115 78 178 l 78 619 "},"Ÿ":{"ha":878,"x_min":0,"x_max":0,"o":"m 332 432 l 0 926 l 253 926 l 439 639 l 625 926 l 878 926 l 546 432 l 546 0 l 332 0 m 178 1126 b 288 1236 178 1186 228 1236 b 397 1126 347 1236 397 1186 b 288 1017 397 1067 347 1017 b 178 1126 228 1017 178 1067 m 481 1126 b 590 1236 481 1186 531 1236 b 700 1126 650 1236 700 1186 b 590 1017 700 1067 650 1017 b 481 1126 531 1017 481 1067 "},"Ź":{"ha":856,"x_min":0,"x_max":0,"o":"m 382 181 l 779 181 l 779 0 l 31 0 l 475 746 l 103 746 l 103 926 l 825 926 m 650 1185 l 422 1006 l 332 1079 l 518 1285 "},"ź":{"ha":693,"x_min":0,"x_max":0,"o":"m 356 167 l 649 167 l 649 0 l 17 0 l 339 453 l 65 453 l 65 619 l 676 619 m 563 903 l 351 715 l 261 782 l 432 993 "},"Ż":{"ha":856,"x_min":0,"x_max":0,"o":"m 382 181 l 779 181 l 779 0 l 31 0 l 475 746 l 103 746 l 103 926 l 825 926 m 326 1132 b 444 1250 326 1199 378 1250 b 563 1132 511 1250 563 1199 b 444 1014 563 1065 511 1014 b 326 1132 378 1014 326 1065 "},"ż":{"ha":693,"x_min":0,"x_max":0,"o":"m 356 167 l 649 167 l 649 0 l 17 0 l 339 453 l 65 453 l 65 619 l 676 619 m 222 838 b 338 953 222 903 272 953 b 453 838 403 953 453 903 b 338 722 453 772 403 722 b 222 838 272 722 222 772 "},"Ž":{"ha":856,"x_min":0,"x_max":0,"o":"m 382 181 l 779 181 l 779 0 l 31 0 l 475 746 l 103 746 l 103 926 l 825 926 m 607 1301 l 699 1204 l 436 1008 l 175 1204 l 264 1301 l 436 1172 "},"ž":{"ha":693,"x_min":0,"x_max":0,"o":"m 356 167 l 649 167 l 649 0 l 17 0 l 339 453 l 65 453 l 65 619 l 676 619 m 510 1008 l 601 914 l 346 715 l 92 914 l 181 1008 l 346 876 "},"Ə":{"ha":1063,"x_min":0,"x_max":0,"o":"m 781 521 b 708 681 779 535 768 619 b 522 750 654 736 585 750 b 383 718 479 750 431 744 b 292 628 350 700 317 669 l 94 704 b 254 874 110 731 161 815 b 540 947 326 919 426 947 b 869 822 629 947 761 929 b 1004 468 982 713 1004 574 b 863 100 1004 351 978 213 b 531 -21 760 0 650 -21 b 215 97 401 -21 307 6 b 58 515 97 217 58 396 l 58 521 m 296 371 b 357 236 301 326 322 272 b 533 171 386 206 439 171 b 703 229 583 171 647 179 b 776 371 735 258 767 307 "},"ƒ":{"ha":833,"x_min":0,"x_max":0,"o":"m 314 494 l 219 494 l 240 619 l 336 619 l 364 779 b 447 960 375 842 404 915 b 625 1028 504 1019 576 1028 b 763 1000 686 1028 729 1015 l 731 829 b 650 853 707 844 678 853 b 590 832 628 853 607 847 b 549 726 569 813 557 779 l 531 619 l 672 619 l 650 494 l 508 494 l 442 122 b 318 -175 426 39 400 -97 b 74 -256 242 -247 138 -256 b -11 -246 43 -256 19 -253 l 21 -68 b 78 -75 36 -72 57 -75 b 185 -36 131 -75 167 -57 b 254 164 226 10 243 103 "},"Ǐ":{"ha":425,"x_min":0,"x_max":0,"o":"m 319 926 l 319 0 l 106 0 l 106 926 m 383 1301 l 475 1204 l 213 1008 l -49 1204 l 40 1301 l 213 1172 "},"ǐ":{"ha":383,"x_min":0,"x_max":0,"o":"m 292 619 l 292 0 l 92 0 l 92 619 m 321 1008 l 413 913 l 192 715 l -29 913 l 61 1008 l 192 888 "},"ǝ":{"ha":760,"x_min":0,"x_max":0,"o":"m 232 233 b 272 157 238 203 253 175 b 368 122 293 138 324 122 b 468 163 396 122 435 128 b 503 233 482 178 497 201 m 47 349 l 508 349 b 472 449 508 388 493 425 b 372 489 442 483 401 489 b 289 471 347 489 313 486 b 246 419 286 469 263 454 l 57 439 b 176 594 85 526 140 572 b 374 640 243 636 319 640 b 619 551 465 640 547 624 b 713 315 674 496 713 415 b 618 68 713 222 681 131 b 378 -21 546 -4 457 -21 b 135 72 288 -21 201 1 b 47 324 61 150 47 247 "},"Ǧ":{"ha":1065,"x_min":0,"x_max":0,"o":"m 547 506 l 1007 506 l 1007 496 b 864 106 1007 383 967 213 b 533 -21 761 -1 643 -21 b 194 108 422 -21 303 -3 b 58 461 140 164 58 276 b 192 813 58 613 114 733 b 556 947 306 931 446 947 b 815 878 632 947 729 935 b 965 713 878 836 932 771 l 772 608 b 690 708 754 644 726 682 b 549 753 649 739 601 753 b 357 678 464 753 401 725 b 278 458 306 624 278 544 b 356 246 278 353 317 285 b 543 174 410 190 472 174 b 704 224 635 174 683 206 b 771 333 711 229 753 265 l 547 333 m 704 1301 l 796 1204 l 533 1008 l 272 1204 l 361 1301 l 533 1172 "},"ǧ":{"ha":826,"x_min":0,"x_max":0,"o":"m 549 619 l 749 619 l 749 38 b 672 -226 749 -50 744 -149 b 411 -318 596 -308 479 -318 b 153 -239 329 -318 231 -306 b 60 -75 114 -206 74 -153 l 278 -75 b 322 -136 286 -107 306 -125 b 408 -157 346 -151 379 -157 b 508 -124 465 -157 494 -136 b 549 6 547 -86 549 -21 l 549 76 b 364 -17 525 38 478 -17 b 138 71 268 -17 194 14 b 47 304 88 122 47 197 b 139 551 47 410 86 497 b 364 640 176 590 249 640 b 549 547 476 640 526 581 m 410 467 b 300 426 365 467 325 450 b 253 311 269 397 253 349 b 296 200 253 271 268 229 b 408 156 324 171 361 156 b 517 196 461 156 496 176 b 565 314 547 225 565 268 b 518 428 565 363 544 403 b 410 467 489 454 446 467 m 543 1008 l 635 914 l 379 715 l 125 914 l 214 1008 l 379 876 "},"Ǽ":{"ha":1278,"x_min":0,"x_max":0,"o":"m 654 179 l 300 179 l 231 0 l 8 0 l 388 926 l 914 926 l 981 746 l 658 746 l 729 567 l 1049 567 l 1118 386 l 797 386 l 879 181 l 1201 181 l 1269 0 l 725 0 m 596 343 l 482 647 l 363 343 m 847 1185 l 619 1006 l 529 1079 l 715 1285 "},"ǽ":{"ha":1167,"x_min":0,"x_max":0,"o":"m 1113 188 b 992 26 1081 90 1015 42 b 803 -21 932 -12 868 -21 b 651 7 775 -21 701 -18 b 563 81 619 22 585 54 b 458 1 533 42 500 18 b 310 -21 408 -18 364 -21 b 101 47 242 -21 161 -12 b 47 186 68 81 47 126 b 99 315 47 233 60 276 b 317 388 140 357 211 388 b 463 350 386 388 428 371 l 463 363 b 426 454 463 397 447 433 b 306 493 403 478 360 493 b 146 463 261 493 200 481 l 146 615 b 328 640 210 633 272 640 b 557 533 461 640 521 593 b 794 640 626 624 731 640 b 1036 546 906 640 986 600 b 1119 294 1113 463 1119 351 l 1119 275 l 667 275 b 708 168 668 233 685 193 b 810 129 736 138 772 129 b 881 146 828 129 856 131 b 925 200 894 154 914 171 m 343 265 b 251 233 304 265 271 254 b 233 190 240 222 233 208 b 251 147 233 175 239 161 b 342 115 272 126 308 115 b 439 147 371 115 415 124 b 457 190 447 156 457 169 b 439 233 457 206 451 219 b 343 265 415 257 375 265 m 932 394 b 892 469 926 424 911 451 b 803 501 863 496 826 501 b 717 472 772 501 742 496 b 672 394 694 453 679 421 m 807 903 l 596 715 l 506 782 l 676 993 "},"Ș":{"ha":764,"x_min":0,"x_max":0,"o":"m 579 700 b 424 767 510 763 450 767 b 333 735 394 767 358 763 b 310 676 319 721 310 700 b 331 625 310 654 317 638 b 447 572 353 604 385 596 l 517 546 b 643 475 557 531 607 510 b 711 303 697 424 711 357 b 629 74 711 207 678 124 b 367 -21 547 -12 428 -21 b 183 18 300 -21 242 -11 b 47 119 136 42 82 85 l 158 272 b 244 201 182 249 219 217 b 361 168 281 179 318 168 b 458 200 389 168 428 174 b 492 275 476 215 492 240 b 460 342 492 306 479 325 b 351 393 435 363 378 383 l 275 419 b 146 493 232 435 182 454 b 90 654 97 544 90 610 b 171 863 90 736 115 806 b 400 947 236 929 314 947 b 675 856 464 947 567 936 m 274 -69 l 460 -92 l 324 -361 l 196 -344 "},"ș":{"ha":603,"x_min":0,"x_max":0,"o":"m 457 461 b 347 496 426 479 386 496 b 290 478 326 496 303 490 b 278 450 283 471 278 460 b 297 422 278 436 288 428 b 357 401 311 414 332 410 l 410 385 b 513 331 444 374 481 360 b 561 213 549 297 561 260 b 497 50 561 131 525 78 b 296 -21 436 -11 361 -21 b 42 68 213 -21 122 -3 l 126 203 b 194 157 146 186 174 167 b 278 138 222 143 251 138 b 340 151 290 138 322 138 b 361 192 353 161 361 176 b 339 228 361 203 357 217 b 278 250 325 236 307 242 l 228 265 b 128 322 192 276 154 296 b 83 435 99 353 83 388 b 143 578 83 494 107 544 b 331 640 199 629 274 640 b 536 588 422 640 486 617 m 236 -69 l 422 -92 l 286 -347 l 158 -331 "},"Ț":{"ha":639,"x_min":0,"x_max":0,"o":"m 426 746 l 426 0 l 213 0 l 213 746 l 11 746 l 11 926 l 628 926 l 628 746 m 231 -69 l 417 -92 l 281 -361 l 153 -344 "},"ț":{"ha":415,"x_min":0,"x_max":0,"o":"m 283 458 l 283 0 l 83 0 l 83 458 l 14 458 l 14 619 l 83 619 l 83 819 l 283 819 l 283 619 l 407 619 l 407 458 m 126 -69 l 313 -92 l 176 -347 l 49 -331 "},"Ȩ":{"ha":697,"x_min":0,"x_max":0,"o":"m 625 746 l 315 746 l 315 567 l 610 567 l 610 386 l 315 386 l 315 181 l 625 181 l 625 0 l 101 0 l 101 926 l 625 926 m 492 -125 l 336 -328 l 225 -272 l 353 -64 "},"ȩ":{"ha":760,"x_min":0,"x_max":0,"o":"m 528 394 b 488 467 526 400 517 439 b 393 501 465 488 433 501 b 292 461 342 501 311 481 b 257 394 276 444 263 422 m 713 275 l 250 275 b 288 169 250 242 263 197 b 390 131 318 136 360 131 b 471 149 419 131 450 136 b 514 200 474 150 497 165 l 703 181 b 583 25 675 93 619 47 b 388 -21 524 -11 457 -21 b 140 68 294 -21 213 -4 b 47 307 86 122 47 204 b 142 551 47 396 79 488 b 379 640 217 626 310 640 b 625 547 449 640 549 628 b 713 296 699 469 713 372 m 493 -125 l 329 -328 l 226 -272 l 363 -64 "},"ȷ":{"ha":383,"x_min":0,"x_max":0,"o":"m 292 619 l 292 -318 l 92 -318 l 92 619 "},"ə":{"ha":760,"x_min":0,"x_max":0,"o":"m 232 233 b 272 157 238 203 253 175 b 368 122 293 138 324 122 b 468 163 396 122 435 128 b 503 233 482 178 497 201 m 47 349 l 508 349 b 472 449 508 388 493 425 b 372 489 442 483 401 489 b 289 471 347 489 313 486 b 246 419 286 469 263 454 l 57 439 b 176 594 85 526 140 572 b 374 640 243 636 319 640 b 619 551 465 640 547 624 b 713 315 674 496 713 415 b 618 68 713 222 681 131 b 378 -21 546 -4 457 -21 b 135 72 288 -21 201 1 b 47 324 61 150 47 247 "},"ʼ":{"ha":694,"x_min":0,"x_max":0,"o":"m 264 972 l 444 931 l 289 656 l 167 683 "},"ˆ":{"ha":694,"x_min":0,"x_max":0,"o":"m 181 715 l 92 811 l 346 1008 l 601 811 l 510 715 l 346 847 "},"ˇ":{"ha":694,"x_min":0,"x_max":0,"o":"m 510 1008 l 601 914 l 346 715 l 92 914 l 181 1008 l 346 876 "},"˘":{"ha":694,"x_min":0,"x_max":0,"o":"m 582 922 b 521 781 578 865 554 815 b 347 718 469 728 401 718 b 174 781 293 718 225 728 b 113 922 140 815 117 865 l 243 922 b 272 864 247 896 260 876 b 347 838 296 842 326 838 b 422 864 368 838 399 842 b 451 922 435 876 447 896 "},"˙":{"ha":694,"x_min":0,"x_max":0,"o":"m 232 838 b 347 953 232 903 282 953 b 463 838 413 953 463 903 b 347 722 463 772 413 722 b 232 838 282 722 232 772 "},"˚":{"ha":694,"x_min":0,"x_max":0,"o":"m 506 853 b 468 763 506 811 488 782 b 347 719 444 740 404 719 b 226 763 290 719 250 740 b 189 853 207 782 189 811 b 226 943 189 894 207 924 b 347 986 250 965 290 986 b 468 943 404 986 444 965 b 506 853 488 924 506 894 m 347 903 b 304 890 333 903 315 899 b 286 853 294 882 286 868 b 304 815 286 838 294 824 b 347 803 315 807 333 803 b 390 815 361 803 379 807 b 408 853 400 824 408 838 b 390 890 408 868 400 882 b 347 903 379 899 361 903 "},"˛":{"ha":694,"x_min":0,"x_max":0,"o":"m 499 -239 b 407 -262 465 -258 433 -262 b 313 -229 378 -262 342 -258 b 281 -151 292 -208 281 -179 b 310 -67 281 -126 289 -97 b 369 0 326 -43 351 -17 l 461 0 b 424 -39 450 -11 432 -29 b 397 -100 407 -58 397 -81 b 414 -139 397 -117 404 -131 b 454 -153 425 -149 439 -153 b 524 -132 475 -153 501 -144 "},"˜":{"ha":694,"x_min":0,"x_max":0,"o":"m 597 851 b 543 764 586 824 563 785 b 446 722 518 739 482 722 b 364 742 435 722 411 725 l 315 760 b 247 778 283 772 264 778 b 188 726 219 778 200 760 l 97 788 b 144 875 106 815 122 851 b 243 917 171 904 204 917 b 329 899 274 917 304 908 l 376 881 b 450 861 428 861 446 861 b 506 913 488 861 501 894 "},"˝":{"ha":694,"x_min":0,"x_max":0,"o":"m 406 894 l 219 707 l 147 774 l 292 986 m 657 894 l 471 707 l 397 774 l 542 985 "},"́":{"ha":3,"x_min":0,"x_max":0,"o":"m -150 903 l -361 715 l -451 782 l -281 993 "},"Δ":{"ha":929,"x_min":0,"x_max":0,"o":"m 25 0 l 368 926 l 557 926 l 904 0 m 285 161 l 642 161 l 464 672 "},"Ω":{"ha":956,"x_min":0,"x_max":0,"o":"m 529 150 b 665 281 582 174 629 213 b 711 482 701 349 711 421 b 629 714 711 603 669 675 b 478 772 590 751 533 772 b 326 714 422 772 365 751 b 244 482 286 675 244 603 b 290 281 244 421 254 349 b 426 150 326 213 374 174 l 426 0 l 54 0 l 54 161 l 239 161 b 161 218 211 176 186 194 b 50 507 71 307 50 429 b 172 826 50 640 99 753 b 478 947 221 875 318 947 b 783 826 638 947 735 875 b 906 507 857 753 906 640 b 794 218 906 429 885 307 b 717 161 769 194 744 176 l 901 161 l 901 0 l 529 0 "},"π":{"ha":939,"x_min":0,"x_max":0,"o":"m 197 0 l 197 458 l 92 458 l 92 619 l 931 619 l 931 458 l 825 458 l 825 0 l 625 0 l 625 458 l 397 458 l 397 0 "},"Ё":{"ha":697,"x_min":0,"x_max":0,"o":"m 625 746 l 315 746 l 315 567 l 610 567 l 610 386 l 315 386 l 315 181 l 625 181 l 625 0 l 101 0 l 101 926 l 625 926 m 115 1110 b 219 1214 115 1168 161 1214 b 324 1110 278 1214 324 1168 b 219 1006 324 1051 278 1006 b 115 1110 161 1006 115 1051 m 406 1110 b 510 1214 406 1168 451 1214 b 614 1110 568 1214 614 1168 b 510 1006 614 1051 568 1006 b 406 1110 451 1006 406 1051 "},"Ђ":{"ha":939,"x_min":0,"x_max":0,"o":"m 192 746 l 11 746 l 11 926 l 711 926 l 711 746 l 406 746 l 406 544 b 572 576 457 564 513 576 b 768 533 597 576 692 575 b 903 282 876 474 903 374 b 790 43 903 149 843 78 b 574 -8 735 7 644 -8 b 494 0 547 -8 519 -4 l 494 169 b 569 161 519 164 544 161 b 647 183 590 161 622 164 b 683 275 679 208 683 247 b 632 379 683 311 674 357 b 544 396 601 396 546 396 b 406 364 478 396 418 369 l 406 0 l 192 0 "},"Ѓ":{"ha":638,"x_min":0,"x_max":0,"o":"m 621 746 l 315 746 l 315 0 l 101 0 l 101 926 l 621 926 m 583 1185 l 356 1006 l 265 1079 l 451 1285 "},"Є":{"ha":865,"x_min":0,"x_max":0,"o":"m 796 44 b 521 -21 735 8 656 -21 b 190 101 411 -21 293 -4 b 58 465 126 167 58 282 b 192 824 58 649 126 760 b 531 947 296 926 425 947 b 796 881 607 947 692 935 l 796 653 b 700 718 765 679 729 704 b 547 753 650 743 599 753 b 363 692 493 753 422 746 b 288 554 326 660 299 611 l 643 554 l 643 382 l 286 382 b 371 228 296 306 336 256 b 553 174 425 183 492 174 b 701 204 604 174 658 183 b 796 269 731 218 768 244 "},"Ѕ":{"ha":764,"x_min":0,"x_max":0,"o":"m 579 700 b 424 767 510 763 450 767 b 333 735 394 767 358 763 b 310 676 319 721 310 700 b 331 625 310 654 317 638 b 447 572 353 604 385 596 l 517 546 b 643 475 557 531 607 510 b 711 303 697 424 711 357 b 629 74 711 207 678 124 b 367 -21 547 -12 428 -21 b 183 18 300 -21 242 -11 b 47 119 136 42 82 85 l 158 272 b 244 201 182 249 219 217 b 361 168 281 179 318 168 b 458 200 389 168 428 174 b 492 275 476 215 492 240 b 460 342 492 306 479 325 b 351 393 435 363 378 383 l 275 419 b 146 493 232 435 182 454 b 90 654 97 544 90 610 b 171 863 90 736 115 806 b 400 947 236 929 314 947 b 675 856 464 947 567 936 "},"І":{"ha":425,"x_min":0,"x_max":0,"o":"m 319 926 l 319 0 l 106 0 l 106 926 "},"Ї":{"ha":468,"x_min":0,"x_max":0,"o":"m 342 926 l 342 0 l 128 0 l 128 926 m 261 1126 b 358 1236 261 1186 306 1236 b 456 1126 411 1236 456 1186 b 358 1017 456 1067 411 1017 b 261 1126 306 1017 261 1067 m 13 1126 b 110 1236 13 1186 57 1236 b 207 1126 163 1236 207 1186 b 110 1017 207 1067 163 1017 b 13 1126 57 1017 13 1067 "},"Ј":{"ha":576,"x_min":0,"x_max":0,"o":"m 475 926 l 475 296 b 394 49 475 226 471 124 b 199 -21 333 -12 258 -21 b 51 13 149 -21 100 -17 b -36 90 22 31 -12 61 l 97 240 b 131 189 106 224 119 200 b 183 168 146 174 163 168 b 233 188 201 168 218 172 b 261 297 260 214 261 258 l 261 926 "},"Љ":{"ha":1365,"x_min":0,"x_max":0,"o":"m 653 746 l 401 746 l 401 428 b 308 63 401 269 382 138 b 100 -11 269 24 206 -11 b 14 0 68 -11 40 -7 l 14 192 b 67 183 29 186 47 183 b 151 214 103 183 133 196 b 193 408 190 253 193 335 l 193 926 l 867 926 l 867 565 l 997 565 b 1251 488 1076 565 1178 557 b 1329 282 1318 425 1329 343 b 1254 78 1329 221 1318 139 b 990 0 1178 6 1068 0 l 653 0 m 867 172 l 961 172 b 1072 197 999 172 1043 176 b 1113 283 1089 208 1113 235 b 1074 371 1113 342 1081 367 b 963 393 1058 382 1029 393 l 867 393 "},"Њ":{"ha":1397,"x_min":0,"x_max":0,"o":"m 685 393 l 315 393 l 315 0 l 101 0 l 101 926 l 315 926 l 315 574 l 685 574 l 685 926 l 899 926 l 899 565 l 1029 565 b 1283 488 1108 565 1210 557 b 1361 282 1350 425 1361 343 b 1286 78 1361 221 1350 139 b 1022 0 1210 6 1100 0 l 685 0 m 899 172 l 993 172 b 1104 197 1031 172 1075 176 b 1144 283 1121 208 1144 235 b 1106 371 1144 342 1113 367 b 994 393 1090 382 1061 393 l 899 393 "},"Ћ":{"ha":1001,"x_min":0,"x_max":0,"o":"m 192 746 l 11 746 l 11 926 l 711 926 l 711 746 l 406 746 l 406 563 b 590 576 456 569 528 576 b 865 499 685 576 801 560 b 935 310 926 442 935 363 l 935 0 l 721 0 l 721 244 b 688 358 721 279 719 328 b 542 396 664 382 621 396 b 406 385 493 396 453 393 l 406 0 l 192 0 "},"Ќ":{"ha":931,"x_min":0,"x_max":0,"o":"m 315 540 l 632 926 l 893 926 l 518 488 l 922 0 l 647 0 l 315 411 l 315 0 l 101 0 l 101 926 l 315 926 m 674 1185 l 446 1006 l 356 1079 l 542 1285 "},"Ў":{"ha":864,"x_min":0,"x_max":0,"o":"m 244 926 l 439 499 l 625 926 l 856 926 l 432 0 l 201 0 l 336 267 l 6 926 m 704 1169 b 599 1044 681 1114 640 1071 b 428 1006 543 1011 483 1006 b 258 1044 374 1006 314 1011 b 153 1169 217 1071 176 1114 l 300 1232 b 346 1165 310 1207 328 1179 b 431 1142 367 1150 399 1142 b 513 1165 451 1142 485 1144 b 557 1232 533 1182 550 1210 "},"Џ":{"ha":974,"x_min":0,"x_max":0,"o":"m 101 926 l 315 926 l 315 181 l 658 181 l 658 926 l 872 926 l 872 0 l 583 0 l 583 -231 l 392 -231 l 392 0 l 101 0 "},"А":{"ha":940,"x_min":0,"x_max":0,"o":"m 646 175 l 296 175 l 225 0 l 3 0 l 376 926 l 572 926 l 938 0 l 715 0 m 588 339 l 474 650 l 358 339 "},"Б":{"ha":829,"x_min":0,"x_max":0,"o":"m 101 926 l 674 926 l 674 746 l 315 746 l 315 561 l 435 561 b 696 475 515 561 618 551 b 771 282 729 442 771 381 b 696 83 771 203 744 132 b 417 0 628 15 529 0 l 101 0 m 400 172 b 515 201 429 172 482 175 b 551 283 526 211 551 236 b 510 369 551 328 529 356 b 400 394 476 393 422 394 l 315 394 l 315 172 "},"В":{"ha":825,"x_min":0,"x_max":0,"o":"m 385 926 b 621 856 435 926 549 924 b 688 681 681 799 688 721 b 657 563 688 644 682 603 b 579 494 633 524 601 504 b 707 432 624 488 674 465 b 767 267 738 401 767 349 b 694 79 767 174 731 115 b 450 0 618 6 507 0 l 101 0 l 101 926 m 313 550 l 347 550 b 456 576 376 550 425 554 b 493 658 475 590 493 618 b 457 736 493 699 474 724 b 346 760 426 760 385 760 l 313 760 m 313 167 l 364 167 b 522 204 418 167 483 168 b 553 282 542 222 553 249 b 524 357 553 319 538 344 b 371 392 486 392 414 392 l 313 392 "},"Г":{"ha":638,"x_min":0,"x_max":0,"o":"m 621 746 l 315 746 l 315 0 l 101 0 l 101 926 l 621 926 "},"Д":{"ha":974,"x_min":0,"x_max":0,"o":"m 856 926 l 856 178 l 960 178 l 960 -208 l 768 -208 l 768 0 l 200 0 l 200 -208 l 8 -208 l 8 178 b 113 229 68 189 104 221 b 192 535 190 301 192 433 l 192 926 m 397 542 b 379 325 397 478 394 382 b 296 178 368 285 346 229 l 644 178 l 644 749 l 397 749 "},"Е":{"ha":697,"x_min":0,"x_max":0,"o":"m 625 746 l 315 746 l 315 567 l 610 567 l 610 386 l 315 386 l 315 181 l 625 181 l 625 0 l 101 0 l 101 926 l 625 926 "},"Ж":{"ha":1307,"x_min":0,"x_max":0,"o":"m 546 415 l 267 0 l 8 0 l 356 481 l 28 926 l 272 926 l 546 529 l 546 926 l 760 926 l 760 529 l 1033 926 l 1278 926 l 950 481 l 1299 0 l 1040 0 l 760 415 l 760 0 l 546 0 "},"З":{"ha":819,"x_min":0,"x_max":0,"o":"m 83 843 b 210 914 126 878 164 897 b 390 947 268 936 317 947 b 639 863 472 947 568 932 b 710 681 692 811 710 749 b 674 560 710 636 700 597 b 585 492 646 521 613 503 b 699 426 624 481 667 460 b 761 261 725 400 761 346 b 686 75 761 185 731 121 b 407 -21 604 -8 493 -21 b 185 19 331 -21 256 -12 b 42 117 136 40 85 76 l 161 274 b 256 197 186 244 221 215 b 382 168 296 176 340 168 b 489 196 422 168 463 178 b 533 282 514 214 533 243 b 500 356 533 317 517 342 b 324 390 475 375 429 390 l 289 390 l 289 563 l 321 563 b 474 599 388 563 442 569 b 500 661 488 611 500 632 b 463 733 500 692 485 717 b 365 758 439 751 400 758 b 261 735 326 758 290 749 b 178 679 233 722 201 700 "},"И":{"ha":1035,"x_min":0,"x_max":0,"o":"m 315 926 l 315 321 l 744 938 l 933 938 l 933 0 l 719 0 l 719 607 l 290 -11 l 101 -11 l 101 926 "},"Й":{"ha":1035,"x_min":0,"x_max":0,"o":"m 315 926 l 315 321 l 744 938 l 933 938 l 933 0 l 719 0 l 719 607 l 290 -11 l 101 -11 l 101 926 m 793 1169 b 688 1044 769 1114 729 1071 b 517 1006 632 1011 572 1006 b 347 1044 463 1006 403 1011 b 242 1169 306 1071 265 1114 l 389 1232 b 435 1165 399 1207 417 1179 b 519 1142 456 1150 488 1142 b 601 1165 540 1142 574 1144 b 646 1232 622 1182 639 1210 "},"К":{"ha":931,"x_min":0,"x_max":0,"o":"m 315 540 l 632 926 l 893 926 l 518 488 l 922 0 l 647 0 l 315 411 l 315 0 l 101 0 l 101 926 l 315 926 "},"Л":{"ha":968,"x_min":0,"x_max":0,"o":"m 867 926 l 867 0 l 653 0 l 653 746 l 401 746 l 401 428 b 308 63 401 269 382 138 b 100 -11 269 24 206 -11 b 14 0 68 -11 40 -7 l 14 192 b 67 183 29 186 47 183 b 151 214 103 183 133 196 b 193 408 190 253 193 335 l 193 926 "},"М":{"ha":1231,"x_min":0,"x_max":0,"o":"m 58 0 l 207 926 l 385 926 l 615 372 l 846 926 l 1024 926 l 1172 0 l 958 0 l 885 553 l 653 0 l 578 0 l 346 553 l 272 0 "},"Н":{"ha":1000,"x_min":0,"x_max":0,"o":"m 315 574 l 685 574 l 685 926 l 899 926 l 899 0 l 685 0 l 685 393 l 315 393 l 315 0 l 101 0 l 101 926 l 315 926 "},"О":{"ha":1125,"x_min":0,"x_max":0,"o":"m 564 947 b 922 813 708 947 829 903 b 1067 463 1010 728 1067 606 b 922 115 1067 339 1022 213 b 564 -21 836 32 719 -21 b 203 115 390 -21 272 49 b 58 460 114 199 58 324 b 201 811 58 593 118 728 b 564 947 264 874 379 947 m 563 750 b 360 671 482 750 410 721 b 278 461 319 632 278 564 b 363 253 278 376 306 308 b 561 176 422 196 489 176 b 767 256 656 176 722 211 b 847 463 803 290 847 356 b 767 671 847 558 808 629 b 563 750 721 715 647 750 "},"П":{"ha":982,"x_min":0,"x_max":0,"o":"m 881 926 l 881 0 l 667 0 l 667 746 l 315 746 l 315 0 l 101 0 l 101 926 "},"Р":{"ha":794,"x_min":0,"x_max":0,"o":"m 428 926 b 671 850 508 926 597 915 b 761 625 750 781 761 689 b 682 407 761 508 717 443 b 446 325 608 332 511 325 l 315 325 l 315 0 l 101 0 l 101 926 m 315 500 l 392 500 b 507 535 421 500 472 501 b 542 626 526 554 542 586 b 507 717 542 665 528 697 b 388 751 475 747 429 751 l 315 751 "},"С":{"ha":840,"x_min":0,"x_max":0,"o":"m 771 29 b 567 -21 689 -12 622 -21 b 203 114 396 -21 281 38 b 58 465 119 194 58 317 b 203 814 58 611 119 733 b 549 947 285 893 404 947 b 771 896 610 947 681 935 l 771 649 b 554 747 724 699 653 747 b 365 675 476 747 414 722 b 278 461 314 625 278 550 b 358 257 278 365 317 297 b 558 179 378 238 444 179 b 771 275 614 179 689 194 "},"Т":{"ha":639,"x_min":0,"x_max":0,"o":"m 426 746 l 426 0 l 213 0 l 213 746 l 11 746 l 11 926 l 628 926 l 628 746 "},"У":{"ha":864,"x_min":0,"x_max":0,"o":"m 244 926 l 439 499 l 625 926 l 856 926 l 432 0 l 201 0 l 336 267 l 6 926 "},"Ф":{"ha":1183,"x_min":0,"x_max":0,"o":"m 485 129 l 474 129 b 146 244 414 129 244 139 b 58 499 96 299 58 385 b 149 747 58 619 103 699 b 474 864 249 853 414 864 l 485 864 l 485 992 l 699 992 l 699 864 l 710 864 b 1035 747 769 864 935 853 b 1125 499 1081 699 1125 619 b 1038 244 1125 385 1088 299 b 710 129 939 139 769 129 l 699 129 l 699 0 l 485 0 m 485 692 b 322 638 438 692 369 685 b 272 496 300 615 272 571 b 322 356 272 422 297 381 b 485 301 369 308 438 301 l 493 301 l 493 692 m 690 301 l 699 301 b 861 356 746 301 814 308 b 911 496 886 381 911 422 b 861 638 911 571 883 615 b 699 692 814 685 746 692 l 690 692 "},"Х":{"ha":953,"x_min":0,"x_max":0,"o":"m 354 492 l 67 926 l 324 926 l 476 663 l 629 926 l 886 926 l 599 492 l 939 0 l 682 0 l 476 321 l 271 0 l 14 0 "},"Ц":{"ha":1011,"x_min":0,"x_max":0,"o":"m 101 926 l 315 926 l 315 181 l 658 181 l 658 926 l 872 926 l 872 181 l 997 181 l 997 -208 l 806 -208 l 806 0 l 101 0 "},"Ч":{"ha":897,"x_min":0,"x_max":0,"o":"m 582 369 b 425 356 533 361 482 356 b 138 438 342 356 213 367 b 67 642 74 499 67 572 l 67 926 l 281 926 l 281 685 b 321 572 281 657 279 606 b 456 542 349 550 393 542 b 582 553 501 542 538 544 l 582 926 l 796 926 l 796 0 l 582 0 "},"Ш":{"ha":1369,"x_min":0,"x_max":0,"o":"m 101 926 l 315 926 l 315 181 l 578 181 l 578 926 l 792 926 l 792 181 l 1054 181 l 1054 926 l 1268 926 l 1268 0 l 101 0 "},"Щ":{"ha":1407,"x_min":0,"x_max":0,"o":"m 101 0 l 101 926 l 315 926 l 315 181 l 578 181 l 578 926 l 792 926 l 792 181 l 1054 181 l 1054 926 l 1268 926 l 1268 181 l 1393 181 l 1393 -208 l 1201 -208 l 1201 0 "},"Ъ":{"ha":917,"x_min":0,"x_max":0,"o":"m 204 746 l 11 746 l 11 926 l 418 926 l 418 565 l 549 565 b 803 488 628 565 729 557 b 881 283 868 426 881 346 b 806 78 881 221 868 139 b 542 0 729 6 619 0 l 204 0 m 418 172 l 513 172 b 624 197 550 172 594 176 b 664 283 640 208 664 235 b 625 371 664 342 632 367 b 514 393 610 382 581 393 l 418 393 "},"Ы":{"ha":1176,"x_min":0,"x_max":0,"o":"m 1075 926 l 1075 0 l 861 0 l 861 926 m 101 926 l 315 926 l 315 565 l 443 565 b 697 488 522 565 624 557 b 775 282 764 425 775 343 b 700 78 775 221 764 139 b 436 0 624 6 514 0 l 101 0 m 315 172 l 410 172 b 521 197 447 172 492 176 b 561 283 538 208 561 235 b 522 371 561 342 529 367 b 411 393 507 382 478 393 l 315 393 "},"Ь":{"ha":814,"x_min":0,"x_max":0,"o":"m 101 926 l 315 926 l 315 565 l 446 565 b 700 488 525 565 626 557 b 778 282 767 425 778 343 b 703 78 778 221 767 139 b 439 0 626 6 517 0 l 101 0 m 315 172 l 410 172 b 521 197 447 172 492 176 b 561 283 538 208 561 235 b 522 371 561 342 529 367 b 411 393 507 382 478 393 l 315 393 "},"Э":{"ha":865,"x_min":0,"x_max":0,"o":"m 69 269 b 164 204 97 244 135 218 b 313 174 207 183 261 174 b 494 228 374 174 440 183 b 582 382 529 256 569 306 l 222 382 l 222 554 l 581 554 b 503 692 568 617 536 663 b 318 753 443 746 374 753 b 165 718 267 753 215 743 b 69 653 136 704 100 679 l 69 881 b 335 947 174 935 258 947 b 674 824 440 947 569 926 b 807 465 739 760 807 649 b 675 101 807 282 739 167 b 344 -21 572 -4 454 -21 b 69 44 210 -21 131 8 "},"Ю":{"ha":1469,"x_min":0,"x_max":0,"o":"m 439 572 b 569 818 460 681 511 761 b 917 947 675 922 797 947 b 1271 814 1057 947 1174 910 b 1411 469 1336 750 1411 639 b 1271 114 1411 321 1354 196 b 915 -21 1163 6 1028 -21 b 564 117 767 -21 654 25 b 436 392 479 203 444 297 l 315 392 l 315 0 l 101 0 l 101 926 l 315 926 l 315 572 m 919 750 b 729 676 840 750 776 724 b 644 463 682 629 644 556 b 719 260 644 375 676 306 b 922 176 763 214 831 176 b 1104 246 1003 176 1061 206 b 1192 467 1150 289 1192 360 b 1114 674 1192 564 1154 632 b 919 750 1076 713 1015 750 "},"Я":{"ha":836,"x_min":0,"x_max":0,"o":"m 735 0 l 521 0 l 521 338 l 493 338 l 275 0 l 28 0 l 294 363 b 163 428 242 372 194 397 b 85 633 96 490 85 569 b 160 836 85 710 104 778 b 417 926 235 914 332 926 l 735 926 m 521 751 l 471 751 b 344 718 439 751 383 750 b 304 625 329 704 304 675 b 340 536 304 579 324 551 b 471 501 379 501 438 501 l 521 501 "},"а":{"ha":831,"x_min":0,"x_max":0,"o":"m 553 619 l 753 619 l 753 0 l 553 0 l 553 75 b 369 -21 499 -8 421 -21 b 138 74 281 -21 206 1 b 47 306 72 143 47 224 b 143 556 47 410 86 499 b 358 640 197 610 272 640 b 553 550 411 640 496 628 m 408 468 b 299 424 365 468 325 450 b 253 311 278 403 253 367 b 294 200 253 256 276 219 b 413 151 322 171 365 151 b 517 194 453 151 490 168 b 565 311 543 219 565 258 b 519 425 565 356 549 397 b 408 468 489 454 444 468 "},"б":{"ha":835,"x_min":0,"x_max":0,"o":"m 761 1014 b 688 851 756 957 729 892 b 538 776 658 822 611 797 l 468 757 b 300 685 414 742 344 725 b 236 554 268 656 242 610 l 243 554 b 456 639 274 588 333 639 b 696 551 560 639 642 604 b 788 324 749 500 788 419 b 688 75 788 228 753 139 b 424 -21 604 -7 507 -21 b 168 71 333 -21 243 -1 b 58 390 69 168 58 303 b 181 808 58 513 79 700 b 403 918 250 882 335 903 l 440 926 b 571 975 503 940 547 949 b 586 1014 582 988 586 1001 m 422 469 b 311 425 365 469 329 443 b 264 308 282 396 264 353 b 310 196 264 263 283 222 b 425 151 333 172 372 151 b 529 192 468 151 503 168 b 582 314 561 221 582 265 b 536 424 582 356 564 394 b 422 469 499 461 456 469 "},"в":{"ha":697,"x_min":0,"x_max":0,"o":"m 410 619 b 564 579 453 619 518 618 b 614 458 594 553 614 514 b 576 358 614 421 606 388 b 525 325 565 346 549 333 b 615 281 560 318 593 301 b 656 175 647 249 656 210 b 610 56 656 121 636 82 b 456 0 582 28 533 0 l 78 0 l 78 619 m 360 372 b 410 385 371 372 393 374 b 431 431 425 396 431 411 b 413 474 431 453 421 467 b 357 486 400 483 374 486 l 278 486 l 278 372 m 368 133 b 428 150 385 133 410 133 b 447 199 440 161 447 179 b 428 242 447 219 438 233 b 360 258 408 258 378 258 l 278 258 l 278 133 "},"г":{"ha":508,"x_min":0,"x_max":0,"o":"m 78 619 l 494 619 l 494 456 l 278 456 l 278 0 l 78 0 "},"д":{"ha":796,"x_min":0,"x_max":0,"o":"m 693 619 l 693 153 l 785 153 l 785 -175 l 607 -175 l 607 0 l 183 0 l 183 -175 l 6 -175 l 6 153 b 90 192 44 157 72 175 b 144 379 142 239 144 310 l 144 619 m 493 467 l 328 467 l 328 349 b 314 235 328 286 319 253 b 258 153 306 208 288 179 l 493 153 "},"е":{"ha":760,"x_min":0,"x_max":0,"o":"m 528 394 b 488 467 526 400 517 439 b 393 501 465 488 433 501 b 292 461 342 501 311 481 b 257 394 276 444 263 422 m 713 275 l 250 275 b 288 169 250 242 263 197 b 390 131 318 136 360 131 b 471 149 419 131 450 136 b 514 200 474 150 497 165 l 703 181 b 583 25 675 93 619 47 b 388 -21 524 -11 457 -21 b 140 68 294 -21 213 -4 b 47 307 86 122 47 204 b 142 551 47 396 79 488 b 379 640 217 626 310 640 b 625 547 449 640 549 628 b 713 296 699 469 713 372 "},"ж":{"ha":1058,"x_min":0,"x_max":0,"o":"m 626 619 l 626 371 l 803 619 l 1031 619 l 806 329 l 1056 0 l 811 0 l 626 268 l 626 0 l 432 0 l 432 268 l 247 0 l 3 0 l 253 329 l 28 619 l 256 619 l 432 371 l 432 619 "},"з":{"ha":643,"x_min":0,"x_max":0,"o":"m 57 567 b 160 618 83 583 126 606 b 306 640 207 635 258 640 b 515 576 339 640 453 638 b 561 463 550 543 561 504 b 524 357 561 424 554 389 b 471 322 508 342 490 329 b 554 278 517 311 546 286 b 596 175 585 249 596 215 b 542 46 596 132 582 86 b 314 -21 489 -6 417 -21 b 144 7 258 -21 200 -14 b 33 72 90 28 50 58 l 118 204 b 194 154 140 185 169 165 b 290 135 221 143 258 135 b 363 150 313 135 343 139 b 390 197 386 164 390 183 b 361 239 390 218 379 231 b 289 250 344 246 311 250 l 214 250 l 214 386 l 271 386 b 346 397 289 386 326 389 b 375 439 369 408 375 426 b 344 479 375 450 369 468 b 282 490 335 483 315 490 b 200 474 250 490 226 485 b 133 433 174 463 153 450 "},"и":{"ha":806,"x_min":0,"x_max":0,"o":"m 278 619 l 278 265 l 542 619 l 728 619 l 728 0 l 528 0 l 528 360 l 264 0 l 78 0 l 78 619 "},"й":{"ha":806,"x_min":0,"x_max":0,"o":"m 278 619 l 278 265 l 542 619 l 728 619 l 728 0 l 528 0 l 528 360 l 264 0 l 78 0 l 78 619 m 654 869 b 565 751 638 819 604 776 b 403 713 513 717 449 713 b 240 751 357 713 293 717 b 151 869 201 776 168 819 l 290 924 b 326 860 296 896 310 874 b 403 835 344 844 368 835 b 479 860 438 835 461 844 b 515 924 496 874 510 896 "},"к":{"ha":750,"x_min":0,"x_max":0,"o":"m 78 619 l 278 619 l 278 374 l 481 619 l 729 619 l 464 332 l 747 0 l 489 0 l 278 275 l 278 0 l 78 0 "},"л":{"ha":761,"x_min":0,"x_max":0,"o":"m 683 0 l 483 0 l 483 458 l 321 458 l 321 268 b 260 57 321 150 290 92 b 89 -8 207 -1 143 -8 b 11 1 60 -8 38 -6 l 11 160 b 107 178 36 153 82 150 b 132 276 111 183 132 207 l 132 619 l 683 619 "},"м":{"ha":922,"x_min":0,"x_max":0,"o":"m 142 619 l 300 619 l 461 275 l 622 619 l 781 619 l 889 0 l 697 0 l 647 329 l 494 0 l 428 0 l 275 329 l 225 0 l 33 0 "},"н":{"ha":779,"x_min":0,"x_max":0,"o":"m 78 619 l 278 619 l 278 404 l 501 404 l 501 619 l 701 619 l 701 0 l 501 0 l 501 243 l 278 243 l 278 0 l 78 0 "},"о":{"ha":822,"x_min":0,"x_max":0,"o":"m 775 310 b 682 79 775 231 744 142 b 411 -21 626 24 532 -21 b 140 79 290 -21 196 24 b 47 310 78 142 47 231 b 140 540 47 389 78 478 b 411 640 196 596 290 640 b 682 540 532 640 626 596 b 775 310 744 478 775 389 m 411 471 b 299 426 365 471 328 456 b 253 310 269 397 253 360 b 299 193 253 253 275 217 b 413 149 324 168 360 149 b 524 193 457 149 494 164 b 569 310 553 222 569 260 b 524 426 569 360 553 397 b 411 471 494 456 457 471 "},"п":{"ha":771,"x_min":0,"x_max":0,"o":"m 78 619 l 693 619 l 693 0 l 493 0 l 493 458 l 278 458 l 278 0 l 78 0 "},"р":{"ha":831,"x_min":0,"x_max":0,"o":"m 278 -318 l 78 -318 l 78 619 l 278 619 l 278 546 b 471 640 343 631 424 640 b 690 553 582 640 651 592 b 783 311 746 497 783 413 b 685 63 783 204 746 124 b 475 -21 624 1 557 -21 b 278 71 351 -21 299 42 m 422 468 b 311 422 367 468 331 442 b 264 308 279 390 264 346 b 308 199 264 269 279 229 b 422 151 338 169 379 151 b 529 194 460 151 500 167 b 578 313 561 225 578 272 b 531 425 578 358 558 399 b 422 468 501 453 463 468 "},"с":{"ha":599,"x_min":0,"x_max":0,"o":"m 543 424 b 413 471 494 464 444 471 b 299 426 350 471 313 440 b 253 310 272 400 253 360 b 294 199 253 264 269 225 b 415 149 325 165 371 149 b 543 197 450 149 497 158 l 543 17 b 385 -21 490 -12 440 -21 b 144 72 281 -21 201 17 b 47 308 97 118 47 196 b 150 553 47 414 92 497 b 386 640 219 618 301 640 b 543 606 440 640 490 631 "},"т":{"ha":556,"x_min":0,"x_max":0,"o":"m 378 458 l 378 0 l 178 0 l 178 458 l 11 458 l 11 619 l 544 619 l 544 458 "},"у":{"ha":813,"x_min":0,"x_max":0,"o":"m 299 79 l 3 619 l 233 619 l 408 283 l 579 619 l 804 619 l 306 -318 l 81 -318 "},"ф":{"ha":997,"x_min":0,"x_max":0,"o":"m 399 -318 l 399 -10 l 390 -10 b 136 83 250 -10 172 49 b 47 313 92 126 47 200 b 154 554 47 435 103 513 b 389 629 215 603 307 629 l 399 629 l 399 926 l 599 926 l 599 629 l 608 629 b 843 554 690 629 782 603 b 950 313 894 513 950 435 b 861 83 950 200 906 126 b 607 -10 825 49 747 -10 l 599 -10 l 599 -318 m 589 151 b 714 199 640 150 688 169 b 754 313 738 224 754 264 b 714 425 754 361 738 401 b 589 468 685 454 636 471 m 408 468 b 283 425 361 471 313 454 b 243 313 260 401 243 361 b 283 199 243 264 260 224 b 408 151 310 169 357 150 "},"х":{"ha":861,"x_min":0,"x_max":0,"o":"m 306 338 l 60 619 l 315 619 l 431 476 l 546 619 l 801 619 l 556 338 l 858 0 l 600 0 l 431 200 l 261 0 l 3 0 "},"ц":{"ha":799,"x_min":0,"x_max":0,"o":"m 78 619 l 278 619 l 278 161 l 489 161 l 489 619 l 689 619 l 689 161 l 790 161 l 790 -175 l 613 -175 l 613 0 l 78 0 "},"ч":{"ha":719,"x_min":0,"x_max":0,"o":"m 442 208 b 317 193 397 197 361 193 b 113 253 250 193 167 201 b 56 413 58 304 56 371 l 56 619 l 253 619 l 253 440 b 278 372 253 424 254 393 b 358 351 299 354 335 351 b 442 364 389 351 414 354 l 442 619 l 642 619 l 642 0 l 442 0 "},"ш":{"ha":1117,"x_min":0,"x_max":0,"o":"m 78 619 l 278 619 l 278 161 l 458 161 l 458 619 l 658 619 l 658 161 l 839 161 l 839 619 l 1039 619 l 1039 0 l 78 0 "},"щ":{"ha":1149,"x_min":0,"x_max":0,"o":"m 78 0 l 78 619 l 278 619 l 278 161 l 458 161 l 458 619 l 658 619 l 658 161 l 839 161 l 839 619 l 1039 619 l 1039 161 l 1140 161 l 1140 -175 l 963 -175 l 963 0 "},"ъ":{"ha":767,"x_min":0,"x_max":0,"o":"m 513 407 b 683 349 606 407 657 375 b 733 208 728 304 733 246 b 678 54 733 164 726 101 b 504 0 626 4 558 0 l 168 0 l 168 458 l 8 458 l 8 619 l 368 619 l 368 407 m 450 142 b 511 158 465 142 493 142 b 531 206 524 169 531 188 b 511 250 531 231 518 244 b 451 265 493 264 464 265 l 368 265 l 368 142 "},"ы":{"ha":976,"x_min":0,"x_max":0,"o":"m 899 619 l 899 0 l 701 0 l 701 619 m 415 407 b 583 349 504 407 557 375 b 635 207 629 303 635 243 b 579 54 635 164 628 101 b 408 0 528 4 460 0 l 78 0 l 78 619 l 278 619 l 278 407 m 360 142 b 421 158 375 142 403 142 b 440 206 433 169 440 188 b 421 250 440 231 428 244 b 361 265 403 264 374 265 l 278 265 l 278 142 "},"ь":{"ha":676,"x_min":0,"x_max":0,"o":"m 425 407 b 593 349 526 407 576 365 b 643 208 638 304 643 246 b 588 54 643 164 636 101 b 417 0 536 4 468 0 l 78 0 l 78 619 l 278 619 l 278 407 m 360 142 b 421 158 375 142 403 142 b 440 206 433 169 440 188 b 421 250 440 231 428 244 b 361 265 403 264 374 265 l 278 265 l 278 142 "},"э":{"ha":639,"x_min":0,"x_max":0,"o":"m 53 203 b 222 140 110 151 171 140 b 328 165 254 140 296 144 b 383 244 347 178 372 204 l 147 244 l 147 381 l 383 381 b 322 456 371 415 347 440 b 221 479 294 472 256 479 b 53 415 163 479 103 458 l 53 597 b 254 640 133 633 199 640 b 503 551 332 640 426 628 b 592 317 546 507 592 433 b 497 65 592 201 549 117 b 246 -21 417 -15 321 -21 b 53 17 189 -21 132 -17 "},"ю":{"ha":1096,"x_min":0,"x_max":0,"o":"m 356 396 b 431 540 361 426 378 486 b 689 640 481 592 565 640 b 954 542 811 640 900 594 b 1049 311 1008 489 1049 408 b 956 72 1049 218 1015 132 b 696 -21 874 -10 775 -21 b 440 65 610 -21 515 -7 b 353 235 422 82 369 138 l 278 235 l 278 0 l 78 0 l 78 619 l 278 619 l 278 396 m 689 471 b 582 432 639 471 604 453 b 533 308 554 406 533 361 b 576 196 533 263 549 225 b 689 149 608 163 647 149 b 794 189 732 149 765 161 b 843 313 831 224 843 267 b 799 428 843 369 821 406 b 689 471 775 451 738 471 "},"я":{"ha":683,"x_min":0,"x_max":0,"o":"m 203 224 b 96 278 163 231 124 250 b 49 403 57 315 49 357 b 106 556 49 456 61 511 b 310 619 164 613 244 619 l 606 619 l 606 0 l 406 0 l 406 207 l 386 207 l 242 0 l 25 0 m 406 478 l 335 478 b 272 463 318 478 290 476 b 249 406 258 451 249 432 b 268 357 249 379 261 364 b 339 338 289 339 328 338 l 406 338 "},"ё":{"ha":760,"x_min":0,"x_max":0,"o":"m 713 275 l 250 275 b 288 169 250 242 263 197 b 390 131 318 136 360 131 b 471 149 419 131 450 136 b 514 200 474 150 497 165 l 703 181 b 583 25 675 93 619 47 b 388 -21 524 -11 457 -21 b 140 68 294 -21 213 -4 b 47 307 86 122 47 204 b 142 551 47 396 79 488 b 379 640 217 626 310 640 b 625 547 449 640 549 628 b 713 296 699 469 713 372 m 528 394 b 488 467 526 400 517 439 b 393 501 465 488 433 501 b 292 461 342 501 311 481 b 257 394 276 444 263 422 m 122 833 b 231 942 122 894 169 942 b 339 833 292 942 339 894 b 231 725 339 772 292 725 b 122 833 169 725 122 772 m 419 833 b 528 942 419 894 467 942 b 636 833 589 942 636 894 b 528 725 636 772 589 725 b 419 833 467 725 419 772 "},"ђ":{"ha":810,"x_min":0,"x_max":0,"o":"m 97 697 l -14 697 l -14 828 l 97 828 l 97 1013 l 297 1013 l 297 828 l 564 828 l 564 697 l 297 697 l 297 490 b 372 554 322 521 349 542 b 493 581 414 576 449 581 b 668 518 542 581 614 574 b 729 338 725 461 729 385 l 729 -69 b 678 -260 729 -131 725 -210 b 503 -318 654 -285 606 -318 b 392 -304 460 -318 422 -311 l 392 -146 b 443 -154 401 -150 419 -154 b 506 -132 478 -154 496 -142 b 529 -31 529 -108 529 -65 l 529 263 b 496 386 529 306 528 356 b 418 414 478 404 447 414 b 339 383 375 414 350 394 b 297 254 299 344 297 285 l 297 0 l 97 0 "},"ѓ":{"ha":508,"x_min":0,"x_max":0,"o":"m 78 619 l 494 619 l 494 456 l 278 456 l 278 0 l 78 0 m 485 903 l 274 715 l 183 782 l 354 993 "},"є":{"ha":639,"x_min":0,"x_max":0,"o":"m 586 17 b 393 -21 507 -17 450 -21 b 142 65 318 -21 222 -15 b 47 317 90 117 47 201 b 136 551 47 433 93 507 b 385 640 213 628 307 640 b 586 597 440 640 506 633 l 586 415 b 418 479 536 458 476 479 b 317 456 383 479 344 472 b 256 381 292 440 268 415 l 492 381 l 492 244 l 256 244 b 311 165 267 204 292 178 b 417 140 343 144 385 140 b 586 203 468 140 529 151 "},"ѕ":{"ha":603,"x_min":0,"x_max":0,"o":"m 457 461 b 347 496 426 479 386 496 b 290 478 326 496 303 490 b 278 450 283 471 278 460 b 297 422 278 436 288 428 b 357 401 311 414 332 410 l 410 385 b 513 331 444 374 481 360 b 561 213 549 297 561 260 b 497 50 561 131 525 78 b 296 -21 436 -11 361 -21 b 42 68 213 -21 122 -3 l 126 203 b 194 157 146 186 174 167 b 278 138 222 143 251 138 b 340 151 290 138 322 138 b 361 192 353 161 361 176 b 339 228 361 203 357 217 b 278 250 325 236 307 242 l 228 265 b 128 322 192 276 154 296 b 83 435 99 353 83 388 b 143 578 83 494 107 544 b 331 640 199 629 274 640 b 536 588 422 640 486 617 "},"і":{"ha":383,"x_min":0,"x_max":0,"o":"m 292 619 l 292 0 l 92 0 l 92 619 m 75 883 b 192 1000 75 949 126 1000 b 308 883 257 1000 308 949 b 192 767 308 818 257 767 b 75 883 126 767 75 818 "},"ї":{"ha":472,"x_min":0,"x_max":0,"o":"m 335 619 l 335 0 l 135 0 l 135 619 m 353 1000 b 444 890 397 1000 444 963 b 353 781 444 818 397 781 b 261 890 308 781 261 818 b 353 1000 261 963 308 1000 m 119 1000 b 211 890 164 1000 211 963 b 119 781 211 818 164 781 b 28 890 75 781 28 818 b 119 1000 28 963 75 1000 "},"ј":{"ha":383,"x_min":0,"x_max":0,"o":"m 292 619 l 292 -318 l 92 -318 l 92 619 m 75 883 b 192 1000 75 949 126 1000 b 308 883 257 1000 308 949 b 192 767 308 818 257 767 b 75 883 126 767 75 818 "},"љ":{"ha":1082,"x_min":0,"x_max":0,"o":"m 831 407 b 999 349 932 407 982 365 b 1049 208 1043 304 1049 246 b 993 54 1049 164 1042 101 b 822 0 942 4 874 0 l 483 0 l 483 458 l 321 458 l 321 268 b 260 57 321 150 290 92 b 89 -8 207 -1 143 -8 b 11 1 60 -8 38 -6 l 11 160 b 107 178 36 153 82 150 b 132 276 111 183 132 207 l 132 619 l 683 619 l 683 407 m 765 142 b 826 158 781 142 808 142 b 846 206 839 169 846 188 b 826 250 846 231 833 244 b 767 265 808 264 779 265 l 683 265 l 683 142 "},"њ":{"ha":1100,"x_min":0,"x_max":0,"o":"m 849 407 b 1017 349 950 407 1000 365 b 1067 208 1061 304 1067 246 b 1011 54 1067 164 1060 101 b 840 0 960 4 892 0 l 501 0 l 501 265 l 278 265 l 278 0 l 78 0 l 78 619 l 278 619 l 278 407 l 501 407 l 501 619 l 701 619 l 701 407 m 783 142 b 844 158 799 142 826 142 b 864 206 857 169 864 188 b 844 250 864 231 851 244 b 785 265 826 264 797 265 l 701 265 l 701 142 "},"ћ":{"ha":807,"x_min":0,"x_max":0,"o":"m 97 697 l -14 697 l -14 828 l 97 828 l 97 1013 l 297 1013 l 297 828 l 564 828 l 564 697 l 297 697 l 297 490 b 372 554 322 521 349 542 b 493 581 414 576 449 581 b 668 518 542 581 614 574 b 729 338 725 461 729 385 l 729 0 l 529 0 l 529 263 b 496 386 529 306 528 356 b 418 414 478 404 447 414 b 339 383 375 414 350 394 b 297 254 299 344 297 285 l 297 0 l 97 0 "},"ќ":{"ha":750,"x_min":0,"x_max":0,"o":"m 78 619 l 278 619 l 278 374 l 481 619 l 729 619 l 464 332 l 747 0 l 489 0 l 278 275 l 278 0 l 78 0 m 590 903 l 379 715 l 289 782 l 460 993 "},"ў":{"ha":813,"x_min":0,"x_max":0,"o":"m 299 79 l 3 619 l 233 619 l 408 283 l 579 619 l 804 619 l 306 -318 l 81 -318 m 675 869 b 586 751 658 819 625 776 b 424 713 533 717 469 713 b 261 751 378 713 314 717 b 172 869 222 776 189 819 l 311 924 b 347 860 317 896 331 874 b 424 835 365 844 389 835 b 500 860 458 835 482 844 b 536 924 517 874 531 896 "},"џ":{"ha":767,"x_min":0,"x_max":0,"o":"m 78 619 l 278 619 l 278 161 l 489 161 l 489 619 l 689 619 l 689 0 l 472 0 l 472 -189 l 294 -189 l 294 0 l 78 0 "},"Ѣ":{"ha":890,"x_min":0,"x_max":0,"o":"m 178 668 l 11 668 l 11 835 l 178 835 l 178 992 l 392 992 l 392 835 l 622 835 l 622 668 l 392 668 l 392 565 l 522 565 b 776 488 601 565 703 557 b 854 282 843 425 854 343 b 779 78 854 221 843 139 b 515 0 703 6 593 0 l 178 0 m 392 172 l 486 172 b 597 197 524 172 568 176 b 638 283 614 208 638 235 b 599 371 638 342 606 367 b 488 393 583 382 554 393 l 392 393 "},"ѣ":{"ha":740,"x_min":0,"x_max":0,"o":"m 342 399 l 489 399 b 657 340 590 399 640 357 b 707 200 701 296 707 236 b 651 54 707 165 700 101 b 481 0 600 4 532 0 l 142 0 l 142 489 l 8 489 l 8 619 l 142 619 l 142 926 l 342 926 l 342 619 l 556 619 l 556 489 l 342 489 m 424 142 b 485 158 439 142 467 142 b 504 206 497 169 504 188 b 485 250 504 231 492 244 b 425 265 467 264 438 265 l 342 265 l 342 142 "},"Ѳ":{"ha":1125,"x_min":0,"x_max":0,"o":"m 564 947 b 922 813 708 947 829 903 b 1067 463 1010 728 1067 606 b 922 115 1067 339 1022 213 b 564 -21 836 32 719 -21 b 203 115 390 -21 272 49 b 58 460 114 199 58 324 b 201 811 58 593 118 728 b 564 947 264 874 379 947 m 833 554 b 738 699 815 628 772 674 b 561 750 700 726 643 750 b 382 690 504 750 439 736 b 292 554 361 674 315 631 m 289 374 b 381 232 303 324 335 267 b 564 176 421 200 483 176 b 743 229 615 176 683 183 b 835 374 772 251 817 296 "},"ѳ":{"ha":822,"x_min":0,"x_max":0,"o":"m 775 310 b 682 79 775 231 744 142 b 411 -21 626 24 532 -21 b 140 79 290 -21 196 24 b 47 310 78 142 47 231 b 140 540 47 389 78 478 b 411 640 196 596 290 640 b 682 540 532 640 626 596 b 775 310 744 478 775 389 m 560 369 b 510 449 551 397 535 428 b 411 479 478 474 440 479 b 301 439 351 479 319 457 b 263 369 283 421 269 393 m 260 261 b 306 176 261 254 271 208 b 411 140 325 158 358 140 b 511 172 451 140 486 151 b 563 261 538 194 556 231 "},"Ѵ":{"ha":942,"x_min":0,"x_max":0,"o":"m 236 926 l 471 333 l 706 926 l 936 926 l 543 0 l 399 0 l 6 926 "},"ѵ":{"ha":758,"x_min":0,"x_max":0,"o":"m 222 619 l 379 288 l 536 619 l 756 619 l 442 0 l 317 0 l 3 619 "},"Ґ":{"ha":669,"x_min":0,"x_max":0,"o":"m 457 926 l 457 1135 l 649 1135 l 649 747 l 649 746 l 315 746 l 315 0 l 101 0 l 101 926 "},"ґ":{"ha":571,"x_min":0,"x_max":0,"o":"m 78 619 l 372 619 l 372 794 l 550 794 l 550 456 l 278 456 l 278 0 l 78 0 "},"Ғ":{"ha":697,"x_min":0,"x_max":0,"o":"m 656 746 l 350 746 l 350 567 l 575 567 l 575 394 l 350 394 l 350 0 l 136 0 l 136 394 l 0 394 l 0 567 l 136 567 l 136 926 l 656 926 "},"ғ":{"ha":539,"x_min":0,"x_max":0,"o":"m 108 197 l 7 197 l 7 331 l 108 331 l 108 619 l 525 619 l 525 456 l 308 456 l 308 331 l 457 331 l 457 197 l 308 197 l 308 0 l 108 0 "},"Ҕ":{"ha":849,"x_min":0,"x_max":0,"o":"m 649 746 l 315 746 l 315 544 b 478 576 379 569 438 576 b 678 533 494 576 597 576 b 813 282 788 475 813 374 b 700 43 813 149 753 78 b 483 -8 644 7 554 -8 b 404 0 457 -8 429 -4 l 404 169 b 479 161 429 164 454 161 b 557 183 500 161 532 164 b 593 275 589 208 593 247 b 542 379 593 311 583 357 b 454 396 511 396 456 396 b 315 364 388 396 328 369 l 315 0 l 101 0 l 101 926 l 649 926 "},"ҕ":{"ha":672,"x_min":0,"x_max":0,"o":"m 78 619 l 494 619 l 494 456 l 278 456 l 278 331 l 297 331 b 557 247 399 331 489 318 b 631 50 621 182 631 104 b 533 -194 631 -75 579 -151 b 290 -289 469 -254 371 -285 l 290 -133 b 383 -90 336 -129 367 -106 b 431 36 413 -61 431 -21 b 390 144 431 90 411 125 b 285 178 356 176 310 178 l 278 178 l 278 0 l 78 0 "},"Җ":{"ha":1308,"x_min":0,"x_max":0,"o":"m 546 415 l 267 0 l 8 0 l 356 481 l 28 926 l 272 926 l 546 529 l 546 926 l 760 926 l 760 529 l 1033 926 l 1278 926 l 950 481 l 1169 181 l 1294 181 l 1294 -208 l 1103 -208 l 1103 0 l 1040 0 l 760 415 l 760 0 l 546 0 "},"җ":{"ha":1065,"x_min":0,"x_max":0,"o":"m 626 619 l 626 371 l 803 619 l 1031 619 l 806 329 l 928 161 l 1038 161 l 1038 -175 l 860 -175 l 860 0 l 811 0 l 626 268 l 626 0 l 432 0 l 432 268 l 247 0 l 3 0 l 253 329 l 28 619 l 256 619 l 432 371 l 432 619 "},"Ҙ":{"ha":819,"x_min":0,"x_max":0,"o":"m 83 843 b 210 914 126 878 164 897 b 390 947 268 936 317 947 b 639 863 472 947 568 932 b 710 681 692 811 710 749 b 674 560 710 636 700 597 b 585 492 646 521 613 503 b 699 426 624 481 667 460 b 761 264 726 399 761 346 b 686 75 761 210 747 139 b 501 -14 619 4 544 -10 l 501 -231 l 310 -231 l 310 -17 b 42 117 251 -10 150 15 l 161 274 b 256 197 186 244 221 215 b 382 168 296 176 340 168 b 489 196 422 168 463 178 b 533 282 514 214 533 243 b 500 356 533 317 517 342 b 324 390 475 375 429 390 l 289 390 l 289 563 l 321 563 b 474 599 388 563 442 569 b 500 661 488 611 500 632 b 463 733 500 692 485 717 b 365 758 439 751 400 758 b 261 735 326 758 290 749 b 178 679 233 722 201 700 "},"ҙ":{"ha":643,"x_min":0,"x_max":0,"o":"m 57 567 b 160 618 83 583 126 606 b 306 640 207 635 257 640 b 499 589 364 640 444 632 b 561 456 531 564 561 522 b 524 357 561 418 551 386 b 471 322 504 336 482 326 b 554 278 501 315 532 300 b 596 176 581 251 596 219 b 542 46 596 135 583 88 b 410 -14 499 1 451 -11 l 410 -189 l 232 -189 l 232 -15 b 33 72 193 -11 115 3 l 118 204 b 194 154 140 185 169 165 b 290 135 221 143 258 135 b 363 150 313 135 343 139 b 390 197 386 164 390 183 b 361 239 390 218 379 231 b 289 250 344 246 311 250 l 214 250 l 214 386 l 271 386 b 346 397 289 386 326 389 b 375 439 369 408 375 426 b 344 479 375 450 369 468 b 282 490 335 483 315 490 b 200 474 250 490 226 485 b 133 433 174 463 153 450 "},"Қ":{"ha":908,"x_min":0,"x_max":0,"o":"m 315 540 l 632 926 l 893 926 l 518 488 l 769 181 l 894 181 l 894 -208 l 703 -208 l 703 0 l 647 0 l 315 411 l 315 0 l 101 0 l 101 926 l 315 926 "},"қ":{"ha":732,"x_min":0,"x_max":0,"o":"m 78 619 l 278 619 l 278 374 l 481 619 l 729 619 l 464 332 l 610 161 l 719 161 l 719 -175 l 542 -175 l 542 0 l 489 0 l 278 275 l 278 0 l 78 0 "},"Ҝ":{"ha":1071,"x_min":0,"x_max":0,"o":"m 315 926 l 315 557 l 397 557 l 397 765 l 542 765 l 542 557 l 803 926 l 1044 926 l 726 493 l 1063 0 l 807 0 l 542 415 l 542 200 l 397 200 l 397 415 l 315 415 l 315 0 l 101 0 l 101 926 "},"ҝ":{"ha":853,"x_min":0,"x_max":0,"o":"m 278 619 l 278 376 l 344 376 l 344 514 l 458 514 l 458 369 l 622 619 l 842 619 l 626 328 l 850 0 l 622 0 l 458 269 l 458 103 l 344 103 l 344 260 l 278 260 l 278 0 l 78 0 l 78 619 "},"Ҡ":{"ha":1038,"x_min":0,"x_max":0,"o":"m 422 540 l 739 926 l 1000 926 l 625 488 l 1029 0 l 754 0 l 422 411 l 422 0 l 208 0 l 208 746 l 8 746 l 8 926 l 422 926 "},"ҡ":{"ha":833,"x_min":0,"x_max":0,"o":"m 161 456 l 8 456 l 8 619 l 361 619 l 361 374 l 564 619 l 813 619 l 547 332 l 831 0 l 572 0 l 361 275 l 361 0 l 161 0 "},"Ң":{"ha":1038,"x_min":0,"x_max":0,"o":"m 315 574 l 685 574 l 685 926 l 899 926 l 899 181 l 1024 181 l 1024 -208 l 832 -208 l 832 0 l 685 0 l 685 393 l 315 393 l 315 0 l 101 0 l 101 926 l 315 926 "},"ң":{"ha":811,"x_min":0,"x_max":0,"o":"m 78 619 l 278 619 l 278 404 l 501 404 l 501 619 l 701 619 l 701 161 l 803 161 l 803 -175 l 625 -175 l 625 0 l 501 0 l 501 243 l 278 243 l 278 0 l 78 0 "},"Ҥ":{"ha":1200,"x_min":0,"x_max":0,"o":"m 1183 746 l 899 746 l 899 0 l 685 0 l 685 393 l 315 393 l 315 0 l 101 0 l 101 926 l 315 926 l 315 574 l 685 574 l 685 926 l 1183 926 "},"ҥ":{"ha":910,"x_min":0,"x_max":0,"o":"m 501 243 l 278 243 l 278 0 l 78 0 l 78 619 l 278 619 l 278 404 l 501 404 l 501 619 l 899 619 l 899 456 l 701 456 l 701 0 l 501 0 "},"Ҫ":{"ha":840,"x_min":0,"x_max":0,"o":"m 771 29 b 654 -12 733 10 694 -4 l 654 -231 l 463 -231 l 463 -12 b 203 114 344 4 260 58 b 58 465 119 194 58 317 b 203 814 58 611 119 733 b 549 947 285 893 404 947 b 771 896 610 947 681 935 l 771 649 b 554 747 724 699 653 747 b 365 675 476 747 414 722 b 278 461 314 625 278 550 b 358 257 278 365 317 297 b 558 179 378 238 444 179 b 771 275 614 179 689 194 "},"ҫ":{"ha":599,"x_min":0,"x_max":0,"o":"m 543 424 b 413 471 494 464 444 471 b 299 426 350 471 313 440 b 253 310 272 400 253 360 b 294 199 253 264 269 225 b 415 149 325 165 371 149 b 543 197 450 149 497 158 l 543 17 b 474 -11 519 1 497 -7 l 474 -189 l 296 -189 l 296 -10 b 144 72 242 1 192 25 b 47 308 75 142 47 225 b 150 553 47 414 92 497 b 386 640 219 618 301 640 b 543 606 440 640 490 631 "},"Ү":{"ha":878,"x_min":0,"x_max":0,"o":"m 332 432 l 0 926 l 253 926 l 439 639 l 625 926 l 878 926 l 546 432 l 546 0 l 332 0 "},"ү":{"ha":722,"x_min":0,"x_max":0,"o":"m 214 619 l 361 276 l 508 619 l 719 619 l 461 71 l 461 -318 l 261 -318 l 261 69 l 3 619 "},"Ұ":{"ha":878,"x_min":0,"x_max":0,"o":"m 332 249 l 83 249 l 83 415 l 332 415 l 332 432 l 0 926 l 253 926 l 439 639 l 625 926 l 878 926 l 546 432 l 546 415 l 794 415 l 794 249 l 546 249 l 546 0 l 332 0 "},"ұ":{"ha":722,"x_min":0,"x_max":0,"o":"m 214 619 l 361 276 l 508 619 l 719 619 l 461 71 l 461 29 l 656 29 l 656 -110 l 461 -110 l 461 -318 l 261 -318 l 261 -110 l 68 -110 l 68 29 l 261 29 l 261 69 l 3 619 "},"Ҳ":{"ha":950,"x_min":0,"x_max":0,"o":"m 354 492 l 67 926 l 324 926 l 476 663 l 629 926 l 886 926 l 599 492 l 811 181 l 936 181 l 936 -208 l 744 -208 l 744 0 l 682 0 l 476 321 l 271 0 l 14 0 "},"ҳ":{"ha":826,"x_min":0,"x_max":0,"o":"m 306 338 l 60 619 l 315 619 l 431 476 l 546 619 l 801 619 l 556 338 l 714 161 l 824 161 l 824 -175 l 646 -175 l 646 0 l 594 0 l 431 200 l 261 0 l 3 0 "},"Ҷ":{"ha":935,"x_min":0,"x_max":0,"o":"m 281 685 b 321 572 281 657 279 606 b 456 542 349 550 393 542 b 582 553 501 542 538 544 l 582 926 l 796 926 l 796 181 l 921 181 l 921 -208 l 729 -208 l 729 0 l 582 0 l 582 369 b 425 356 533 361 482 356 b 138 438 342 356 213 367 b 67 642 74 499 67 572 l 67 926 l 281 926 "},"ҷ":{"ha":751,"x_min":0,"x_max":0,"o":"m 442 0 l 442 208 b 317 193 397 197 361 193 b 113 253 250 193 167 201 b 56 413 58 304 56 371 l 56 619 l 253 619 l 253 440 b 278 372 253 424 254 393 b 358 351 299 354 335 351 b 442 364 389 351 414 354 l 442 619 l 642 619 l 642 161 l 743 161 l 743 -175 l 565 -175 l 565 0 "},"Ҹ":{"ha":974,"x_min":0,"x_max":0,"o":"m 658 381 b 551 369 622 374 586 369 l 551 174 l 407 174 l 407 367 b 136 453 336 365 213 376 b 67 649 74 515 67 588 l 67 926 l 281 926 l 281 685 b 313 569 281 656 282 601 b 407 536 332 549 368 533 l 407 765 l 551 765 l 551 535 b 658 543 586 533 622 536 l 658 926 l 872 926 l 872 0 l 658 0 "},"ҹ":{"ha":796,"x_min":0,"x_max":0,"o":"m 518 225 b 446 215 496 219 472 217 l 446 93 l 332 93 l 332 207 b 111 269 258 204 164 221 b 56 407 64 313 56 368 l 56 619 l 250 619 l 250 433 b 275 365 250 417 251 385 b 332 347 290 353 314 347 l 332 507 l 446 507 l 446 347 b 518 357 469 347 494 351 l 518 619 l 718 619 l 718 0 l 518 0 "},"Һ":{"ha":911,"x_min":0,"x_max":0,"o":"m 315 572 b 500 586 365 579 438 586 b 775 508 594 586 711 569 b 844 319 836 451 844 372 l 844 0 l 631 0 l 631 254 b 597 368 631 289 629 338 b 451 406 574 392 531 406 b 315 394 403 406 363 403 l 315 0 l 101 0 l 101 926 l 315 926 "},"һ":{"ha":793,"x_min":0,"x_max":0,"o":"m 83 1013 l 283 1013 l 283 546 b 358 610 308 576 335 597 b 479 636 400 632 435 636 b 654 574 528 636 600 629 b 715 393 711 517 715 440 l 715 0 l 515 0 l 515 318 b 482 442 515 361 514 411 b 404 469 464 460 433 469 b 325 439 361 469 336 450 b 283 310 285 400 283 340 l 283 0 l 83 0 "},"Ӏ":{"ha":425,"x_min":0,"x_max":0,"o":"m 319 926 l 319 0 l 106 0 l 106 926 "},"Ӂ":{"ha":1307,"x_min":0,"x_max":0,"o":"m 546 415 l 267 0 l 8 0 l 356 481 l 28 926 l 272 926 l 546 529 l 546 926 l 760 926 l 760 529 l 1033 926 l 1278 926 l 950 481 l 1299 0 l 1040 0 l 760 415 l 760 0 l 546 0 m 929 1169 b 824 1044 906 1114 865 1071 b 653 1006 768 1011 708 1006 b 483 1044 599 1006 539 1011 b 378 1169 442 1071 401 1114 l 525 1232 b 571 1165 535 1207 553 1179 b 656 1142 592 1150 624 1142 b 738 1165 676 1142 710 1144 b 782 1232 758 1182 775 1210 "},"ӂ":{"ha":1058,"x_min":0,"x_max":0,"o":"m 626 619 l 626 371 l 803 619 l 1031 619 l 806 329 l 1056 0 l 811 0 l 626 268 l 626 0 l 432 0 l 432 268 l 247 0 l 3 0 l 253 329 l 28 619 l 256 619 l 432 371 l 432 619 m 781 869 b 692 751 764 819 731 776 b 529 713 639 717 575 713 b 367 751 483 713 419 717 b 278 869 328 776 294 819 l 417 924 b 453 860 422 896 436 874 b 529 835 471 844 494 835 b 606 860 564 835 588 844 b 642 924 622 874 636 896 "},"Ӄ":{"ha":893,"x_min":0,"x_max":0,"o":"m 315 540 l 632 926 l 885 926 l 564 556 b 781 474 643 556 728 526 b 850 286 839 415 850 340 b 775 71 850 201 831 129 b 567 -10 715 8 644 -10 b 439 14 521 -10 482 -3 l 463 178 b 526 160 482 165 501 160 b 607 194 571 160 594 179 b 631 269 624 215 631 246 b 588 369 631 318 610 351 b 460 404 550 400 492 404 b 315 388 415 404 357 396 l 315 0 l 101 0 l 101 926 l 315 926 "},"ӄ":{"ha":710,"x_min":0,"x_max":0,"o":"m 78 619 l 278 619 l 278 374 l 469 619 l 707 619 l 447 313 b 600 236 511 303 565 272 b 667 50 656 179 667 108 b 569 -194 667 -75 617 -151 b 326 -289 506 -254 407 -285 l 326 -133 b 419 -89 347 -132 385 -124 b 467 36 443 -65 467 -25 b 424 151 467 86 450 126 b 313 192 400 175 360 192 l 278 192 l 278 0 l 78 0 "},"Ӈ":{"ha":1000,"x_min":0,"x_max":0,"o":"m 315 574 l 685 574 l 685 926 l 899 926 l 899 -96 b 843 -267 899 -146 896 -217 b 665 -318 794 -314 725 -318 b 549 -304 619 -318 589 -315 l 549 -143 b 601 -154 567 -153 581 -154 b 665 -133 622 -154 647 -153 b 685 -54 685 -112 685 -81 l 685 393 l 315 393 l 315 0 l 101 0 l 101 926 l 315 926 "},"ӈ":{"ha":779,"x_min":0,"x_max":0,"o":"m 78 619 l 278 619 l 278 404 l 501 404 l 501 619 l 701 619 l 701 -69 b 650 -260 701 -131 697 -210 b 475 -318 626 -285 578 -318 b 364 -304 432 -318 394 -311 l 364 -146 b 415 -154 374 -149 392 -154 b 478 -132 450 -154 468 -142 b 501 -31 501 -108 501 -65 l 501 243 l 278 243 l 278 0 l 78 0 "},"Ӑ":{"ha":940,"x_min":0,"x_max":0,"o":"m 646 175 l 296 175 l 225 0 l 3 0 l 376 926 l 572 926 l 938 0 l 715 0 m 588 339 l 474 650 l 358 339 m 746 1169 b 640 1044 722 1114 682 1071 b 469 1006 585 1011 525 1006 b 300 1044 415 1006 356 1011 b 194 1169 258 1071 218 1114 l 342 1232 b 388 1165 351 1207 369 1179 b 472 1142 408 1150 440 1142 b 554 1165 493 1142 526 1144 b 599 1232 575 1182 592 1210 "},"ӑ":{"ha":831,"x_min":0,"x_max":0,"o":"m 553 619 l 753 619 l 753 0 l 553 0 l 553 75 b 369 -21 499 -8 421 -21 b 138 74 281 -21 206 1 b 47 306 72 143 47 224 b 143 556 47 410 86 499 b 358 640 197 610 272 640 b 553 550 411 640 496 628 m 408 468 b 299 424 365 468 325 450 b 253 311 278 403 253 367 b 294 200 253 256 276 219 b 413 151 322 171 365 151 b 517 194 453 151 490 168 b 565 311 543 219 565 258 b 519 425 565 356 549 397 b 408 468 489 454 444 468 m 667 869 b 578 751 650 819 617 776 b 415 713 525 717 461 713 b 253 751 369 713 306 717 b 164 869 214 776 181 819 l 303 924 b 339 860 308 896 322 874 b 415 835 357 844 381 835 b 492 860 450 835 474 844 b 528 924 508 874 522 896 "},"Ӓ":{"ha":940,"x_min":0,"x_max":0,"o":"m 646 175 l 296 175 l 225 0 l 3 0 l 376 926 l 572 926 l 938 0 l 715 0 m 588 339 l 474 650 l 358 339 m 208 1126 b 318 1236 208 1186 258 1236 b 428 1126 378 1236 428 1186 b 318 1017 428 1067 378 1017 b 208 1126 258 1017 208 1067 m 511 1126 b 621 1236 511 1186 561 1236 b 731 1126 681 1236 731 1186 b 621 1017 731 1067 681 1017 b 511 1126 561 1017 511 1067 "},"ӓ":{"ha":831,"x_min":0,"x_max":0,"o":"m 553 619 l 753 619 l 753 0 l 553 0 l 553 75 b 369 -21 499 -8 421 -21 b 138 74 281 -21 206 1 b 47 306 72 143 47 224 b 143 556 47 410 86 499 b 358 640 197 610 272 640 b 553 550 411 640 496 628 m 408 468 b 299 424 365 468 325 450 b 253 311 278 403 253 367 b 294 200 253 256 276 219 b 413 151 322 171 365 151 b 517 194 453 151 490 168 b 565 311 543 219 565 258 b 519 425 565 356 549 397 b 408 468 489 454 444 468 m 457 832 b 567 942 457 892 507 942 b 676 832 626 942 676 892 b 567 722 676 772 626 722 b 457 832 507 722 457 772 m 154 832 b 264 942 154 892 204 942 b 374 832 324 942 374 892 b 264 722 374 772 324 722 b 154 832 204 722 154 772 "},"Ӕ":{"ha":1278,"x_min":0,"x_max":0,"o":"m 654 179 l 300 179 l 231 0 l 8 0 l 388 926 l 914 926 l 981 746 l 658 746 l 729 567 l 1049 567 l 1118 386 l 797 386 l 879 181 l 1201 181 l 1269 0 l 725 0 m 596 343 l 482 647 l 363 343 "},"ӕ":{"ha":1167,"x_min":0,"x_max":0,"o":"m 1113 188 b 992 26 1081 90 1015 42 b 803 -21 932 -12 868 -21 b 651 7 775 -21 701 -18 b 563 81 619 22 585 54 b 458 1 533 42 500 18 b 310 -21 408 -18 364 -21 b 101 47 242 -21 161 -12 b 47 186 68 81 47 126 b 99 315 47 233 60 276 b 317 388 140 357 211 388 b 463 350 386 388 428 371 l 463 363 b 426 454 463 397 447 433 b 306 493 403 478 360 493 b 146 463 261 493 200 481 l 146 615 b 328 640 210 633 272 640 b 557 533 461 640 521 593 b 794 640 626 624 731 640 b 1036 546 906 640 986 600 b 1119 294 1113 463 1119 351 l 1119 275 l 667 275 b 708 168 668 233 685 193 b 810 129 736 138 772 129 b 881 146 828 129 856 131 b 925 200 894 154 914 171 m 343 265 b 251 233 304 265 271 254 b 233 190 240 222 233 208 b 251 147 233 175 239 161 b 342 115 272 126 308 115 b 439 147 371 115 415 124 b 457 190 447 156 457 169 b 439 233 457 206 451 219 b 343 265 415 257 375 265 m 932 394 b 892 469 926 424 911 451 b 803 501 863 496 826 501 b 717 472 772 501 742 496 b 672 394 694 453 679 421 "},"Ӗ":{"ha":697,"x_min":0,"x_max":0,"o":"m 625 746 l 315 746 l 315 567 l 610 567 l 610 386 l 315 386 l 315 181 l 625 181 l 625 0 l 101 0 l 101 926 l 625 926 m 632 1169 b 526 1044 608 1114 568 1071 b 356 1006 471 1011 411 1006 b 186 1044 301 1006 242 1011 b 81 1169 144 1071 104 1114 l 228 1232 b 274 1165 238 1207 256 1179 b 358 1142 294 1150 326 1142 b 440 1165 379 1142 413 1144 b 485 1232 461 1182 478 1210 "},"ӗ":{"ha":760,"x_min":0,"x_max":0,"o":"m 528 394 b 488 467 526 400 517 439 b 393 501 465 488 433 501 b 292 461 342 501 311 481 b 257 394 276 444 263 422 m 713 275 l 250 275 b 288 169 250 242 263 197 b 390 131 318 136 360 131 b 471 149 419 131 450 136 b 514 200 474 150 497 165 l 703 181 b 583 25 675 93 619 47 b 388 -21 524 -11 457 -21 b 140 68 294 -21 213 -4 b 47 307 86 122 47 204 b 142 551 47 396 79 488 b 379 640 217 626 310 640 b 625 547 449 640 549 628 b 713 296 699 469 713 372 m 631 869 b 542 751 614 819 581 776 b 379 713 489 717 425 713 b 217 751 333 713 269 717 b 128 869 178 776 144 819 l 267 924 b 303 860 272 896 286 874 b 379 835 321 844 344 835 b 456 860 414 835 438 844 b 492 924 472 874 486 896 "},"Ә":{"ha":1063,"x_min":0,"x_max":0,"o":"m 781 521 b 708 681 779 535 768 619 b 522 750 654 736 585 750 b 383 718 479 750 431 744 b 292 628 350 700 317 669 l 94 704 b 254 874 110 731 161 815 b 540 947 326 919 426 947 b 869 822 629 947 761 929 b 1004 468 982 713 1004 574 b 863 100 1004 351 978 213 b 531 -21 760 0 650 -21 b 215 97 401 -21 307 6 b 58 515 97 217 58 396 l 58 521 m 296 371 b 357 236 301 326 322 272 b 533 171 386 206 439 171 b 703 229 583 171 647 179 b 776 371 735 258 767 307 "},"ә":{"ha":760,"x_min":0,"x_max":0,"o":"m 232 233 b 272 157 238 203 253 175 b 368 122 293 138 324 122 b 468 163 396 122 435 128 b 503 233 482 178 497 201 m 47 349 l 508 349 b 472 449 508 388 493 425 b 372 489 442 483 401 489 b 289 471 347 489 313 486 b 246 419 286 469 263 454 l 57 439 b 176 594 85 526 140 572 b 374 640 243 636 319 640 b 619 551 465 640 547 624 b 713 315 674 496 713 415 b 618 68 713 222 681 131 b 378 -21 546 -4 457 -21 b 135 72 288 -21 201 1 b 47 324 61 150 47 247 "},"Ӛ":{"ha":1063,"x_min":0,"x_max":0,"o":"m 781 521 b 708 681 779 535 768 619 b 522 750 654 736 585 750 b 383 718 479 750 431 744 b 292 628 350 700 317 669 l 94 704 b 254 874 110 731 161 815 b 540 947 326 919 426 947 b 869 822 629 947 761 929 b 1004 468 982 713 1004 574 b 863 100 1004 351 978 213 b 531 -21 760 0 650 -21 b 215 97 401 -21 307 6 b 58 515 97 217 58 396 l 58 521 m 296 371 b 357 236 301 326 322 272 b 533 171 386 206 439 171 b 703 229 583 171 647 179 b 776 371 735 258 767 307 m 269 1126 b 379 1236 269 1186 319 1236 b 489 1126 439 1236 489 1186 b 379 1017 489 1067 439 1017 b 269 1126 319 1017 269 1067 m 572 1126 b 682 1236 572 1186 622 1236 b 792 1126 742 1236 792 1186 b 682 1017 792 1067 742 1017 b 572 1126 622 1017 572 1067 "},"ӛ":{"ha":760,"x_min":0,"x_max":0,"o":"m 232 233 b 272 157 238 203 253 175 b 368 122 293 138 324 122 b 468 163 396 122 435 128 b 503 233 482 178 497 201 m 47 349 l 508 349 b 472 449 508 388 493 425 b 372 489 442 483 401 489 b 289 471 347 489 313 486 b 246 419 286 469 263 454 l 57 439 b 176 594 85 526 140 572 b 374 640 243 636 319 640 b 619 551 465 640 547 624 b 713 315 674 496 713 415 b 618 68 713 222 681 131 b 378 -21 546 -4 457 -21 b 135 72 288 -21 201 1 b 47 324 61 150 47 247 m 421 832 b 531 942 421 892 471 942 b 640 832 590 942 640 892 b 531 722 640 772 590 722 b 421 832 471 722 421 772 m 118 832 b 228 942 118 892 168 942 b 338 832 288 942 338 892 b 228 722 338 772 288 722 b 118 832 168 722 118 772 "},"Ӝ":{"ha":1307,"x_min":0,"x_max":0,"o":"m 546 415 l 267 0 l 8 0 l 356 481 l 28 926 l 272 926 l 546 529 l 546 926 l 760 926 l 760 529 l 1033 926 l 1278 926 l 950 481 l 1299 0 l 1040 0 l 760 415 l 760 0 l 546 0 m 392 1126 b 501 1236 392 1186 442 1236 b 611 1126 561 1236 611 1186 b 501 1017 611 1067 561 1017 b 392 1126 442 1017 392 1067 m 694 1126 b 804 1236 694 1186 744 1236 b 914 1126 864 1236 914 1186 b 804 1017 914 1067 864 1017 b 694 1126 744 1017 694 1067 "},"ӝ":{"ha":1058,"x_min":0,"x_max":0,"o":"m 626 619 l 626 371 l 803 619 l 1031 619 l 806 329 l 1056 0 l 811 0 l 626 268 l 626 0 l 432 0 l 432 268 l 247 0 l 3 0 l 253 329 l 28 619 l 256 619 l 432 371 l 432 619 m 571 832 b 681 942 571 892 621 942 b 790 832 740 942 790 892 b 681 722 790 772 740 722 b 571 832 621 722 571 772 m 268 832 b 378 942 268 892 318 942 b 488 832 438 942 488 892 b 378 722 488 772 438 722 b 268 832 318 722 268 772 "},"Ӟ":{"ha":819,"x_min":0,"x_max":0,"o":"m 83 843 b 210 914 126 878 164 897 b 390 947 268 936 317 947 b 639 863 472 947 568 932 b 710 681 692 811 710 749 b 674 560 710 636 700 597 b 585 492 646 521 613 503 b 699 426 624 481 667 460 b 761 261 725 400 761 346 b 686 75 761 185 731 121 b 407 -21 604 -8 493 -21 b 185 19 331 -21 256 -12 b 42 117 136 40 85 76 l 161 274 b 256 197 186 244 221 215 b 382 168 296 176 340 168 b 489 196 422 168 463 178 b 533 282 514 214 533 243 b 500 356 533 317 517 342 b 324 390 475 375 429 390 l 289 390 l 289 563 l 321 563 b 474 599 388 563 442 569 b 500 661 488 611 500 632 b 463 733 500 692 485 717 b 365 758 439 751 400 758 b 261 735 326 758 290 749 b 178 679 233 722 201 700 m 128 1126 b 238 1236 128 1186 178 1236 b 347 1126 297 1236 347 1186 b 238 1017 347 1067 297 1017 b 128 1126 178 1017 128 1067 m 431 1126 b 540 1236 431 1186 481 1236 b 650 1126 600 1236 650 1186 b 540 1017 650 1067 600 1017 b 431 1126 481 1017 431 1067 "},"ӟ":{"ha":643,"x_min":0,"x_max":0,"o":"m 57 567 b 160 618 83 583 126 606 b 306 640 207 635 258 640 b 515 576 339 640 453 638 b 561 463 550 543 561 504 b 524 357 561 424 554 389 b 471 322 508 342 490 329 b 554 278 517 311 546 286 b 596 175 585 249 596 215 b 542 46 596 132 582 86 b 314 -21 489 -6 417 -21 b 144 7 258 -21 200 -14 b 33 72 90 28 50 58 l 118 204 b 194 154 140 185 169 165 b 290 135 221 143 258 135 b 363 150 313 135 343 139 b 390 197 386 164 390 183 b 361 239 390 218 379 231 b 289 250 344 246 311 250 l 214 250 l 214 386 l 271 386 b 346 397 289 386 326 389 b 375 439 369 408 375 426 b 344 479 375 450 369 468 b 282 490 335 483 315 490 b 200 474 250 490 226 485 b 133 433 174 463 153 450 m 353 832 b 463 942 353 892 403 942 b 572 832 522 942 572 892 b 463 722 572 772 522 722 b 353 832 403 722 353 772 m 50 832 b 160 942 50 892 100 942 b 269 832 219 942 269 892 b 160 722 269 772 219 722 b 50 832 100 722 50 772 "},"Ӣ":{"ha":1035,"x_min":0,"x_max":0,"o":"m 315 926 l 315 321 l 744 938 l 933 938 l 933 0 l 719 0 l 719 607 l 290 -11 l 101 -11 l 101 926 m 242 1174 l 781 1174 l 781 1046 l 242 1046 "},"ӣ":{"ha":806,"x_min":0,"x_max":0,"o":"m 278 619 l 278 265 l 542 619 l 728 619 l 728 0 l 528 0 l 528 360 l 264 0 l 78 0 l 78 619 m 139 879 l 667 879 l 667 754 l 139 754 "},"Ӥ":{"ha":1035,"x_min":0,"x_max":0,"o":"m 315 926 l 315 321 l 744 938 l 933 938 l 933 0 l 719 0 l 719 607 l 290 -11 l 101 -11 l 101 926 m 261 1126 b 371 1236 261 1186 311 1236 b 481 1126 431 1236 481 1186 b 371 1017 481 1067 431 1017 b 261 1126 311 1017 261 1067 m 564 1126 b 674 1236 564 1186 614 1236 b 783 1126 733 1236 783 1186 b 674 1017 783 1067 733 1017 b 564 1126 614 1017 564 1067 "},"ӥ":{"ha":806,"x_min":0,"x_max":0,"o":"m 278 619 l 278 265 l 542 619 l 728 619 l 728 0 l 528 0 l 528 360 l 264 0 l 78 0 l 78 619 m 444 832 b 554 942 444 892 494 942 b 664 832 614 942 664 892 b 554 722 664 772 614 722 b 444 832 494 722 444 772 m 142 832 b 251 942 142 892 192 942 b 361 832 311 942 361 892 b 251 722 361 772 311 722 b 142 832 192 722 142 772 "},"Ӧ":{"ha":1125,"x_min":0,"x_max":0,"o":"m 564 947 b 922 813 708 947 829 903 b 1067 463 1010 728 1067 606 b 922 115 1067 339 1022 213 b 564 -21 836 32 719 -21 b 203 115 390 -21 272 49 b 58 460 114 199 58 324 b 201 811 58 593 118 728 b 564 947 264 874 379 947 m 563 750 b 360 671 482 750 410 721 b 278 461 319 632 278 564 b 363 253 278 376 306 308 b 561 176 422 196 489 176 b 767 256 656 176 722 211 b 847 463 803 290 847 356 b 767 671 847 558 808 629 b 563 750 721 715 647 750 m 301 1126 b 411 1236 301 1186 351 1236 b 521 1126 471 1236 521 1186 b 411 1017 521 1067 471 1017 b 301 1126 351 1017 301 1067 m 604 1126 b 714 1236 604 1186 654 1236 b 824 1126 774 1236 824 1186 b 714 1017 824 1067 774 1017 b 604 1126 654 1017 604 1067 "},"ӧ":{"ha":822,"x_min":0,"x_max":0,"o":"m 775 310 b 682 79 775 231 744 142 b 411 -21 626 24 532 -21 b 140 79 290 -21 196 24 b 47 310 78 142 47 231 b 140 540 47 389 78 478 b 411 640 196 596 290 640 b 682 540 532 640 626 596 b 775 310 744 478 775 389 m 411 471 b 299 426 365 471 328 456 b 253 310 269 397 253 360 b 299 193 253 253 275 217 b 413 149 324 168 360 149 b 524 193 457 149 494 164 b 569 310 553 222 569 260 b 524 426 569 360 553 397 b 411 471 494 456 457 471 m 453 832 b 563 942 453 892 503 942 b 672 832 622 942 672 892 b 563 722 672 772 622 722 b 453 832 503 722 453 772 m 150 832 b 260 942 150 892 200 942 b 369 832 319 942 369 892 b 260 722 369 772 319 722 b 150 832 200 722 150 772 "},"Ө":{"ha":1125,"x_min":0,"x_max":0,"o":"m 564 947 b 922 813 708 947 829 903 b 1067 463 1010 728 1067 606 b 922 115 1067 339 1022 213 b 564 -21 836 32 719 -21 b 203 115 390 -21 272 49 b 58 460 114 199 58 324 b 201 811 58 593 118 728 b 564 947 264 874 379 947 m 833 554 b 738 699 815 628 772 674 b 561 750 700 726 643 750 b 382 690 504 750 439 736 b 292 554 361 674 315 631 m 289 374 b 381 232 303 324 335 267 b 564 176 421 200 483 176 b 743 229 615 176 683 183 b 835 374 772 251 817 296 "},"ө":{"ha":822,"x_min":0,"x_max":0,"o":"m 775 310 b 682 79 775 231 744 142 b 411 -21 626 24 532 -21 b 140 79 290 -21 196 24 b 47 310 78 142 47 231 b 140 540 47 389 78 478 b 411 640 196 596 290 640 b 682 540 532 640 626 596 b 775 310 744 478 775 389 m 560 369 b 510 449 551 397 535 428 b 411 479 478 474 440 479 b 301 439 351 479 319 457 b 263 369 283 421 269 393 m 260 261 b 306 176 261 254 271 208 b 411 140 325 158 358 140 b 511 172 451 140 486 151 b 563 261 538 194 556 231 "},"Ӫ":{"ha":1125,"x_min":0,"x_max":0,"o":"m 564 947 b 922 813 708 947 829 903 b 1067 463 1010 728 1067 606 b 922 115 1067 339 1022 213 b 564 -21 836 32 719 -21 b 203 115 390 -21 272 49 b 58 460 114 199 58 324 b 201 811 58 593 118 728 b 564 947 264 874 379 947 m 833 554 b 738 699 815 628 772 674 b 561 750 700 726 643 750 b 382 690 504 750 439 736 b 292 554 361 674 315 631 m 289 374 b 381 232 303 324 335 267 b 564 176 421 200 483 176 b 743 229 615 176 683 183 b 835 374 772 251 817 296 m 301 1126 b 411 1236 301 1186 351 1236 b 521 1126 471 1236 521 1186 b 411 1017 521 1067 471 1017 b 301 1126 351 1017 301 1067 m 604 1126 b 714 1236 604 1186 654 1236 b 824 1126 774 1236 824 1186 b 714 1017 824 1067 774 1017 b 604 1126 654 1017 604 1067 "},"ӫ":{"ha":822,"x_min":0,"x_max":0,"o":"m 775 310 b 682 79 775 231 744 142 b 411 -21 626 24 532 -21 b 140 79 290 -21 196 24 b 47 310 78 142 47 231 b 140 540 47 389 78 478 b 411 640 196 596 290 640 b 682 540 532 640 626 596 b 775 310 744 478 775 389 m 560 369 b 510 449 551 397 535 428 b 411 479 478 474 440 479 b 301 439 351 479 319 457 b 263 369 283 421 269 393 m 260 261 b 306 176 261 254 271 208 b 411 140 325 158 358 140 b 511 172 451 140 486 151 b 563 261 538 194 556 231 m 453 832 b 563 942 453 892 503 942 b 672 832 622 942 672 892 b 563 722 672 772 622 722 b 453 832 503 722 453 772 m 150 832 b 260 942 150 892 200 942 b 369 832 319 942 369 892 b 260 722 369 772 319 722 b 150 832 200 722 150 772 "},"Ӯ":{"ha":864,"x_min":0,"x_max":0,"o":"m 244 926 l 439 499 l 625 926 l 856 926 l 432 0 l 201 0 l 336 267 l 6 926 m 157 1174 l 696 1174 l 696 1046 l 157 1046 "},"ӯ":{"ha":813,"x_min":0,"x_max":0,"o":"m 299 79 l 3 619 l 233 619 l 408 283 l 579 619 l 804 619 l 306 -318 l 81 -318 m 131 879 l 658 879 l 658 754 l 131 754 "},"Ӱ":{"ha":864,"x_min":0,"x_max":0,"o":"m 244 926 l 439 499 l 625 926 l 856 926 l 432 0 l 201 0 l 336 267 l 6 926 m 171 1126 b 281 1236 171 1186 221 1236 b 390 1126 340 1236 390 1186 b 281 1017 390 1067 340 1017 b 171 1126 221 1017 171 1067 m 474 1126 b 583 1236 474 1186 524 1236 b 693 1126 643 1236 693 1186 b 583 1017 693 1067 643 1017 b 474 1126 524 1017 474 1067 "},"ӱ":{"ha":813,"x_min":0,"x_max":0,"o":"m 299 79 l 3 619 l 233 619 l 408 283 l 579 619 l 804 619 l 306 -318 l 81 -318 m 447 832 b 557 942 447 892 497 942 b 667 832 617 942 667 892 b 557 722 667 772 617 722 b 447 832 497 722 447 772 m 144 832 b 254 942 144 892 194 942 b 364 832 314 942 364 892 b 254 722 364 772 314 722 b 144 832 194 722 144 772 "},"Ӳ":{"ha":864,"x_min":0,"x_max":0,"o":"m 244 926 l 439 499 l 625 926 l 856 926 l 432 0 l 201 0 l 336 267 l 6 926 m 503 1193 l 308 1006 l 232 1072 l 383 1285 m 763 1193 l 568 1006 l 490 1072 l 642 1285 "},"ӳ":{"ha":813,"x_min":0,"x_max":0,"o":"m 299 79 l 3 619 l 233 619 l 408 283 l 579 619 l 804 619 l 306 -318 l 81 -318 m 453 894 l 267 707 l 194 774 l 339 986 m 704 894 l 518 707 l 444 774 l 589 985 "},"Ӵ":{"ha":897,"x_min":0,"x_max":0,"o":"m 582 369 b 425 356 533 361 482 356 b 138 438 342 356 213 367 b 67 642 74 499 67 572 l 67 926 l 281 926 l 281 685 b 321 572 281 657 279 606 b 456 542 349 550 393 542 b 582 553 501 542 538 544 l 582 926 l 796 926 l 796 0 l 582 0 m 188 1126 b 297 1236 188 1186 238 1236 b 407 1126 357 1236 407 1186 b 297 1017 407 1067 357 1017 b 188 1126 238 1017 188 1067 m 490 1126 b 600 1236 490 1186 540 1236 b 710 1126 660 1236 710 1186 b 600 1017 710 1067 660 1017 b 490 1126 540 1017 490 1067 "},"ӵ":{"ha":719,"x_min":0,"x_max":0,"o":"m 442 208 b 317 193 397 197 361 193 b 113 253 250 193 167 201 b 56 413 58 304 56 371 l 56 619 l 253 619 l 253 440 b 278 372 253 424 254 393 b 358 351 299 354 335 351 b 442 364 389 351 414 354 l 442 619 l 642 619 l 642 0 l 442 0 m 401 832 b 511 942 401 892 451 942 b 621 832 571 942 621 892 b 511 722 621 772 571 722 b 401 832 451 722 401 772 m 99 832 b 208 942 99 892 149 942 b 318 832 268 942 318 892 b 208 722 318 772 268 722 b 99 832 149 722 99 772 "},"Ӹ":{"ha":1176,"x_min":0,"x_max":0,"o":"m 1075 926 l 1075 0 l 861 0 l 861 926 m 101 926 l 315 926 l 315 565 l 443 565 b 697 488 522 565 624 557 b 775 282 764 425 775 343 b 700 78 775 221 764 139 b 436 0 624 6 514 0 l 101 0 m 315 172 l 410 172 b 521 197 447 172 492 176 b 561 283 538 208 561 235 b 522 371 561 342 529 367 b 411 393 507 382 478 393 l 315 393 m 321 1126 b 431 1236 321 1186 371 1236 b 540 1126 490 1236 540 1186 b 431 1017 540 1067 490 1017 b 321 1126 371 1017 321 1067 m 624 1126 b 733 1236 624 1186 674 1236 b 843 1126 793 1236 843 1186 b 733 1017 843 1067 793 1017 b 624 1126 674 1017 624 1067 "},"ӹ":{"ha":976,"x_min":0,"x_max":0,"o":"m 899 619 l 899 0 l 701 0 l 701 619 m 415 407 b 583 349 504 407 557 375 b 635 207 629 303 635 243 b 579 54 635 164 628 101 b 408 0 528 4 460 0 l 78 0 l 78 619 l 278 619 l 278 407 m 360 142 b 421 158 375 142 403 142 b 440 206 433 169 440 188 b 421 250 440 231 428 244 b 361 265 403 264 374 265 l 278 265 l 278 142 m 513 832 b 622 942 513 892 563 942 b 732 832 682 942 732 892 b 622 722 732 772 682 722 b 513 832 563 722 513 772 m 210 832 b 319 942 210 892 260 942 b 429 832 379 942 429 892 b 319 722 429 772 379 722 b 210 832 260 722 210 772 "},"ẞ":{"ha":825,"x_min":0,"x_max":0,"o":"m 101 0 l 101 639 b 193 871 101 729 128 808 b 403 947 263 938 353 947 b 606 893 485 947 553 932 b 713 675 664 850 708 785 l 581 519 b 718 428 638 500 683 471 b 767 272 754 382 767 335 b 660 58 767 181 717 103 b 400 -19 601 13 521 -12 l 400 147 b 508 181 431 150 481 158 b 553 285 535 201 553 235 b 504 379 553 329 533 358 b 400 413 475 400 438 410 l 400 540 l 501 679 b 476 754 501 707 494 735 b 407 781 463 769 435 781 b 338 750 376 781 353 769 b 313 667 322 731 313 704 l 313 0 "},"‐":{"ha":494,"x_min":0,"x_max":0,"o":"m 69 439 l 425 439 l 425 264 l 69 264 "},"‑":{"ha":494,"x_min":0,"x_max":0,"o":"m 69 439 l 425 439 l 425 264 l 69 264 "},"‒":{"ha":833,"x_min":0,"x_max":0,"o":"m 96 556 l 738 556 l 738 392 l 96 392 "},"–":{"ha":843,"x_min":0,"x_max":0,"o":"m 97 433 l 746 433 l 746 269 l 97 269 "},"—":{"ha":1214,"x_min":0,"x_max":0,"o":"m 97 433 l 1117 433 l 1117 269 l 97 269 "},"‘":{"ha":454,"x_min":0,"x_max":0,"o":"m 240 535 l 58 544 l 268 932 l 393 926 "},"’":{"ha":456,"x_min":0,"x_max":0,"o":"m 214 936 l 397 926 l 186 539 l 61 544 "},"‚":{"ha":547,"x_min":0,"x_max":0,"o":"m 211 214 l 394 204 l 183 -183 l 58 -178 "},"“":{"ha":743,"x_min":0,"x_max":0,"o":"m 528 535 l 346 544 l 557 932 l 682 926 m 240 535 l 58 544 l 268 932 l 393 926 "},"”":{"ha":743,"x_min":0,"x_max":0,"o":"m 214 936 l 397 926 l 186 539 l 61 544 m 503 936 l 685 926 l 474 539 l 349 544 "},"„":{"ha":851,"x_min":0,"x_max":0,"o":"m 225 214 l 408 204 l 197 -183 l 72 -178 m 514 214 l 696 204 l 485 -183 l 360 -178 "},"†":{"ha":808,"x_min":0,"x_max":0,"o":"m 313 1013 l 496 1013 l 496 732 l 714 732 l 714 571 l 496 571 l 496 -256 l 313 -256 l 313 571 l 94 571 l 94 732 l 313 732 "},"‡":{"ha":807,"x_min":0,"x_max":0,"o":"m 313 1013 l 494 1013 l 494 732 l 713 732 l 713 571 l 494 571 l 494 253 l 713 253 l 713 93 l 494 93 l 494 -256 l 313 -256 l 313 93 l 94 93 l 94 253 l 313 253 l 313 571 l 94 571 l 94 732 l 313 732 "},"•":{"ha":1389,"x_min":0,"x_max":0,"o":"m 500 472 b 694 667 500 579 588 667 b 889 472 801 667 889 579 b 694 278 889 365 801 278 b 500 472 588 278 500 365 "},"…":{"ha":1242,"x_min":0,"x_max":0,"o":"m 88 106 b 214 232 88 176 143 232 b 340 106 285 232 340 176 b 214 -21 340 35 285 -21 b 88 106 143 -21 88 35 m 494 106 b 621 232 494 176 550 232 b 747 106 692 232 747 176 b 621 -21 747 35 692 -21 b 494 106 550 -21 494 35 m 901 106 b 1028 232 901 176 957 232 b 1154 106 1099 232 1154 176 b 1028 -21 1154 35 1099 -21 b 901 106 957 -21 901 35 "},"‰":{"ha":1729,"x_min":0,"x_max":0,"o":"m 800 942 l 897 921 l 353 -19 l 257 3 m 285 826 b 206 794 247 826 221 811 b 175 714 188 776 175 747 b 206 633 175 681 188 651 b 285 601 221 617 247 601 b 364 633 322 601 349 617 b 394 714 382 651 394 681 b 364 794 394 747 382 776 b 285 826 349 811 322 826 m 528 714 b 468 558 528 632 492 582 b 285 489 425 514 358 489 b 101 558 211 489 144 514 b 42 714 78 582 42 632 b 101 869 42 796 78 846 b 285 939 144 914 211 939 b 468 869 358 939 425 914 b 528 714 492 846 528 796 m 868 325 b 789 293 831 325 804 310 b 758 213 771 275 758 246 b 789 132 758 179 771 150 b 868 100 804 115 831 100 b 947 132 906 100 932 115 b 978 213 965 150 978 179 b 947 293 978 246 965 275 b 868 325 932 310 906 325 m 1111 213 b 1051 57 1111 131 1075 81 b 868 -12 1008 13 942 -12 b 685 57 794 -12 728 13 b 625 213 661 81 625 131 b 685 368 625 294 661 344 b 868 438 728 413 794 438 b 1051 368 942 438 1008 413 b 1111 213 1075 344 1111 294 m 1444 325 b 1365 293 1407 325 1381 310 b 1335 213 1347 275 1335 246 b 1365 132 1335 179 1347 150 b 1444 100 1381 115 1407 100 b 1524 132 1482 100 1508 115 b 1554 213 1542 150 1554 179 b 1524 293 1554 246 1542 275 b 1444 325 1508 310 1482 325 m 1688 213 b 1628 57 1688 131 1651 81 b 1444 -12 1585 13 1518 -12 b 1261 57 1371 -12 1304 13 b 1201 213 1238 81 1201 131 b 1261 368 1201 294 1238 344 b 1444 438 1304 413 1371 438 b 1628 368 1518 438 1585 413 b 1688 213 1651 344 1688 294 "},"‹":{"ha":453,"x_min":0,"x_max":0,"o":"m 219 311 l 383 90 l 271 11 l 56 311 l 271 610 l 381 533 "},"›":{"ha":453,"x_min":0,"x_max":0,"o":"m 72 533 l 182 610 l 397 311 l 182 11 l 69 90 l 233 311 "},"⁄":{"ha":358,"x_min":0,"x_max":0,"o":"m 403 942 l 497 910 l -44 -19 l -139 14 "},"€":{"ha":833,"x_min":0,"x_max":0,"o":"m 758 39 b 514 -21 726 19 653 -21 b 231 61 408 -21 303 6 b 93 296 161 115 110 201 l -28 296 l 22 421 l 78 421 b 78 500 76 446 76 472 l -28 500 l 22 625 l 93 625 b 201 821 113 704 153 772 b 551 947 268 888 379 947 b 786 893 633 947 711 931 l 711 714 b 539 760 651 750 589 760 b 394 722 519 760 450 757 b 321 625 367 704 336 675 l 688 625 l 638 500 l 300 500 b 301 421 296 472 297 446 l 611 421 l 561 296 l 325 296 b 403 199 333 271 351 228 b 542 167 443 175 496 167 b 758 251 669 167 732 224 "},"₴":{"ha":833,"x_min":0,"x_max":0,"o":"m 132 856 b 258 917 174 883 215 901 b 453 947 328 940 386 947 b 656 883 517 947 594 942 b 717 742 690 850 717 800 b 675 628 717 689 696 653 l 778 628 l 778 493 l 579 493 l 482 406 l 778 406 l 778 271 l 356 271 b 331 226 340 260 331 242 b 364 182 331 201 350 189 b 438 168 388 171 410 168 b 563 188 472 168 528 174 b 643 231 585 196 624 218 l 744 78 b 608 8 707 50 663 26 b 397 -21 547 -11 474 -21 b 203 29 338 -21 263 -12 b 129 167 156 63 129 106 b 164 271 129 211 143 243 l 51 271 l 51 406 l 267 406 l 364 493 l 51 493 l 51 628 l 468 628 b 497 694 489 647 497 674 b 472 747 497 715 488 735 b 401 767 449 767 419 767 b 293 740 351 767 325 756 b 228 700 269 729 250 718 l 132 856 "},"₸":{"ha":833,"x_min":0,"x_max":0,"o":"m 522 579 l 522 0 l 308 0 l 308 579 l 108 579 l 108 746 l 725 746 l 725 579 m 108 801 l 108 926 l 725 926 l 725 801 "},"₽":{"ha":833,"x_min":0,"x_max":0,"o":"m 460 926 b 703 850 540 926 629 915 b 793 625 782 779 793 690 b 714 418 793 564 785 481 b 478 344 682 389 611 344 l 347 344 l 347 257 l 597 257 l 597 122 l 347 122 l 347 0 l 133 0 l 133 122 l 33 122 l 33 257 l 133 257 l 133 344 l 33 344 l 33 500 l 133 500 l 133 926 l 460 926 m 347 500 l 424 500 b 539 535 453 500 504 501 b 574 626 558 554 574 586 b 539 717 574 665 560 697 b 419 751 507 747 461 751 l 347 751 "},"№":{"ha":1599,"x_min":0,"x_max":0,"o":"m 1093 396 l 1510 396 l 1510 271 l 1093 271 m 101 0 l 101 926 l 285 926 l 750 332 l 750 926 l 961 926 l 961 0 l 778 0 l 313 597 l 313 0 m 1540 706 b 1479 554 1540 628 1506 581 b 1301 488 1451 526 1396 488 b 1124 554 1207 488 1151 526 b 1063 706 1097 581 1063 628 b 1124 860 1063 786 1099 835 b 1301 926 1151 888 1207 926 b 1479 860 1396 926 1451 888 b 1540 706 1504 835 1540 786 m 1301 810 b 1229 781 1271 810 1246 797 b 1201 707 1222 774 1201 750 b 1229 632 1201 681 1211 650 b 1301 604 1247 614 1278 604 b 1374 632 1328 604 1356 614 b 1401 707 1385 643 1401 667 b 1374 781 1401 739 1392 763 b 1301 810 1361 793 1338 810 "},"℗":{"ha":1057,"x_min":0,"x_max":0,"o":"m 546 735 b 710 679 592 735 660 732 b 756 556 749 639 756 590 b 713 435 756 493 733 457 b 547 385 668 389 600 385 l 499 385 l 499 208 l 349 208 l 349 735 m 499 499 l 519 499 b 589 515 563 499 581 508 b 608 561 606 529 608 547 b 589 606 608 574 606 592 b 518 621 569 621 543 621 l 499 621 m 528 861 b 263 753 439 861 332 819 b 143 464 194 686 143 576 b 263 174 143 350 194 239 b 528 65 332 107 439 65 b 793 174 617 65 724 107 b 913 464 861 239 913 350 b 793 753 913 576 861 686 b 528 861 724 819 617 861 m 1010 463 b 867 117 1010 331 957 207 b 528 -21 785 36 668 -21 b 189 117 388 -21 271 36 b 46 463 99 207 46 331 b 189 810 46 597 99 719 b 528 947 271 890 388 947 b 867 810 668 947 785 890 b 1010 463 957 719 1010 597 "},"™":{"ha":1064,"x_min":0,"x_max":0,"o":"m 254 813 l 254 399 l 124 399 l 124 813 l 11 813 l 11 926 l 368 926 l 368 813 m 390 399 l 481 926 l 596 926 l 710 636 l 832 926 l 946 926 l 1028 399 l 897 399 l 858 688 l 738 399 l 682 399 l 564 688 l 521 399 "},"∂":{"ha":779,"x_min":0,"x_max":0,"o":"m 144 940 b 572 775 288 931 457 883 b 732 382 703 653 732 485 b 626 79 732 264 696 153 b 383 -17 558 7 476 -17 b 144 72 290 -17 213 7 b 47 307 75 140 47 226 b 140 531 47 415 94 486 b 342 610 196 585 261 610 b 513 554 414 610 465 590 b 365 721 475 642 415 693 b 121 788 301 757 206 782 m 390 153 b 485 190 425 153 457 164 b 532 304 511 217 532 258 b 483 418 532 351 511 394 b 385 451 458 440 422 451 b 288 417 349 451 315 442 b 239 304 256 388 239 346 b 283 194 239 265 254 224 b 390 153 304 174 338 153 "},"∏":{"ha":1025,"x_min":0,"x_max":0,"o":"m 56 1042 l 969 1042 l 969 881 l 856 881 l 856 -186 l 969 -186 l 969 -347 l 564 -347 l 564 -186 l 675 -186 l 675 881 l 350 881 l 350 -186 l 461 -186 l 461 -347 l 56 -347 l 56 -186 l 169 -186 l 169 881 l 56 881 "},"∑":{"ha":933,"x_min":0,"x_max":0,"o":"m 863 1042 l 863 699 l 700 699 l 682 881 l 233 881 l 581 371 l 233 -186 l 694 -186 l 706 0 l 875 0 l 875 -347 l 31 -347 l 31 -167 l 368 371 l 31 861 l 31 1042 "},"−":{"ha":694,"x_min":0,"x_max":0,"o":"m 46 553 l 649 553 l 649 392 l 46 392 "},"∕":{"ha":972,"x_min":0,"x_max":0,"o":"m 753 1040 l 910 1013 l 178 -283 l 21 -256 "},"√":{"ha":928,"x_min":0,"x_max":0,"o":"m 928 1149 l 928 990 l 678 990 l 443 0 l 213 0 l 131 378 l 0 378 l 0 536 l 275 536 l 290 464 b 314 333 299 425 307 399 b 322 213 319 279 322 231 l 338 213 b 361 419 343 282 350 356 b 401 621 371 478 386 557 l 525 1149 "},"∞":{"ha":936,"x_min":0,"x_max":0,"o":"m 656 543 b 593 519 633 543 613 536 b 551 471 578 507 563 489 b 586 431 560 460 574 442 b 656 400 611 408 635 400 b 713 421 679 400 700 408 b 733 475 725 433 733 454 b 713 522 733 492 726 510 b 656 543 699 535 675 543 m 468 358 b 381 281 442 322 410 297 b 249 246 343 260 296 246 b 99 303 193 246 143 261 b 28 476 58 342 28 401 b 93 635 28 554 63 606 b 257 697 132 672 189 697 b 376 664 297 697 336 688 b 468 586 410 644 443 615 b 560 664 493 615 526 644 b 679 697 600 688 639 697 b 843 635 747 697 804 672 b 908 476 874 606 908 554 b 838 303 908 401 878 342 b 688 246 801 268 751 246 b 556 283 647 246 601 258 b 468 358 517 304 490 329 m 281 543 b 224 522 261 543 238 535 b 203 475 210 510 203 492 b 224 421 203 454 211 433 b 281 400 236 408 257 400 b 350 431 310 400 332 415 b 385 471 364 443 375 454 b 343 519 374 489 358 507 b 281 543 324 536 303 543 "},"∫":{"ha":704,"x_min":0,"x_max":0,"o":"m 442 -43 b 375 -285 442 -128 438 -221 b 192 -347 318 -343 246 -347 b 74 -333 149 -347 114 -343 l 106 -178 b 182 -192 131 -186 160 -192 b 242 -168 217 -192 235 -176 b 261 -81 264 -143 261 -104 l 261 714 b 328 981 261 808 267 917 b 507 1042 379 1035 453 1042 b 631 1028 550 1042 593 1036 l 597 872 b 526 886 576 881 550 886 b 465 865 494 886 475 875 b 442 775 442 842 442 797 "},"≈":{"ha":694,"x_min":0,"x_max":0,"o":"m 300 257 b 210 281 263 271 235 281 b 146 256 183 281 161 271 b 106 194 132 243 114 213 l 8 256 b 89 394 24 300 56 361 b 219 449 122 429 164 449 b 332 422 263 449 293 436 l 392 400 b 483 378 415 392 456 378 b 540 396 506 378 524 383 b 585 451 557 408 575 433 l 685 394 b 604 267 667 349 633 297 b 471 210 567 228 524 210 b 357 236 428 210 396 222 m 300 536 b 210 560 263 550 235 560 b 146 535 183 560 161 550 b 106 474 132 522 114 492 l 8 535 b 89 674 26 583 58 643 b 219 728 129 714 175 728 b 332 701 263 728 294 715 l 392 679 b 483 657 415 671 456 657 b 540 675 506 657 524 663 b 585 731 557 688 575 713 l 685 674 b 604 546 667 628 633 576 b 471 489 567 507 524 489 b 357 515 428 489 396 501 "},"≠":{"ha":694,"x_min":0,"x_max":0,"o":"m 46 661 l 368 661 l 440 808 l 578 808 l 507 661 l 647 661 l 647 508 l 435 508 l 389 411 l 647 411 l 647 258 l 318 258 l 247 114 l 110 114 l 179 258 l 46 258 l 46 411 l 250 411 l 297 508 l 46 508 "},"≤":{"ha":694,"x_min":0,"x_max":0,"o":"m 649 924 l 649 761 l 225 563 l 649 374 l 649 210 l 46 490 l 46 636 m 649 169 l 649 11 l 46 11 l 46 169 "},"≥":{"ha":694,"x_min":0,"x_max":0,"o":"m 649 490 l 46 210 l 46 374 l 469 563 l 46 761 l 46 924 l 649 636 m 649 11 l 46 11 l 46 169 l 649 169 "},"◊":{"ha":972,"x_min":0,"x_max":0,"o":"m 486 964 l 847 464 l 486 -36 l 125 464 m 486 679 l 329 464 l 486 249 l 643 464 "},"◦":{"ha":697,"x_min":0,"x_max":0,"o":"m 243 715 b 349 613 243 660 290 613 b 454 715 407 613 454 660 b 349 818 454 771 407 818 b 243 715 290 818 243 771 m 135 715 b 349 926 135 833 228 926 b 563 715 469 926 563 833 b 349 504 563 597 469 504 b 135 715 228 504 135 597 "},"":{"ha":3,"x_min":0,"x_max":0,"o":"m -150 903 l -361 715 l -451 782 l -281 993 "},"":{"ha":3,"x_min":0,"x_max":0,"o":"m -174 1185 l -401 1006 l -492 1079 l -306 1285 "},"":{"ha":694,"x_min":0,"x_max":0,"o":"m 586 1214 b 522 1068 583 1189 571 1117 b 347 1007 472 1018 399 1007 b 172 1068 296 1007 222 1018 b 108 1214 124 1117 111 1189 l 242 1214 b 268 1156 244 1192 256 1169 b 347 1126 286 1136 318 1126 b 426 1156 376 1126 408 1136 b 453 1214 439 1169 450 1192 "},"":{"ha":694,"x_min":0,"x_max":0,"o":"m 497 -125 l 342 -328 l 231 -272 l 358 -64 "},"":{"ha":694,"x_min":0,"x_max":0,"o":"m 85 1107 l 346 1301 l 608 1107 l 517 1008 l 346 1138 l 174 1008 "},"":{"ha":694,"x_min":0,"x_max":0,"o":"m 244 -69 l 431 -92 l 294 -361 l 167 -344 "},"":{"ha":694,"x_min":0,"x_max":0,"o":"m 264 944 l 444 903 l 289 628 l 167 656 "},"":{"ha":694,"x_min":0,"x_max":0,"o":"m 229 1132 b 347 1250 229 1199 281 1250 b 465 1132 414 1250 465 1199 b 347 1014 465 1065 414 1014 b 229 1132 281 1014 229 1065 "},"":{"ha":694,"x_min":0,"x_max":0,"o":"m 508 1149 b 471 1057 508 1114 494 1081 b 347 1013 440 1028 394 1013 b 224 1057 300 1013 254 1028 b 186 1149 200 1081 186 1114 b 224 1240 186 1183 200 1217 b 347 1285 254 1269 300 1285 b 471 1240 394 1285 440 1269 b 508 1149 494 1217 508 1183 m 347 1203 b 300 1186 325 1203 310 1196 b 283 1149 289 1175 283 1161 b 300 1111 283 1136 289 1122 b 347 1094 310 1101 325 1094 b 394 1111 369 1094 385 1101 b 411 1149 406 1122 411 1136 b 394 1186 411 1161 406 1175 b 347 1203 385 1196 369 1203 "},"":{"ha":694,"x_min":0,"x_max":0,"o":"m 604 1135 b 546 1054 589 1104 568 1076 b 447 1011 524 1032 494 1011 b 361 1033 418 1011 392 1021 l 304 1056 b 253 1071 282 1064 267 1071 b 189 1017 233 1071 207 1063 l 90 1086 b 142 1168 100 1107 122 1147 b 243 1210 171 1199 206 1210 b 326 1190 278 1210 303 1200 l 382 1168 b 439 1151 397 1163 417 1151 b 506 1204 469 1151 492 1171 "},"":{"ha":694,"x_min":0,"x_max":0,"o":"m 497 -239 b 406 -262 464 -258 432 -262 b 311 -229 376 -262 340 -258 b 279 -151 290 -208 279 -179 b 308 -67 279 -126 288 -97 b 368 0 325 -43 350 -17 l 460 0 b 422 -39 449 -11 431 -29 b 396 -100 406 -58 396 -81 b 413 -139 396 -117 403 -131 b 453 -153 424 -149 438 -153 b 522 -132 474 -153 500 -144 "},"":{"ha":940,"x_min":0,"x_max":0,"o":"m 646 175 l 296 175 l 225 0 l 3 0 l 376 926 l 572 926 l 938 0 l 715 0 m 588 339 l 474 650 l 358 339 m 679 1185 l 451 1006 l 361 1079 l 547 1285 "},"":{"ha":697,"x_min":0,"x_max":0,"o":"m 625 746 l 315 746 l 315 567 l 610 567 l 610 386 l 315 386 l 315 181 l 625 181 l 625 0 l 101 0 l 101 926 l 625 926 m 557 1185 l 329 1006 l 239 1079 l 425 1285 "},"":{"ha":1035,"x_min":0,"x_max":0,"o":"m 315 926 l 315 321 l 744 938 l 933 938 l 933 0 l 719 0 l 719 607 l 290 -11 l 101 -11 l 101 926 m 726 1185 l 499 1006 l 408 1079 l 594 1285 "}}}
